%TF.GenerationSoftware,KiCad,Pcbnew,(5.1.2)-1*%
%TF.CreationDate,2020-01-14T11:15:58-03:00*%
%TF.ProjectId,wifi 2,77696669-2032-42e6-9b69-6361645f7063,rev?*%
%TF.SameCoordinates,Original*%
%TF.FileFunction,Legend,Top*%
%TF.FilePolarity,Positive*%
%FSLAX46Y46*%
G04 Gerber Fmt 4.6, Leading zero omitted, Abs format (unit mm)*
G04 Created by KiCad (PCBNEW (5.1.2)-1) date 2020-01-14 11:15:58*
%MOMM*%
%LPD*%
G04 APERTURE LIST*
%ADD10C,0.300000*%
%ADD11C,0.150000*%
%ADD12C,0.200000*%
%ADD13C,0.100000*%
%ADD14C,0.508000*%
%ADD15C,0.381000*%
%ADD16C,0.127000*%
%ADD17C,0.304800*%
%ADD18C,0.120000*%
%ADD19C,0.254000*%
%ADD20C,0.002540*%
%ADD21C,0.075000*%
%ADD22C,0.250000*%
%ADD23C,0.200660*%
G04 APERTURE END LIST*
D10*
X134025238Y-149874761D02*
X134025238Y-147874761D01*
X135168095Y-149874761D01*
X135168095Y-147874761D01*
X140120476Y-149874761D02*
X139168095Y-149874761D01*
X139168095Y-147874761D01*
D11*
X143646190Y-141942380D02*
X143170000Y-141942380D01*
X143122380Y-142418571D01*
X143170000Y-142370952D01*
X143265238Y-142323333D01*
X143503333Y-142323333D01*
X143598571Y-142370952D01*
X143646190Y-142418571D01*
X143693809Y-142513809D01*
X143693809Y-142751904D01*
X143646190Y-142847142D01*
X143598571Y-142894761D01*
X143503333Y-142942380D01*
X143265238Y-142942380D01*
X143170000Y-142894761D01*
X143122380Y-142847142D01*
X144027142Y-142275714D02*
X144265238Y-142942380D01*
X144503333Y-142275714D01*
X146408095Y-142561428D02*
X147170000Y-142561428D01*
X151089523Y-143382380D02*
X151660952Y-143382380D01*
X151375238Y-144382380D02*
X151375238Y-143382380D01*
X151899047Y-144382380D02*
X152422857Y-143715714D01*
X151899047Y-143715714D02*
X152422857Y-144382380D01*
X149164761Y-144402380D02*
X148831428Y-143926190D01*
X148593333Y-144402380D02*
X148593333Y-143402380D01*
X148974285Y-143402380D01*
X149069523Y-143450000D01*
X149117142Y-143497619D01*
X149164761Y-143592857D01*
X149164761Y-143735714D01*
X149117142Y-143830952D01*
X149069523Y-143878571D01*
X148974285Y-143926190D01*
X148593333Y-143926190D01*
X149498095Y-144402380D02*
X150021904Y-143735714D01*
X149498095Y-143735714D02*
X150021904Y-144402380D01*
X151220000Y-141990000D02*
X152310000Y-141990000D01*
X152310000Y-141990000D02*
X151780000Y-142870000D01*
X151780000Y-142870000D02*
X151220000Y-141990000D01*
X149820000Y-142860000D02*
X148730000Y-142860000D01*
X149260000Y-141980000D02*
X149820000Y-142860000D01*
X148730000Y-142860000D02*
X149260000Y-141980000D01*
D12*
X147300000Y-153600000D02*
X147975000Y-153050000D01*
X156650000Y-154575000D02*
X157750000Y-153900000D01*
X148250000Y-154750000D02*
X148250000Y-153325000D01*
D11*
G36*
X179425000Y-155525000D02*
G01*
X179325000Y-155675000D01*
X179050000Y-155450000D01*
X179175000Y-155425000D01*
X179425000Y-155525000D01*
G37*
X179425000Y-155525000D02*
X179325000Y-155675000D01*
X179050000Y-155450000D01*
X179175000Y-155425000D01*
X179425000Y-155525000D01*
G36*
X179400000Y-152725000D02*
G01*
X179300000Y-154150000D01*
X179475000Y-155475000D01*
X178625000Y-155125000D01*
X178725000Y-153475000D01*
X179225000Y-152700000D01*
X179400000Y-152725000D01*
G37*
X179400000Y-152725000D02*
X179300000Y-154150000D01*
X179475000Y-155475000D01*
X178625000Y-155125000D01*
X178725000Y-153475000D01*
X179225000Y-152700000D01*
X179400000Y-152725000D01*
G36*
X179200000Y-153400000D02*
G01*
X179100000Y-153650000D01*
X178675000Y-153725000D01*
X179200000Y-153050000D01*
X179200000Y-153400000D01*
G37*
X179200000Y-153400000D02*
X179100000Y-153650000D01*
X178675000Y-153725000D01*
X179200000Y-153050000D01*
X179200000Y-153400000D01*
G36*
X179200000Y-155800000D02*
G01*
X178975000Y-155900000D01*
X178625000Y-155450000D01*
X178625000Y-155200000D01*
X178925000Y-155200000D01*
X179200000Y-155800000D01*
G37*
X179200000Y-155800000D02*
X178975000Y-155900000D01*
X178625000Y-155450000D01*
X178625000Y-155200000D01*
X178925000Y-155200000D01*
X179200000Y-155800000D01*
G36*
X178825000Y-155700000D02*
G01*
X178925000Y-155925000D01*
X178600000Y-156200000D01*
X178650000Y-155575000D01*
X178825000Y-155700000D01*
G37*
X178825000Y-155700000D02*
X178925000Y-155925000D01*
X178600000Y-156200000D01*
X178650000Y-155575000D01*
X178825000Y-155700000D01*
G36*
X179425000Y-152650000D02*
G01*
X178575000Y-153600000D01*
X168450000Y-153575000D01*
X168825000Y-153100000D01*
X169500000Y-152600000D01*
X179300000Y-152550000D01*
X179425000Y-152650000D01*
G37*
X179425000Y-152650000D02*
X178575000Y-153600000D01*
X168450000Y-153575000D01*
X168825000Y-153100000D01*
X169500000Y-152600000D01*
X179300000Y-152550000D01*
X179425000Y-152650000D01*
D12*
X169425000Y-152575000D02*
X168425000Y-153550000D01*
X179475000Y-152575000D02*
X169425000Y-152575000D01*
X179475000Y-152600000D02*
X178625000Y-153600000D01*
X179475000Y-155575000D02*
X179475000Y-152600000D01*
X178600000Y-156375000D02*
X179475000Y-155575000D01*
X150950000Y-150950000D02*
X152600000Y-151500000D01*
D11*
G36*
X154450000Y-147900000D02*
G01*
X154600000Y-148950000D01*
X154650000Y-149225000D01*
X154425000Y-149100000D01*
X153600000Y-148300000D01*
X154350000Y-147825000D01*
X154450000Y-147900000D01*
G37*
X154450000Y-147900000D02*
X154600000Y-148950000D01*
X154650000Y-149225000D01*
X154425000Y-149100000D01*
X153600000Y-148300000D01*
X154350000Y-147825000D01*
X154450000Y-147900000D01*
G36*
X152225000Y-148175000D02*
G01*
X153150000Y-148625000D01*
X153325000Y-148550000D01*
X153500000Y-148275000D01*
X154600000Y-149300000D01*
X153675000Y-149225000D01*
X152750000Y-149575000D01*
X152125000Y-149850000D01*
X151550000Y-150225000D01*
X151350000Y-150450000D01*
X150650000Y-149700000D01*
X150500000Y-149525000D01*
X150700000Y-149375000D01*
X151575000Y-149325000D01*
X151775000Y-149325000D01*
X152000000Y-148050000D01*
X152225000Y-148175000D01*
G37*
X152225000Y-148175000D02*
X153150000Y-148625000D01*
X153325000Y-148550000D01*
X153500000Y-148275000D01*
X154600000Y-149300000D01*
X153675000Y-149225000D01*
X152750000Y-149575000D01*
X152125000Y-149850000D01*
X151550000Y-150225000D01*
X151350000Y-150450000D01*
X150650000Y-149700000D01*
X150500000Y-149525000D01*
X150700000Y-149375000D01*
X151575000Y-149325000D01*
X151775000Y-149325000D01*
X152000000Y-148050000D01*
X152225000Y-148175000D01*
D12*
X150025000Y-149600000D02*
G75*
G03X150025000Y-149600000I-100000J0D01*
G01*
X151981066Y-147650000D02*
G75*
G03X151981066Y-147650000I-106066J0D01*
G01*
X154911803Y-147400000D02*
G75*
G03X154911803Y-147400000I-111803J0D01*
G01*
X154575000Y-147750000D02*
X154450000Y-148025000D01*
X154350000Y-147850000D02*
X154575000Y-147750000D01*
X153950000Y-148050000D02*
X154350000Y-147850000D01*
X153500000Y-148325000D02*
X153950000Y-148050000D01*
X153325000Y-148600000D02*
X153500000Y-148325000D01*
X153075000Y-148650000D02*
X153325000Y-148600000D01*
X151850000Y-149025000D02*
X152025000Y-148075000D01*
X151750000Y-149325000D02*
X151850000Y-149025000D01*
X151300000Y-149375000D02*
X151750000Y-149325000D01*
X150400000Y-149575000D02*
X150750000Y-149400000D01*
X150725000Y-149725000D02*
X150400000Y-149575000D01*
X151175000Y-150150000D02*
X150725000Y-149725000D01*
X151400000Y-150625000D02*
X151175000Y-150150000D01*
X154500000Y-148700000D02*
X154450000Y-148100000D01*
X154625000Y-149075000D02*
X154500000Y-148700000D01*
X154450000Y-149150000D02*
X154275000Y-148850000D01*
X151400000Y-150500000D02*
X151425000Y-150550000D01*
X151475000Y-150350000D02*
X151400000Y-150500000D01*
X151725000Y-150100000D02*
X151475000Y-150350000D01*
X152300000Y-149750000D02*
X151725000Y-150100000D01*
X152975000Y-149450000D02*
X152300000Y-149750000D01*
X153400000Y-149325000D02*
X152975000Y-149450000D01*
X153875000Y-149225000D02*
X153400000Y-149325000D01*
X154250000Y-149225000D02*
X153875000Y-149225000D01*
X154500000Y-149275000D02*
X154250000Y-149225000D01*
X154700000Y-149450000D02*
X154500000Y-149275000D01*
X154575000Y-149700000D02*
X154700000Y-149450000D01*
X154275000Y-150000000D02*
X154575000Y-149700000D01*
X153475000Y-150350000D02*
X154275000Y-150000000D01*
X152900000Y-150525000D02*
X153475000Y-150350000D01*
X152325000Y-150625000D02*
X152900000Y-150525000D01*
X151700000Y-150650000D02*
X152325000Y-150625000D01*
X151475000Y-150625000D02*
X151700000Y-150650000D01*
X156125000Y-155575000D02*
X156175000Y-155575000D01*
X142425000Y-156700000D02*
X142600000Y-156900000D01*
X156400000Y-157900000D02*
X158575000Y-159275000D01*
X155350000Y-157975000D02*
X156000000Y-157625000D01*
X152800000Y-158075000D02*
X153700000Y-158150000D01*
X149475000Y-157850000D02*
X151900000Y-158050000D01*
X147650000Y-157075000D02*
X148400000Y-157625000D01*
X151625000Y-156875000D02*
X150500000Y-156850000D01*
X151800000Y-155350000D02*
X151625000Y-156875000D01*
X153100000Y-156800000D02*
X154375000Y-156825000D01*
X153800000Y-155150000D02*
X153100000Y-156800000D01*
X158550000Y-157550000D02*
X158775000Y-156575000D01*
X157550000Y-156775000D02*
X158550000Y-157550000D01*
X159725000Y-158675000D02*
X160500000Y-153050000D01*
X160350000Y-151050000D02*
X160575000Y-151750000D01*
X157500000Y-148825000D02*
X159000000Y-150775000D01*
X155975000Y-152075000D02*
X156500000Y-149000000D01*
X155200000Y-150275000D02*
X155650000Y-153075000D01*
X153625000Y-152650000D02*
X154125000Y-151075000D01*
X153350000Y-152450000D02*
X153625000Y-152650000D01*
X148475000Y-150900000D02*
X149550000Y-150700000D01*
X146675000Y-149300000D02*
X147450000Y-150800000D01*
X145450000Y-153150000D02*
X145425000Y-150200000D01*
X144150000Y-154625000D02*
X144675000Y-154275000D01*
X143300000Y-155550000D02*
X144150000Y-154625000D01*
X144900000Y-155600000D02*
X145975000Y-156225000D01*
X143950000Y-156325000D02*
X144900000Y-155600000D01*
X146600000Y-155025000D02*
X147650000Y-155700000D01*
X146550000Y-152575000D02*
X146550000Y-151475000D01*
D11*
G36*
X157300000Y-149000000D02*
G01*
X159150000Y-151550000D01*
X158975000Y-153975000D01*
X158525000Y-154000000D01*
X158575000Y-153900000D01*
X158575000Y-151950000D01*
X156975000Y-149550000D01*
X157050000Y-148975000D01*
X157300000Y-149000000D01*
G37*
X157300000Y-149000000D02*
X159150000Y-151550000D01*
X158975000Y-153975000D01*
X158525000Y-154000000D01*
X158575000Y-153900000D01*
X158575000Y-151950000D01*
X156975000Y-149550000D01*
X157050000Y-148975000D01*
X157300000Y-149000000D01*
D12*
X154400000Y-153150000D02*
X154575000Y-152675000D01*
X157050000Y-152400000D02*
X157300000Y-151000000D01*
X156600735Y-155550000D02*
G75*
G03X156600735Y-155550000I-425735J0D01*
G01*
D11*
G36*
X151725000Y-153150000D02*
G01*
X150400000Y-153950000D01*
X150300000Y-153800000D01*
X150325000Y-153750000D01*
X151550000Y-152975000D01*
X151725000Y-153150000D01*
G37*
X151725000Y-153150000D02*
X150400000Y-153950000D01*
X150300000Y-153800000D01*
X150325000Y-153750000D01*
X151550000Y-152975000D01*
X151725000Y-153150000D01*
G36*
X151225000Y-152850000D02*
G01*
X150350000Y-153375000D01*
X150275000Y-153225000D01*
X150275000Y-153200000D01*
X151075000Y-152625000D01*
X151225000Y-152850000D01*
G37*
X151225000Y-152850000D02*
X150350000Y-153375000D01*
X150275000Y-153225000D01*
X150275000Y-153200000D01*
X151075000Y-152625000D01*
X151225000Y-152850000D01*
G36*
X150700000Y-152350000D02*
G01*
X150200000Y-152725000D01*
X150200000Y-152700000D01*
X150275000Y-152650000D01*
X150175000Y-152675000D01*
X150675000Y-152225000D01*
X150700000Y-152350000D01*
G37*
X150700000Y-152350000D02*
X150200000Y-152725000D01*
X150200000Y-152700000D01*
X150275000Y-152650000D01*
X150175000Y-152675000D01*
X150675000Y-152225000D01*
X150700000Y-152350000D01*
G36*
X157350000Y-149100000D02*
G01*
X156600000Y-153500000D01*
X156025000Y-153600000D01*
X156825000Y-148850000D01*
X157350000Y-149100000D01*
G37*
X157350000Y-149100000D02*
X156600000Y-153500000D01*
X156025000Y-153600000D01*
X156825000Y-148850000D01*
X157350000Y-149100000D01*
G36*
X160375000Y-151875000D02*
G01*
X160200000Y-152350000D01*
X159625000Y-152400000D01*
X159500000Y-152475000D01*
X156200000Y-154175000D01*
X156025000Y-153600000D01*
X160100000Y-151200000D01*
X160375000Y-151875000D01*
G37*
X160375000Y-151875000D02*
X160200000Y-152350000D01*
X159625000Y-152400000D01*
X159500000Y-152475000D01*
X156200000Y-154175000D01*
X156025000Y-153600000D01*
X160100000Y-151200000D01*
X160375000Y-151875000D01*
G36*
X160350000Y-151925000D02*
G01*
X159325000Y-159275000D01*
X155625000Y-156875000D01*
X155525000Y-156675000D01*
X155450000Y-156125000D01*
X156000000Y-156250000D01*
X158850000Y-158225000D01*
X159675000Y-152100000D01*
X160100000Y-151325000D01*
X160350000Y-151925000D01*
G37*
X160350000Y-151925000D02*
X159325000Y-159275000D01*
X155625000Y-156875000D01*
X155525000Y-156675000D01*
X155450000Y-156125000D01*
X156000000Y-156250000D01*
X158850000Y-158225000D01*
X159675000Y-152100000D01*
X160100000Y-151325000D01*
X160350000Y-151925000D01*
G36*
X153850000Y-154050000D02*
G01*
X152800000Y-156950000D01*
X152975000Y-157125000D01*
X154725000Y-157100000D01*
X157100000Y-156025000D01*
X157275000Y-156200000D01*
X157050000Y-156775000D01*
X154625000Y-157775000D01*
X152325000Y-157600000D01*
X153400000Y-153675000D01*
X153850000Y-154050000D01*
G37*
X153850000Y-154050000D02*
X152800000Y-156950000D01*
X152975000Y-157125000D01*
X154725000Y-157100000D01*
X157100000Y-156025000D01*
X157275000Y-156200000D01*
X157050000Y-156775000D01*
X154625000Y-157775000D01*
X152325000Y-157600000D01*
X153400000Y-153675000D01*
X153850000Y-154050000D01*
G36*
X155675000Y-154850000D02*
G01*
X155575000Y-154925000D01*
X153570719Y-153718341D01*
X153366072Y-153400000D01*
X154025000Y-153400000D01*
X155175000Y-154300000D01*
X154775000Y-151450000D01*
X154691667Y-151175000D01*
X154725000Y-151325000D01*
X154025000Y-153400000D01*
X153366072Y-153400000D01*
X153350000Y-153375000D01*
X153150000Y-153075000D01*
X153200000Y-152700000D01*
X153700000Y-153050000D01*
X154551832Y-150713546D01*
X154525000Y-150625000D01*
X155000000Y-150225000D01*
X155675000Y-154850000D01*
G37*
X155675000Y-154850000D02*
X155575000Y-154925000D01*
X153570719Y-153718341D01*
X153366072Y-153400000D01*
X154025000Y-153400000D01*
X155175000Y-154300000D01*
X154775000Y-151450000D01*
X154691667Y-151175000D01*
X154725000Y-151325000D01*
X154025000Y-153400000D01*
X153366072Y-153400000D01*
X153350000Y-153375000D01*
X153150000Y-153075000D01*
X153200000Y-152700000D01*
X153700000Y-153050000D01*
X154551832Y-150713546D01*
X154525000Y-150625000D01*
X155000000Y-150225000D01*
X155675000Y-154850000D01*
G36*
X153570719Y-153718341D02*
G01*
X153575000Y-153725000D01*
X153125000Y-153450000D01*
X153570719Y-153718341D01*
G37*
X153570719Y-153718341D02*
X153575000Y-153725000D01*
X153125000Y-153450000D01*
X153570719Y-153718341D01*
G36*
X147750000Y-151850000D02*
G01*
X148575000Y-151100000D01*
X149675000Y-150925000D01*
X148925000Y-157475000D01*
X144950000Y-155175000D01*
X143025000Y-156650000D01*
X142850000Y-156475000D01*
X142825000Y-156425000D01*
X144425000Y-154775000D01*
X145125000Y-154400000D01*
X148575000Y-156675000D01*
X148650000Y-152025000D01*
X146375000Y-153825000D01*
X145750000Y-153725000D01*
X145747134Y-153275000D01*
X146325000Y-153275000D01*
X147500000Y-152400000D01*
X146325000Y-150325391D01*
X146325000Y-153275000D01*
X145747134Y-153275000D01*
X145725000Y-149800000D01*
X145933130Y-149633496D01*
X145900000Y-149575000D01*
X146150000Y-149225000D01*
X147750000Y-151850000D01*
G37*
X147750000Y-151850000D02*
X148575000Y-151100000D01*
X149675000Y-150925000D01*
X148925000Y-157475000D01*
X144950000Y-155175000D01*
X143025000Y-156650000D01*
X142850000Y-156475000D01*
X142825000Y-156425000D01*
X144425000Y-154775000D01*
X145125000Y-154400000D01*
X148575000Y-156675000D01*
X148650000Y-152025000D01*
X146375000Y-153825000D01*
X145750000Y-153725000D01*
X145747134Y-153275000D01*
X146325000Y-153275000D01*
X147500000Y-152400000D01*
X146325000Y-150325391D01*
X146325000Y-153275000D01*
X145747134Y-153275000D01*
X145725000Y-149800000D01*
X145933130Y-149633496D01*
X145900000Y-149575000D01*
X146150000Y-149225000D01*
X147750000Y-151850000D01*
G36*
X153150000Y-152000000D02*
G01*
X152525000Y-156500000D01*
X152325000Y-157250000D01*
X152275000Y-157275000D01*
X151875000Y-157275000D01*
X152275000Y-153675000D01*
X152275000Y-152275000D01*
X149875000Y-151475000D01*
X149675000Y-150975000D01*
X153150000Y-152000000D01*
G37*
X153150000Y-152000000D02*
X152525000Y-156500000D01*
X152325000Y-157250000D01*
X152275000Y-157275000D01*
X151875000Y-157275000D01*
X152275000Y-153675000D01*
X152275000Y-152275000D01*
X149875000Y-151475000D01*
X149675000Y-150975000D01*
X153150000Y-152000000D01*
G36*
X149875000Y-151275000D02*
G01*
X149500688Y-157076835D01*
X152275000Y-157275000D01*
X152275000Y-157475000D01*
X152075000Y-157675000D01*
X149475000Y-157475000D01*
X149500688Y-157076835D01*
X149475000Y-157075000D01*
X149475000Y-157475000D01*
X148875000Y-157275000D01*
X149275000Y-151275000D01*
X149675000Y-151075000D01*
X149875000Y-151275000D01*
G37*
X149875000Y-151275000D02*
X149500688Y-157076835D01*
X152275000Y-157275000D01*
X152275000Y-157475000D01*
X152075000Y-157675000D01*
X149475000Y-157475000D01*
X149500688Y-157076835D01*
X149475000Y-157075000D01*
X149475000Y-157475000D01*
X148875000Y-157275000D01*
X149275000Y-151275000D01*
X149675000Y-151075000D01*
X149875000Y-151275000D01*
D12*
X159075000Y-158675000D02*
X155675000Y-156675000D01*
X160075000Y-151475000D02*
X159075000Y-158675000D01*
X156275000Y-153875000D02*
X160075000Y-151475000D01*
X157075000Y-149275000D02*
X156275000Y-153875000D01*
X158875000Y-152075000D02*
X157075000Y-149275000D01*
X154475000Y-157475000D02*
X157075000Y-156275000D01*
X152475000Y-157275000D02*
X154475000Y-157475000D01*
X154875000Y-150475000D02*
X152475000Y-157275000D01*
X155475000Y-154675000D02*
X154875000Y-150475000D01*
X153275000Y-153075000D02*
X155475000Y-154675000D01*
X149675000Y-151275000D02*
X149475000Y-151475000D01*
X152875000Y-152075000D02*
X149675000Y-151275000D01*
X152075000Y-157475000D02*
X152875000Y-152075000D01*
X150075000Y-157275000D02*
X152075000Y-157475000D01*
X149075000Y-157275000D02*
X150075000Y-157275000D01*
X149475000Y-151675000D02*
X149075000Y-157275000D01*
X145075000Y-154675000D02*
X142875000Y-156475000D01*
X148875000Y-157275000D02*
X145075000Y-154675000D01*
X149075000Y-151275000D02*
X148875000Y-157275000D01*
X146075000Y-153675000D02*
X149075000Y-151275000D01*
X146075000Y-149475000D02*
X146075000Y-153675000D01*
X147675000Y-152275000D02*
X146075000Y-149475000D01*
D11*
G36*
X118200000Y-153400000D02*
G01*
X104000000Y-153400000D01*
X105200000Y-152400000D01*
X119400000Y-152400000D01*
X118200000Y-153400000D01*
G37*
X118200000Y-153400000D02*
X104000000Y-153400000D01*
X105200000Y-152400000D01*
X119400000Y-152400000D01*
X118200000Y-153400000D01*
G36*
X119400000Y-155200000D02*
G01*
X118200000Y-156400000D01*
X118200000Y-153400000D01*
X119400000Y-152400000D01*
X119400000Y-155200000D01*
G37*
X119400000Y-155200000D02*
X118200000Y-156400000D01*
X118200000Y-153400000D01*
X119400000Y-152400000D01*
X119400000Y-155200000D01*
D12*
X118200000Y-153400000D02*
X119400000Y-152400000D01*
X104000000Y-153400000D02*
X105200000Y-152400000D01*
X115400000Y-152400000D02*
X105200000Y-152400000D01*
X119400000Y-152400000D02*
X115400000Y-152400000D01*
X119400000Y-155200000D02*
X119400000Y-152400000D01*
X118200000Y-156400000D02*
X119400000Y-155200000D01*
X104000000Y-156400000D02*
X118200000Y-156400000D01*
X104000000Y-153400000D02*
X104000000Y-156400000D01*
X118200000Y-153400000D02*
X104000000Y-153400000D01*
X118200000Y-156400000D02*
X118200000Y-153400000D01*
D11*
X178600000Y-156400000D02*
X168400000Y-156400000D01*
X178600000Y-153600000D02*
X178600000Y-156400000D01*
X168400000Y-153600000D02*
X178600000Y-153600000D01*
X168400000Y-156400000D02*
X168400000Y-153600000D01*
D10*
X104642857Y-154892857D02*
X105142857Y-154892857D01*
X105357142Y-155678571D02*
X104642857Y-155678571D01*
X104642857Y-154178571D01*
X105357142Y-154178571D01*
X106000000Y-155535714D02*
X106071428Y-155607142D01*
X106000000Y-155678571D01*
X105928571Y-155607142D01*
X106000000Y-155535714D01*
X106000000Y-155678571D01*
X106714285Y-154892857D02*
X107214285Y-154892857D01*
X107428571Y-155678571D02*
X106714285Y-155678571D01*
X106714285Y-154178571D01*
X107428571Y-154178571D01*
X108071428Y-155535714D02*
X108142857Y-155607142D01*
X108071428Y-155678571D01*
X108000000Y-155607142D01*
X108071428Y-155535714D01*
X108071428Y-155678571D01*
X108714285Y-155607142D02*
X108928571Y-155678571D01*
X109285714Y-155678571D01*
X109428571Y-155607142D01*
X109500000Y-155535714D01*
X109571428Y-155392857D01*
X109571428Y-155250000D01*
X109500000Y-155107142D01*
X109428571Y-155035714D01*
X109285714Y-154964285D01*
X109000000Y-154892857D01*
X108857142Y-154821428D01*
X108785714Y-154750000D01*
X108714285Y-154607142D01*
X108714285Y-154464285D01*
X108785714Y-154321428D01*
X108857142Y-154250000D01*
X109000000Y-154178571D01*
X109357142Y-154178571D01*
X109571428Y-154250000D01*
X110214285Y-155535714D02*
X110285714Y-155607142D01*
X110214285Y-155678571D01*
X110142857Y-155607142D01*
X110214285Y-155535714D01*
X110214285Y-155678571D01*
X110714285Y-154178571D02*
X111571428Y-154178571D01*
X111142857Y-155678571D02*
X111142857Y-154178571D01*
X112071428Y-155535714D02*
X112142857Y-155607142D01*
X112071428Y-155678571D01*
X112000000Y-155607142D01*
X112071428Y-155535714D01*
X112071428Y-155678571D01*
X113928571Y-155678571D02*
X113928571Y-154178571D01*
X114785714Y-155678571D01*
X114785714Y-154178571D01*
X115714285Y-154178571D02*
X115571428Y-154250000D01*
X115500000Y-154392857D01*
X115571428Y-154535714D01*
X115714285Y-154607142D01*
X115857142Y-154535714D01*
X115928571Y-154392857D01*
X115857142Y-154250000D01*
X115714285Y-154178571D01*
X117357142Y-154178571D02*
X116642857Y-154178571D01*
X116571428Y-154892857D01*
X116642857Y-154821428D01*
X116785714Y-154750000D01*
X117142857Y-154750000D01*
X117285714Y-154821428D01*
X117357142Y-154892857D01*
X117428571Y-155035714D01*
X117428571Y-155392857D01*
X117357142Y-155535714D01*
X117285714Y-155607142D01*
X117142857Y-155678571D01*
X116785714Y-155678571D01*
X116642857Y-155607142D01*
X116571428Y-155535714D01*
X168964285Y-155607142D02*
X169178571Y-155678571D01*
X169535714Y-155678571D01*
X169678571Y-155607142D01*
X169750000Y-155535714D01*
X169821428Y-155392857D01*
X169821428Y-155250000D01*
X169750000Y-155107142D01*
X169678571Y-155035714D01*
X169535714Y-154964285D01*
X169250000Y-154892857D01*
X169107142Y-154821428D01*
X169035714Y-154750000D01*
X168964285Y-154607142D01*
X168964285Y-154464285D01*
X169035714Y-154321428D01*
X169107142Y-154250000D01*
X169250000Y-154178571D01*
X169607142Y-154178571D01*
X169821428Y-154250000D01*
X170464285Y-154892857D02*
X170964285Y-154892857D01*
X171178571Y-155678571D02*
X170464285Y-155678571D01*
X170464285Y-154178571D01*
X171178571Y-154178571D01*
X172535714Y-155678571D02*
X171821428Y-155678571D01*
X171821428Y-154178571D01*
X173535714Y-154892857D02*
X173035714Y-154892857D01*
X173035714Y-155678571D02*
X173035714Y-154178571D01*
X173750000Y-154178571D01*
X175178571Y-155678571D02*
X174678571Y-154964285D01*
X174321428Y-155678571D02*
X174321428Y-154178571D01*
X174892857Y-154178571D01*
X175035714Y-154250000D01*
X175107142Y-154321428D01*
X175178571Y-154464285D01*
X175178571Y-154678571D01*
X175107142Y-154821428D01*
X175035714Y-154892857D01*
X174892857Y-154964285D01*
X174321428Y-154964285D01*
X175750000Y-155250000D02*
X176464285Y-155250000D01*
X175607142Y-155678571D02*
X176107142Y-154178571D01*
X176607142Y-155678571D01*
X177107142Y-155678571D02*
X177107142Y-154178571D01*
X177964285Y-155678571D01*
X177964285Y-154178571D01*
D11*
X95000000Y-160000000D02*
X185000000Y-160000000D01*
X90000000Y-85000000D02*
X90000000Y-155000000D01*
X185000000Y-80000000D02*
X95000000Y-80000000D01*
X190000000Y-155000000D02*
X190000000Y-85000000D01*
X190000000Y-155000000D02*
G75*
G02X185000000Y-160000000I-5000000J0D01*
G01*
X185000000Y-80000000D02*
G75*
G02X190000000Y-85000000I0J-5000000D01*
G01*
X90000000Y-85000000D02*
G75*
G02X95000000Y-80000000I5000000J0D01*
G01*
X95000000Y-160000000D02*
G75*
G02X90000000Y-155000000I0J5000000D01*
G01*
D13*
X128938483Y-104203068D02*
X129555844Y-104203068D01*
X128938483Y-106196262D02*
X128938483Y-104203068D01*
X129591122Y-106196262D02*
X128938483Y-106196262D01*
X129573483Y-102192235D02*
X129626400Y-108277651D01*
X131143344Y-102192235D02*
X129573483Y-102192235D01*
X131672511Y-102686124D02*
X131143344Y-102192235D01*
X132960150Y-102686124D02*
X131672511Y-102686124D01*
X132960150Y-107748485D02*
X132960150Y-102686124D01*
X131707789Y-107748485D02*
X132960150Y-107748485D01*
X131178622Y-108277651D02*
X131707789Y-107748485D01*
X129626400Y-108277651D02*
X131178622Y-108277651D01*
X143549650Y-101814812D02*
X143549650Y-107628549D01*
X136410069Y-101814812D02*
X143549650Y-101814812D01*
X136410069Y-107628549D02*
X136410069Y-101814812D01*
X143549650Y-107628549D02*
X136410069Y-107628549D01*
X129537520Y-108255819D02*
X129567314Y-101447476D01*
X127593974Y-109216715D02*
X129537520Y-108255819D01*
X127618922Y-131771807D02*
X127593974Y-109216715D01*
X127734518Y-132664575D02*
X127618922Y-131771807D01*
X127962878Y-133419613D02*
X127734518Y-132664575D01*
X128290405Y-134051460D02*
X127962878Y-133419613D01*
X128703497Y-134574658D02*
X128290405Y-134051460D01*
X129188555Y-135003743D02*
X128703497Y-134574658D01*
X129731982Y-135353258D02*
X129188555Y-135003743D01*
X130320176Y-135637741D02*
X129731982Y-135353258D01*
X130939540Y-135871734D02*
X130320176Y-135637741D01*
X149977453Y-135842976D02*
X130939540Y-135871734D01*
X150575250Y-135657310D02*
X149977453Y-135842976D01*
X151119440Y-135410377D02*
X150575250Y-135657310D01*
X151610512Y-135102741D02*
X151119440Y-135410377D01*
X152048953Y-134734952D02*
X151610512Y-135102741D01*
X152435253Y-134307577D02*
X152048953Y-134734952D01*
X152769901Y-133821167D02*
X152435253Y-134307577D01*
X153053384Y-133276286D02*
X152769901Y-133821167D01*
X153286195Y-132673493D02*
X153053384Y-133276286D01*
X153300193Y-101503342D02*
X153286195Y-132673493D01*
X144219397Y-101477264D02*
X153300193Y-101503342D01*
X144221373Y-102679517D02*
X144219397Y-101477264D01*
X135390151Y-102686205D02*
X144221373Y-102679517D01*
X135363820Y-101402772D02*
X135390151Y-102686205D01*
X129552528Y-101402772D02*
X135363820Y-101402772D01*
D14*
X180315000Y-119510000D02*
X180315000Y-104010000D01*
X160815000Y-119510000D02*
X180315000Y-119510000D01*
X160815000Y-104010000D02*
X180315000Y-104010000D01*
X160815000Y-119510000D02*
X160815000Y-104110000D01*
X176815000Y-113510000D02*
X176815000Y-115760000D01*
X176815000Y-107760000D02*
X176815000Y-110010000D01*
X172215000Y-111760000D02*
X173715000Y-111760000D01*
X173715000Y-111760000D02*
X178315000Y-109260000D01*
X172215000Y-115360000D02*
X165415000Y-115360000D01*
X172215000Y-111760000D02*
X172215000Y-115360000D01*
X164815000Y-111760000D02*
X165415000Y-111760000D01*
X165415000Y-111760000D02*
X165415000Y-115360000D01*
X166815000Y-117760000D02*
X168815000Y-117760000D01*
X166815000Y-105760000D02*
X168815000Y-105760000D01*
X168815000Y-105760000D02*
X168815000Y-109960000D01*
X168815000Y-113560000D02*
X168815000Y-117760000D01*
X170815000Y-113560000D02*
X166815000Y-109960000D01*
X166815000Y-113560000D02*
X166815000Y-109960000D01*
X166815000Y-109960000D02*
X170815000Y-109960000D01*
X170815000Y-109960000D02*
X170815000Y-113560000D01*
X170815000Y-113560000D02*
X166815000Y-113560000D01*
X180315000Y-149990000D02*
X180315000Y-134490000D01*
X160815000Y-149990000D02*
X180315000Y-149990000D01*
X160815000Y-134490000D02*
X180315000Y-134490000D01*
X160815000Y-149990000D02*
X160815000Y-134590000D01*
X176815000Y-143990000D02*
X176815000Y-146240000D01*
X176815000Y-138240000D02*
X176815000Y-140490000D01*
X172215000Y-142240000D02*
X173715000Y-142240000D01*
X173715000Y-142240000D02*
X178315000Y-139740000D01*
X172215000Y-145840000D02*
X165415000Y-145840000D01*
X172215000Y-142240000D02*
X172215000Y-145840000D01*
X164815000Y-142240000D02*
X165415000Y-142240000D01*
X165415000Y-142240000D02*
X165415000Y-145840000D01*
X166815000Y-148240000D02*
X168815000Y-148240000D01*
X166815000Y-136240000D02*
X168815000Y-136240000D01*
X168815000Y-136240000D02*
X168815000Y-140440000D01*
X168815000Y-144040000D02*
X168815000Y-148240000D01*
X170815000Y-144040000D02*
X166815000Y-140440000D01*
X166815000Y-144040000D02*
X166815000Y-140440000D01*
X166815000Y-140440000D02*
X170815000Y-140440000D01*
X170815000Y-140440000D02*
X170815000Y-144040000D01*
X170815000Y-144040000D02*
X166815000Y-144040000D01*
X180315000Y-134750000D02*
X180315000Y-119250000D01*
X160815000Y-134750000D02*
X180315000Y-134750000D01*
X160815000Y-119250000D02*
X180315000Y-119250000D01*
X160815000Y-134750000D02*
X160815000Y-119350000D01*
X176815000Y-128750000D02*
X176815000Y-131000000D01*
X176815000Y-123000000D02*
X176815000Y-125250000D01*
X172215000Y-127000000D02*
X173715000Y-127000000D01*
X173715000Y-127000000D02*
X178315000Y-124500000D01*
X172215000Y-130600000D02*
X165415000Y-130600000D01*
X172215000Y-127000000D02*
X172215000Y-130600000D01*
X164815000Y-127000000D02*
X165415000Y-127000000D01*
X165415000Y-127000000D02*
X165415000Y-130600000D01*
X166815000Y-133000000D02*
X168815000Y-133000000D01*
X166815000Y-121000000D02*
X168815000Y-121000000D01*
X168815000Y-121000000D02*
X168815000Y-125200000D01*
X168815000Y-128800000D02*
X168815000Y-133000000D01*
X170815000Y-128800000D02*
X166815000Y-125200000D01*
X166815000Y-128800000D02*
X166815000Y-125200000D01*
X166815000Y-125200000D02*
X170815000Y-125200000D01*
X170815000Y-125200000D02*
X170815000Y-128800000D01*
X170815000Y-128800000D02*
X166815000Y-128800000D01*
X180315000Y-104270000D02*
X180315000Y-88770000D01*
X160815000Y-104270000D02*
X180315000Y-104270000D01*
X160815000Y-88770000D02*
X180315000Y-88770000D01*
X160815000Y-104270000D02*
X160815000Y-88870000D01*
X176815000Y-98270000D02*
X176815000Y-100520000D01*
X176815000Y-92520000D02*
X176815000Y-94770000D01*
X172215000Y-96520000D02*
X173715000Y-96520000D01*
X173715000Y-96520000D02*
X178315000Y-94020000D01*
X172215000Y-100120000D02*
X165415000Y-100120000D01*
X172215000Y-96520000D02*
X172215000Y-100120000D01*
X164815000Y-96520000D02*
X165415000Y-96520000D01*
X165415000Y-96520000D02*
X165415000Y-100120000D01*
X166815000Y-102520000D02*
X168815000Y-102520000D01*
X166815000Y-90520000D02*
X168815000Y-90520000D01*
X168815000Y-90520000D02*
X168815000Y-94720000D01*
X168815000Y-98320000D02*
X168815000Y-102520000D01*
X170815000Y-98320000D02*
X166815000Y-94720000D01*
X166815000Y-98320000D02*
X166815000Y-94720000D01*
X166815000Y-94720000D02*
X170815000Y-94720000D01*
X170815000Y-94720000D02*
X170815000Y-98320000D01*
X170815000Y-98320000D02*
X166815000Y-98320000D01*
X99720000Y-134490000D02*
X99720000Y-149990000D01*
X119220000Y-134490000D02*
X99720000Y-134490000D01*
X119220000Y-149990000D02*
X99720000Y-149990000D01*
X119220000Y-134490000D02*
X119220000Y-149890000D01*
X103220000Y-140490000D02*
X103220000Y-138240000D01*
X103220000Y-146240000D02*
X103220000Y-143990000D01*
X107820000Y-142240000D02*
X106320000Y-142240000D01*
X106320000Y-142240000D02*
X101720000Y-144740000D01*
X107820000Y-138640000D02*
X114620000Y-138640000D01*
X107820000Y-142240000D02*
X107820000Y-138640000D01*
X115220000Y-142240000D02*
X114620000Y-142240000D01*
X114620000Y-142240000D02*
X114620000Y-138640000D01*
X113220000Y-136240000D02*
X111220000Y-136240000D01*
X113220000Y-148240000D02*
X111220000Y-148240000D01*
X111220000Y-148240000D02*
X111220000Y-144040000D01*
X111220000Y-140440000D02*
X111220000Y-136240000D01*
X109220000Y-140440000D02*
X113220000Y-144040000D01*
X113220000Y-140440000D02*
X113220000Y-144040000D01*
X113220000Y-144040000D02*
X109220000Y-144040000D01*
X109220000Y-144040000D02*
X109220000Y-140440000D01*
X109220000Y-140440000D02*
X113220000Y-140440000D01*
X99720000Y-119250000D02*
X99720000Y-134750000D01*
X119220000Y-119250000D02*
X99720000Y-119250000D01*
X119220000Y-134750000D02*
X99720000Y-134750000D01*
X119220000Y-119250000D02*
X119220000Y-134650000D01*
X103220000Y-125250000D02*
X103220000Y-123000000D01*
X103220000Y-131000000D02*
X103220000Y-128750000D01*
X107820000Y-127000000D02*
X106320000Y-127000000D01*
X106320000Y-127000000D02*
X101720000Y-129500000D01*
X107820000Y-123400000D02*
X114620000Y-123400000D01*
X107820000Y-127000000D02*
X107820000Y-123400000D01*
X115220000Y-127000000D02*
X114620000Y-127000000D01*
X114620000Y-127000000D02*
X114620000Y-123400000D01*
X113220000Y-121000000D02*
X111220000Y-121000000D01*
X113220000Y-133000000D02*
X111220000Y-133000000D01*
X111220000Y-133000000D02*
X111220000Y-128800000D01*
X111220000Y-125200000D02*
X111220000Y-121000000D01*
X109220000Y-125200000D02*
X113220000Y-128800000D01*
X113220000Y-125200000D02*
X113220000Y-128800000D01*
X113220000Y-128800000D02*
X109220000Y-128800000D01*
X109220000Y-128800000D02*
X109220000Y-125200000D01*
X109220000Y-125200000D02*
X113220000Y-125200000D01*
X99720000Y-104010000D02*
X99720000Y-119510000D01*
X119220000Y-104010000D02*
X99720000Y-104010000D01*
X119220000Y-119510000D02*
X99720000Y-119510000D01*
X119220000Y-104010000D02*
X119220000Y-119410000D01*
X103220000Y-110010000D02*
X103220000Y-107760000D01*
X103220000Y-115760000D02*
X103220000Y-113510000D01*
X107820000Y-111760000D02*
X106320000Y-111760000D01*
X106320000Y-111760000D02*
X101720000Y-114260000D01*
X107820000Y-108160000D02*
X114620000Y-108160000D01*
X107820000Y-111760000D02*
X107820000Y-108160000D01*
X115220000Y-111760000D02*
X114620000Y-111760000D01*
X114620000Y-111760000D02*
X114620000Y-108160000D01*
X113220000Y-105760000D02*
X111220000Y-105760000D01*
X113220000Y-117760000D02*
X111220000Y-117760000D01*
X111220000Y-117760000D02*
X111220000Y-113560000D01*
X111220000Y-109960000D02*
X111220000Y-105760000D01*
X109220000Y-109960000D02*
X113220000Y-113560000D01*
X113220000Y-109960000D02*
X113220000Y-113560000D01*
X113220000Y-113560000D02*
X109220000Y-113560000D01*
X109220000Y-113560000D02*
X109220000Y-109960000D01*
X109220000Y-109960000D02*
X113220000Y-109960000D01*
X99720000Y-88770000D02*
X99720000Y-104270000D01*
X119220000Y-88770000D02*
X99720000Y-88770000D01*
X119220000Y-104270000D02*
X99720000Y-104270000D01*
X119220000Y-88770000D02*
X119220000Y-104170000D01*
X103220000Y-94770000D02*
X103220000Y-92520000D01*
X103220000Y-100520000D02*
X103220000Y-98270000D01*
X107820000Y-96520000D02*
X106320000Y-96520000D01*
X106320000Y-96520000D02*
X101720000Y-99020000D01*
X107820000Y-92920000D02*
X114620000Y-92920000D01*
X107820000Y-96520000D02*
X107820000Y-92920000D01*
X115220000Y-96520000D02*
X114620000Y-96520000D01*
X114620000Y-96520000D02*
X114620000Y-92920000D01*
X113220000Y-90520000D02*
X111220000Y-90520000D01*
X113220000Y-102520000D02*
X111220000Y-102520000D01*
X111220000Y-102520000D02*
X111220000Y-98320000D01*
X111220000Y-94720000D02*
X111220000Y-90520000D01*
X109220000Y-94720000D02*
X113220000Y-98320000D01*
X113220000Y-94720000D02*
X113220000Y-98320000D01*
X113220000Y-98320000D02*
X109220000Y-98320000D01*
X109220000Y-98320000D02*
X109220000Y-94720000D01*
X109220000Y-94720000D02*
X113220000Y-94720000D01*
D15*
X188185000Y-121920000D02*
G75*
G03X188185000Y-121920000I-2130000J0D01*
G01*
X188531500Y-124523500D02*
X189547500Y-124523500D01*
X188531500Y-129540000D02*
X189594347Y-129550000D01*
X188105000Y-127000000D02*
G75*
G03X188105000Y-127000000I-2050000J0D01*
G01*
X188085000Y-132080000D02*
G75*
G03X188085000Y-132080000I-2030000J0D01*
G01*
X188555000Y-134550000D02*
X188555000Y-119550000D01*
X183655000Y-134550000D02*
X183655000Y-119550000D01*
X189611000Y-134556500D02*
X189611000Y-119570500D01*
X189611000Y-119570500D02*
X181546500Y-119570500D01*
X181546500Y-119550000D02*
X181546500Y-134550000D01*
X181546500Y-134556500D02*
X189611000Y-134556500D01*
X188185000Y-91440000D02*
G75*
G03X188185000Y-91440000I-2130000J0D01*
G01*
X188531500Y-94043500D02*
X189547500Y-94043500D01*
X188531500Y-99060000D02*
X189594347Y-99070000D01*
X188105000Y-96520000D02*
G75*
G03X188105000Y-96520000I-2050000J0D01*
G01*
X188085000Y-101600000D02*
G75*
G03X188085000Y-101600000I-2030000J0D01*
G01*
X188555000Y-104070000D02*
X188555000Y-89070000D01*
X183655000Y-104070000D02*
X183655000Y-89070000D01*
X189611000Y-104076500D02*
X189611000Y-89090500D01*
X189611000Y-89090500D02*
X181546500Y-89090500D01*
X181546500Y-89070000D02*
X181546500Y-104070000D01*
X181546500Y-104076500D02*
X189611000Y-104076500D01*
X96110000Y-132080000D02*
G75*
G03X96110000Y-132080000I-2130000J0D01*
G01*
X91503500Y-129476500D02*
X90487500Y-129476500D01*
X91503500Y-124460000D02*
X90440653Y-124450000D01*
X96030000Y-127000000D02*
G75*
G03X96030000Y-127000000I-2050000J0D01*
G01*
X96010000Y-121920000D02*
G75*
G03X96010000Y-121920000I-2030000J0D01*
G01*
X91480000Y-119450000D02*
X91480000Y-134450000D01*
X96380000Y-119450000D02*
X96380000Y-134450000D01*
X90424000Y-119443500D02*
X90424000Y-134429500D01*
X90424000Y-134429500D02*
X98488500Y-134429500D01*
X98488500Y-134450000D02*
X98488500Y-119450000D01*
X98488500Y-119443500D02*
X90424000Y-119443500D01*
X188185000Y-137160000D02*
G75*
G03X188185000Y-137160000I-2130000J0D01*
G01*
X188531500Y-139763500D02*
X189547500Y-139763500D01*
X188531500Y-144780000D02*
X189594347Y-144790000D01*
X188105000Y-142240000D02*
G75*
G03X188105000Y-142240000I-2050000J0D01*
G01*
X188085000Y-147320000D02*
G75*
G03X188085000Y-147320000I-2030000J0D01*
G01*
X188555000Y-149790000D02*
X188555000Y-134790000D01*
X183655000Y-149790000D02*
X183655000Y-134790000D01*
X189611000Y-149796500D02*
X189611000Y-134810500D01*
X189611000Y-134810500D02*
X181546500Y-134810500D01*
X181546500Y-134790000D02*
X181546500Y-149790000D01*
X181546500Y-149796500D02*
X189611000Y-149796500D01*
X188185000Y-106680000D02*
G75*
G03X188185000Y-106680000I-2130000J0D01*
G01*
X188531500Y-109283500D02*
X189547500Y-109283500D01*
X188531500Y-114300000D02*
X189594347Y-114310000D01*
X188105000Y-111760000D02*
G75*
G03X188105000Y-111760000I-2050000J0D01*
G01*
X188085000Y-116840000D02*
G75*
G03X188085000Y-116840000I-2030000J0D01*
G01*
X188555000Y-119310000D02*
X188555000Y-104310000D01*
X183655000Y-119310000D02*
X183655000Y-104310000D01*
X189611000Y-119316500D02*
X189611000Y-104330500D01*
X189611000Y-104330500D02*
X181546500Y-104330500D01*
X181546500Y-104310000D02*
X181546500Y-119310000D01*
X181546500Y-119316500D02*
X189611000Y-119316500D01*
X96110000Y-147320000D02*
G75*
G03X96110000Y-147320000I-2130000J0D01*
G01*
X91503500Y-144716500D02*
X90487500Y-144716500D01*
X91503500Y-139700000D02*
X90440653Y-139690000D01*
X96030000Y-142240000D02*
G75*
G03X96030000Y-142240000I-2050000J0D01*
G01*
X96010000Y-137160000D02*
G75*
G03X96010000Y-137160000I-2030000J0D01*
G01*
X91480000Y-134690000D02*
X91480000Y-149690000D01*
X96380000Y-134690000D02*
X96380000Y-149690000D01*
X90424000Y-134683500D02*
X90424000Y-149669500D01*
X90424000Y-149669500D02*
X98488500Y-149669500D01*
X98488500Y-149690000D02*
X98488500Y-134690000D01*
X98488500Y-134683500D02*
X90424000Y-134683500D01*
X96110000Y-116840000D02*
G75*
G03X96110000Y-116840000I-2130000J0D01*
G01*
X91503500Y-114236500D02*
X90487500Y-114236500D01*
X91503500Y-109220000D02*
X90440653Y-109210000D01*
X96030000Y-111760000D02*
G75*
G03X96030000Y-111760000I-2050000J0D01*
G01*
X96010000Y-106680000D02*
G75*
G03X96010000Y-106680000I-2030000J0D01*
G01*
X91480000Y-104210000D02*
X91480000Y-119210000D01*
X96380000Y-104210000D02*
X96380000Y-119210000D01*
X90424000Y-104203500D02*
X90424000Y-119189500D01*
X90424000Y-119189500D02*
X98488500Y-119189500D01*
X98488500Y-119210000D02*
X98488500Y-104210000D01*
X98488500Y-104203500D02*
X90424000Y-104203500D01*
D11*
X143640000Y-93620000D02*
X143640000Y-92620000D01*
X141140000Y-93620000D02*
X141140000Y-92620000D01*
X141140000Y-96620000D02*
X141140000Y-97620000D01*
X143640000Y-96620000D02*
X143640000Y-97620000D01*
D16*
X141140000Y-97620000D02*
X143640000Y-97620000D01*
X143640000Y-92620000D02*
X141140000Y-92620000D01*
D17*
X129580000Y-88030000D02*
X124780000Y-88030000D01*
X131480000Y-84530000D02*
G75*
G03X131480000Y-84530000I-4300000J0D01*
G01*
X128980000Y-88230000D02*
X125380000Y-88230000D01*
X128580000Y-88430000D02*
X125780000Y-88430000D01*
X127980000Y-88630000D02*
X126280000Y-88630000D01*
D10*
X125880000Y-86730000D02*
X124680000Y-86730000D01*
D16*
X132730000Y-100410000D02*
X132730000Y-102910000D01*
X137730000Y-102910000D02*
X137730000Y-100410000D01*
D11*
X136730000Y-100410000D02*
X137730000Y-100410000D01*
X136730000Y-102910000D02*
X137730000Y-102910000D01*
X133730000Y-102910000D02*
X132730000Y-102910000D01*
X133730000Y-100410000D02*
X132730000Y-100410000D01*
D17*
X124650000Y-92860000D02*
X124650000Y-91260000D01*
X124850000Y-93360000D02*
X124850000Y-90760000D01*
X125050000Y-93760000D02*
X125050000Y-90360000D01*
X130050000Y-92060000D02*
G75*
G03X130050000Y-92060000I-2800000J0D01*
G01*
D10*
X126150000Y-91060000D02*
X126150000Y-90060000D01*
D18*
X153703934Y-95710000D02*
G75*
G03X153703934Y-95710000I-4473934J0D01*
G01*
D15*
X96110000Y-101600000D02*
G75*
G03X96110000Y-101600000I-2130000J0D01*
G01*
X91503500Y-98996500D02*
X90487500Y-98996500D01*
X91503500Y-93980000D02*
X90440653Y-93970000D01*
X96030000Y-96520000D02*
G75*
G03X96030000Y-96520000I-2050000J0D01*
G01*
X96010000Y-91440000D02*
G75*
G03X96010000Y-91440000I-2030000J0D01*
G01*
X91480000Y-88970000D02*
X91480000Y-103970000D01*
X96380000Y-88970000D02*
X96380000Y-103970000D01*
X90424000Y-88963500D02*
X90424000Y-103949500D01*
X90424000Y-103949500D02*
X98488500Y-103949500D01*
X98488500Y-103970000D02*
X98488500Y-88970000D01*
X98488500Y-88963500D02*
X90424000Y-88963500D01*
X136970000Y-157510000D02*
X136970000Y-158454500D01*
X141520000Y-154970000D02*
G75*
G03X141520000Y-154970000I-2000000J0D01*
G01*
X136420000Y-154970000D02*
G75*
G03X136420000Y-154970000I-2000000J0D01*
G01*
X131970000Y-157470000D02*
X141970000Y-157470000D01*
X131970000Y-152570000D02*
X141970000Y-152570000D01*
X131986500Y-158462500D02*
X141986500Y-158462500D01*
X141986500Y-158462500D02*
X141986500Y-150525000D01*
X141986500Y-150525000D02*
X131986500Y-150525000D01*
X131953500Y-150525000D02*
X131953500Y-158462500D01*
X154376500Y-90425000D02*
X154376500Y-82487500D01*
X144343500Y-90425000D02*
X154343500Y-90425000D01*
X144343500Y-82487500D02*
X144343500Y-90425000D01*
X154343500Y-82487500D02*
X144343500Y-82487500D01*
X154360000Y-88380000D02*
X144360000Y-88380000D01*
X154360000Y-83480000D02*
X144360000Y-83480000D01*
X153910000Y-85980000D02*
G75*
G03X153910000Y-85980000I-2000000J0D01*
G01*
X148810000Y-85980000D02*
G75*
G03X148810000Y-85980000I-2000000J0D01*
G01*
X149360000Y-83440000D02*
X149360000Y-82495500D01*
D16*
X131705100Y-96619400D02*
X131705100Y-93520600D01*
X131705100Y-93520600D02*
X133495800Y-93520600D01*
X131705100Y-96619400D02*
X133495800Y-96619400D01*
X138994900Y-93177700D02*
X138994900Y-92364900D01*
X138994900Y-92364900D02*
X137204200Y-92364900D01*
X138994900Y-93177700D02*
X137204200Y-93177700D01*
X138994900Y-95476400D02*
X137204200Y-95476400D01*
X138994900Y-94663600D02*
X137204200Y-94663600D01*
X138994900Y-95476400D02*
X138994900Y-94663600D01*
X138994900Y-97775100D02*
X138994900Y-96962300D01*
X138994900Y-96962300D02*
X137204200Y-96962300D01*
X138994900Y-97775100D02*
X137204200Y-97775100D01*
X137204200Y-91717200D02*
X137204200Y-98422800D01*
X137204200Y-98422800D02*
X133495800Y-98422800D01*
X133495800Y-98422800D02*
X133495800Y-91717200D01*
X133495800Y-91717200D02*
X137204200Y-91717200D01*
X158515000Y-143740000D02*
X157715000Y-143740000D01*
X158515000Y-140740000D02*
X158515000Y-143737200D01*
X157715000Y-140740000D02*
X158515000Y-140740000D01*
X157715000Y-143737200D02*
X157715000Y-140740000D01*
X157715000Y-128497200D02*
X157715000Y-125500000D01*
X157715000Y-125500000D02*
X158515000Y-125500000D01*
X158515000Y-125500000D02*
X158515000Y-128497200D01*
X158515000Y-128500000D02*
X157715000Y-128500000D01*
X157715000Y-113257200D02*
X157715000Y-110260000D01*
X157715000Y-110260000D02*
X158515000Y-110260000D01*
X158515000Y-110260000D02*
X158515000Y-113257200D01*
X158515000Y-113260000D02*
X157715000Y-113260000D01*
X158515000Y-98020000D02*
X157715000Y-98020000D01*
X158515000Y-95020000D02*
X158515000Y-98017200D01*
X157715000Y-95020000D02*
X158515000Y-95020000D01*
X157715000Y-98017200D02*
X157715000Y-95020000D01*
X121520000Y-140740000D02*
X122320000Y-140740000D01*
X121520000Y-143740000D02*
X121520000Y-140742800D01*
X122320000Y-143740000D02*
X121520000Y-143740000D01*
X122320000Y-140742800D02*
X122320000Y-143740000D01*
X122320000Y-125502800D02*
X122320000Y-128500000D01*
X122320000Y-128500000D02*
X121520000Y-128500000D01*
X121520000Y-128500000D02*
X121520000Y-125502800D01*
X121520000Y-125500000D02*
X122320000Y-125500000D01*
X122320000Y-110262800D02*
X122320000Y-113260000D01*
X122320000Y-113260000D02*
X121520000Y-113260000D01*
X121520000Y-113260000D02*
X121520000Y-110262800D01*
X121520000Y-110260000D02*
X122320000Y-110260000D01*
X121520000Y-95020000D02*
X122320000Y-95020000D01*
X121520000Y-98020000D02*
X121520000Y-95022800D01*
X122320000Y-98020000D02*
X121520000Y-98020000D01*
X122320000Y-95022800D02*
X122320000Y-98020000D01*
D11*
X158250000Y-138650000D02*
X158250000Y-139650000D01*
X155750000Y-138650000D02*
X155750000Y-139650000D01*
X155750000Y-139650000D02*
X158250000Y-139650000D01*
X158250000Y-134650000D02*
X155750000Y-134650000D01*
X155750000Y-134650000D02*
X155750000Y-135650000D01*
X158250000Y-135650000D02*
X158250000Y-134650000D01*
X158250000Y-120420000D02*
X158250000Y-119420000D01*
X155750000Y-119420000D02*
X155750000Y-120420000D01*
X158250000Y-119420000D02*
X155750000Y-119420000D01*
X155750000Y-124420000D02*
X158250000Y-124420000D01*
X155750000Y-123420000D02*
X155750000Y-124420000D01*
X158250000Y-123420000D02*
X158250000Y-124420000D01*
X158250000Y-108180000D02*
X158250000Y-109180000D01*
X155750000Y-108180000D02*
X155750000Y-109180000D01*
X155750000Y-109180000D02*
X158250000Y-109180000D01*
X158250000Y-104180000D02*
X155750000Y-104180000D01*
X155750000Y-104180000D02*
X155750000Y-105180000D01*
X158250000Y-105180000D02*
X158250000Y-104180000D01*
X158250000Y-92940000D02*
X158250000Y-93940000D01*
X155750000Y-92940000D02*
X155750000Y-93940000D01*
X155750000Y-93940000D02*
X158250000Y-93940000D01*
X158250000Y-88940000D02*
X155750000Y-88940000D01*
X155750000Y-88940000D02*
X155750000Y-89940000D01*
X158250000Y-89940000D02*
X158250000Y-88940000D01*
X123170000Y-138660000D02*
X123170000Y-139660000D01*
X120670000Y-138660000D02*
X120670000Y-139660000D01*
X120670000Y-139660000D02*
X123170000Y-139660000D01*
X123170000Y-134660000D02*
X120670000Y-134660000D01*
X120670000Y-134660000D02*
X120670000Y-135660000D01*
X123170000Y-135660000D02*
X123170000Y-134660000D01*
X123170000Y-120420000D02*
X123170000Y-119420000D01*
X120670000Y-119420000D02*
X120670000Y-120420000D01*
X123170000Y-119420000D02*
X120670000Y-119420000D01*
X120670000Y-124420000D02*
X123170000Y-124420000D01*
X120670000Y-123420000D02*
X120670000Y-124420000D01*
X123170000Y-123420000D02*
X123170000Y-124420000D01*
X123170000Y-105180000D02*
X123170000Y-104180000D01*
X120670000Y-104180000D02*
X120670000Y-105180000D01*
X123170000Y-104180000D02*
X120670000Y-104180000D01*
X120670000Y-109180000D02*
X123170000Y-109180000D01*
X120670000Y-108180000D02*
X120670000Y-109180000D01*
X123170000Y-108180000D02*
X123170000Y-109180000D01*
X123170000Y-89940000D02*
X123170000Y-88940000D01*
X120670000Y-88940000D02*
X120670000Y-89940000D01*
X123170000Y-88940000D02*
X120670000Y-88940000D01*
X120670000Y-93940000D02*
X123170000Y-93940000D01*
X120670000Y-92940000D02*
X120670000Y-93940000D01*
X123170000Y-92940000D02*
X123170000Y-93940000D01*
D19*
X98000000Y-85000000D02*
G75*
G03X98000000Y-85000000I-3000000J0D01*
G01*
X92000000Y-85000000D02*
X98000000Y-85000000D01*
X95000000Y-82000000D02*
X95000000Y-88000000D01*
X185000000Y-82000000D02*
X185000000Y-88000000D01*
X182000000Y-85000000D02*
X188000000Y-85000000D01*
X188000000Y-85000000D02*
G75*
G03X188000000Y-85000000I-3000000J0D01*
G01*
X98000000Y-155000000D02*
G75*
G03X98000000Y-155000000I-3000000J0D01*
G01*
X92000000Y-155000000D02*
X98000000Y-155000000D01*
X95000000Y-152000000D02*
X95000000Y-158000000D01*
X185000000Y-152000000D02*
X185000000Y-158000000D01*
X182000000Y-155000000D02*
X188000000Y-155000000D01*
X188000000Y-155000000D02*
G75*
G03X188000000Y-155000000I-3000000J0D01*
G01*
D17*
X150490000Y-141280000D02*
X150490000Y-138740000D01*
X142870000Y-138740000D02*
X153030000Y-138740000D01*
X153030000Y-141280000D02*
X142870000Y-141280000D01*
X153030000Y-138740000D02*
X153030000Y-141280000D01*
X142870000Y-141280000D02*
X142870000Y-138740000D01*
D20*
G36*
X124486160Y-156245360D02*
G01*
X124511560Y-156230120D01*
X124569980Y-156194560D01*
X124653800Y-156138680D01*
X124752860Y-156072640D01*
X124851920Y-156006600D01*
X124933200Y-155953260D01*
X124989080Y-155915160D01*
X125014480Y-155902460D01*
X125027180Y-155907540D01*
X125072900Y-155930400D01*
X125141480Y-155965960D01*
X125182120Y-155986280D01*
X125243080Y-156011680D01*
X125276100Y-156019300D01*
X125281180Y-156009140D01*
X125304040Y-155960880D01*
X125339600Y-155879600D01*
X125385320Y-155770380D01*
X125441200Y-155643380D01*
X125497080Y-155508760D01*
X125555500Y-155369060D01*
X125611380Y-155234440D01*
X125659640Y-155115060D01*
X125700280Y-155018540D01*
X125725680Y-154949960D01*
X125735840Y-154922020D01*
X125733300Y-154914400D01*
X125700280Y-154883920D01*
X125646940Y-154843280D01*
X125527560Y-154746760D01*
X125410720Y-154601980D01*
X125339600Y-154436880D01*
X125316740Y-154251460D01*
X125337060Y-154081280D01*
X125403100Y-153918720D01*
X125517400Y-153771400D01*
X125657100Y-153662180D01*
X125819660Y-153593600D01*
X126000000Y-153570740D01*
X126172720Y-153591060D01*
X126340360Y-153657100D01*
X126487680Y-153768860D01*
X126551180Y-153839980D01*
X126637540Y-153989840D01*
X126685800Y-154147320D01*
X126690880Y-154187960D01*
X126683260Y-154363220D01*
X126632460Y-154533400D01*
X126538480Y-154683260D01*
X126408940Y-154807720D01*
X126393700Y-154817880D01*
X126335280Y-154863600D01*
X126294640Y-154894080D01*
X126264160Y-154919480D01*
X126487680Y-155457960D01*
X126523240Y-155541780D01*
X126584200Y-155689100D01*
X126637540Y-155816100D01*
X126680720Y-155917700D01*
X126711200Y-155983740D01*
X126723900Y-156011680D01*
X126723900Y-156014220D01*
X126744220Y-156016760D01*
X126784860Y-156001520D01*
X126861060Y-155965960D01*
X126909320Y-155940560D01*
X126967740Y-155912620D01*
X126993140Y-155902460D01*
X127016000Y-155915160D01*
X127069340Y-155950720D01*
X127150620Y-156004060D01*
X127247140Y-156067560D01*
X127338580Y-156131060D01*
X127422400Y-156186940D01*
X127483360Y-156225040D01*
X127513840Y-156242820D01*
X127518920Y-156242820D01*
X127544320Y-156227580D01*
X127592580Y-156186940D01*
X127666240Y-156118360D01*
X127770380Y-156014220D01*
X127785620Y-155998980D01*
X127871980Y-155912620D01*
X127940560Y-155838960D01*
X127986280Y-155788160D01*
X128004060Y-155765300D01*
X127988820Y-155734820D01*
X127950720Y-155673860D01*
X127894840Y-155587500D01*
X127826260Y-155488440D01*
X127648460Y-155229360D01*
X127744980Y-154985520D01*
X127775460Y-154909320D01*
X127813560Y-154820420D01*
X127841500Y-154754380D01*
X127856740Y-154726440D01*
X127882140Y-154716280D01*
X127950720Y-154701040D01*
X128047240Y-154680720D01*
X128161540Y-154660400D01*
X128273300Y-154640080D01*
X128372360Y-154619760D01*
X128443480Y-154607060D01*
X128476500Y-154599440D01*
X128484120Y-154594360D01*
X128491740Y-154579120D01*
X128494280Y-154546100D01*
X128496820Y-154485140D01*
X128499360Y-154391160D01*
X128499360Y-154251460D01*
X128499360Y-154236220D01*
X128496820Y-154106680D01*
X128494280Y-154000000D01*
X128491740Y-153933960D01*
X128486660Y-153906020D01*
X128456180Y-153898400D01*
X128385060Y-153883160D01*
X128286000Y-153865380D01*
X128166620Y-153842520D01*
X128159000Y-153839980D01*
X128042160Y-153817120D01*
X127943100Y-153796800D01*
X127871980Y-153781560D01*
X127844040Y-153771400D01*
X127836420Y-153763780D01*
X127813560Y-153718060D01*
X127780540Y-153644400D01*
X127739900Y-153555500D01*
X127701800Y-153461520D01*
X127668780Y-153377700D01*
X127645920Y-153316740D01*
X127638300Y-153288800D01*
X127640840Y-153286260D01*
X127658620Y-153258320D01*
X127699260Y-153197360D01*
X127755140Y-153113540D01*
X127823720Y-153011940D01*
X127828800Y-153004320D01*
X127897380Y-152905260D01*
X127953260Y-152818900D01*
X127988820Y-152760480D01*
X128004060Y-152732540D01*
X128004060Y-152730000D01*
X127981200Y-152699520D01*
X127930400Y-152643640D01*
X127856740Y-152567440D01*
X127770380Y-152478540D01*
X127742440Y-152453140D01*
X127643380Y-152356620D01*
X127577340Y-152295660D01*
X127534160Y-152262640D01*
X127513840Y-152255020D01*
X127483360Y-152272800D01*
X127419860Y-152313440D01*
X127336040Y-152371860D01*
X127234440Y-152440440D01*
X127226820Y-152445520D01*
X127127760Y-152514100D01*
X127043940Y-152569980D01*
X126985520Y-152610620D01*
X126957580Y-152625860D01*
X126955040Y-152625860D01*
X126914400Y-152613160D01*
X126843280Y-152587760D01*
X126754380Y-152554740D01*
X126662940Y-152516640D01*
X126579120Y-152481080D01*
X126515620Y-152453140D01*
X126485140Y-152435360D01*
X126474980Y-152399800D01*
X126457200Y-152323600D01*
X126436880Y-152222000D01*
X126411480Y-152100080D01*
X126408940Y-152079760D01*
X126386080Y-151960380D01*
X126368300Y-151861320D01*
X126353060Y-151792740D01*
X126345440Y-151764800D01*
X126330200Y-151762260D01*
X126271780Y-151757180D01*
X126182880Y-151754640D01*
X126073660Y-151754640D01*
X125961900Y-151754640D01*
X125852680Y-151757180D01*
X125758700Y-151759720D01*
X125690120Y-151764800D01*
X125662180Y-151769880D01*
X125662180Y-151772420D01*
X125652020Y-151810520D01*
X125634240Y-151884180D01*
X125613920Y-151988320D01*
X125591060Y-152110240D01*
X125585980Y-152133100D01*
X125563120Y-152249940D01*
X125542800Y-152349000D01*
X125530100Y-152415040D01*
X125522480Y-152442980D01*
X125509780Y-152448060D01*
X125461520Y-152468380D01*
X125382780Y-152501400D01*
X125283720Y-152542040D01*
X125055120Y-152633480D01*
X124773180Y-152442980D01*
X124747780Y-152425200D01*
X124646180Y-152356620D01*
X124564900Y-152300740D01*
X124506480Y-152262640D01*
X124483620Y-152249940D01*
X124481080Y-152249940D01*
X124453140Y-152275340D01*
X124397260Y-152328680D01*
X124321060Y-152402340D01*
X124232160Y-152488700D01*
X124168660Y-152554740D01*
X124089920Y-152633480D01*
X124041660Y-152686820D01*
X124013720Y-152719840D01*
X124006100Y-152740160D01*
X124008640Y-152755400D01*
X124026420Y-152783340D01*
X124067060Y-152844300D01*
X124125480Y-152930660D01*
X124194060Y-153029720D01*
X124249940Y-153113540D01*
X124310900Y-153207520D01*
X124349000Y-153273560D01*
X124364240Y-153306580D01*
X124359160Y-153319280D01*
X124341380Y-153375160D01*
X124305820Y-153458980D01*
X124265180Y-153558040D01*
X124166120Y-153779020D01*
X124021340Y-153806960D01*
X123932440Y-153824740D01*
X123810520Y-153847600D01*
X123691140Y-153870460D01*
X123508260Y-153906020D01*
X123500640Y-154581660D01*
X123528580Y-154594360D01*
X123556520Y-154601980D01*
X123625100Y-154617220D01*
X123721620Y-154637540D01*
X123838460Y-154657860D01*
X123934980Y-154675640D01*
X124034040Y-154695960D01*
X124105160Y-154708660D01*
X124135640Y-154716280D01*
X124145800Y-154726440D01*
X124168660Y-154774700D01*
X124204220Y-154850900D01*
X124244860Y-154942340D01*
X124282960Y-155036320D01*
X124318520Y-155125220D01*
X124341380Y-155191260D01*
X124351540Y-155224280D01*
X124338840Y-155252220D01*
X124300740Y-155310640D01*
X124247400Y-155391920D01*
X124178820Y-155490980D01*
X124112780Y-155587500D01*
X124054360Y-155671320D01*
X124016260Y-155732280D01*
X123998480Y-155760220D01*
X124008640Y-155778000D01*
X124046740Y-155826260D01*
X124120400Y-155902460D01*
X124232160Y-156011680D01*
X124249940Y-156029460D01*
X124336300Y-156113280D01*
X124409960Y-156181860D01*
X124463300Y-156227580D01*
X124486160Y-156245360D01*
X124486160Y-156245360D01*
G37*
X124486160Y-156245360D02*
X124511560Y-156230120D01*
X124569980Y-156194560D01*
X124653800Y-156138680D01*
X124752860Y-156072640D01*
X124851920Y-156006600D01*
X124933200Y-155953260D01*
X124989080Y-155915160D01*
X125014480Y-155902460D01*
X125027180Y-155907540D01*
X125072900Y-155930400D01*
X125141480Y-155965960D01*
X125182120Y-155986280D01*
X125243080Y-156011680D01*
X125276100Y-156019300D01*
X125281180Y-156009140D01*
X125304040Y-155960880D01*
X125339600Y-155879600D01*
X125385320Y-155770380D01*
X125441200Y-155643380D01*
X125497080Y-155508760D01*
X125555500Y-155369060D01*
X125611380Y-155234440D01*
X125659640Y-155115060D01*
X125700280Y-155018540D01*
X125725680Y-154949960D01*
X125735840Y-154922020D01*
X125733300Y-154914400D01*
X125700280Y-154883920D01*
X125646940Y-154843280D01*
X125527560Y-154746760D01*
X125410720Y-154601980D01*
X125339600Y-154436880D01*
X125316740Y-154251460D01*
X125337060Y-154081280D01*
X125403100Y-153918720D01*
X125517400Y-153771400D01*
X125657100Y-153662180D01*
X125819660Y-153593600D01*
X126000000Y-153570740D01*
X126172720Y-153591060D01*
X126340360Y-153657100D01*
X126487680Y-153768860D01*
X126551180Y-153839980D01*
X126637540Y-153989840D01*
X126685800Y-154147320D01*
X126690880Y-154187960D01*
X126683260Y-154363220D01*
X126632460Y-154533400D01*
X126538480Y-154683260D01*
X126408940Y-154807720D01*
X126393700Y-154817880D01*
X126335280Y-154863600D01*
X126294640Y-154894080D01*
X126264160Y-154919480D01*
X126487680Y-155457960D01*
X126523240Y-155541780D01*
X126584200Y-155689100D01*
X126637540Y-155816100D01*
X126680720Y-155917700D01*
X126711200Y-155983740D01*
X126723900Y-156011680D01*
X126723900Y-156014220D01*
X126744220Y-156016760D01*
X126784860Y-156001520D01*
X126861060Y-155965960D01*
X126909320Y-155940560D01*
X126967740Y-155912620D01*
X126993140Y-155902460D01*
X127016000Y-155915160D01*
X127069340Y-155950720D01*
X127150620Y-156004060D01*
X127247140Y-156067560D01*
X127338580Y-156131060D01*
X127422400Y-156186940D01*
X127483360Y-156225040D01*
X127513840Y-156242820D01*
X127518920Y-156242820D01*
X127544320Y-156227580D01*
X127592580Y-156186940D01*
X127666240Y-156118360D01*
X127770380Y-156014220D01*
X127785620Y-155998980D01*
X127871980Y-155912620D01*
X127940560Y-155838960D01*
X127986280Y-155788160D01*
X128004060Y-155765300D01*
X127988820Y-155734820D01*
X127950720Y-155673860D01*
X127894840Y-155587500D01*
X127826260Y-155488440D01*
X127648460Y-155229360D01*
X127744980Y-154985520D01*
X127775460Y-154909320D01*
X127813560Y-154820420D01*
X127841500Y-154754380D01*
X127856740Y-154726440D01*
X127882140Y-154716280D01*
X127950720Y-154701040D01*
X128047240Y-154680720D01*
X128161540Y-154660400D01*
X128273300Y-154640080D01*
X128372360Y-154619760D01*
X128443480Y-154607060D01*
X128476500Y-154599440D01*
X128484120Y-154594360D01*
X128491740Y-154579120D01*
X128494280Y-154546100D01*
X128496820Y-154485140D01*
X128499360Y-154391160D01*
X128499360Y-154251460D01*
X128499360Y-154236220D01*
X128496820Y-154106680D01*
X128494280Y-154000000D01*
X128491740Y-153933960D01*
X128486660Y-153906020D01*
X128456180Y-153898400D01*
X128385060Y-153883160D01*
X128286000Y-153865380D01*
X128166620Y-153842520D01*
X128159000Y-153839980D01*
X128042160Y-153817120D01*
X127943100Y-153796800D01*
X127871980Y-153781560D01*
X127844040Y-153771400D01*
X127836420Y-153763780D01*
X127813560Y-153718060D01*
X127780540Y-153644400D01*
X127739900Y-153555500D01*
X127701800Y-153461520D01*
X127668780Y-153377700D01*
X127645920Y-153316740D01*
X127638300Y-153288800D01*
X127640840Y-153286260D01*
X127658620Y-153258320D01*
X127699260Y-153197360D01*
X127755140Y-153113540D01*
X127823720Y-153011940D01*
X127828800Y-153004320D01*
X127897380Y-152905260D01*
X127953260Y-152818900D01*
X127988820Y-152760480D01*
X128004060Y-152732540D01*
X128004060Y-152730000D01*
X127981200Y-152699520D01*
X127930400Y-152643640D01*
X127856740Y-152567440D01*
X127770380Y-152478540D01*
X127742440Y-152453140D01*
X127643380Y-152356620D01*
X127577340Y-152295660D01*
X127534160Y-152262640D01*
X127513840Y-152255020D01*
X127483360Y-152272800D01*
X127419860Y-152313440D01*
X127336040Y-152371860D01*
X127234440Y-152440440D01*
X127226820Y-152445520D01*
X127127760Y-152514100D01*
X127043940Y-152569980D01*
X126985520Y-152610620D01*
X126957580Y-152625860D01*
X126955040Y-152625860D01*
X126914400Y-152613160D01*
X126843280Y-152587760D01*
X126754380Y-152554740D01*
X126662940Y-152516640D01*
X126579120Y-152481080D01*
X126515620Y-152453140D01*
X126485140Y-152435360D01*
X126474980Y-152399800D01*
X126457200Y-152323600D01*
X126436880Y-152222000D01*
X126411480Y-152100080D01*
X126408940Y-152079760D01*
X126386080Y-151960380D01*
X126368300Y-151861320D01*
X126353060Y-151792740D01*
X126345440Y-151764800D01*
X126330200Y-151762260D01*
X126271780Y-151757180D01*
X126182880Y-151754640D01*
X126073660Y-151754640D01*
X125961900Y-151754640D01*
X125852680Y-151757180D01*
X125758700Y-151759720D01*
X125690120Y-151764800D01*
X125662180Y-151769880D01*
X125662180Y-151772420D01*
X125652020Y-151810520D01*
X125634240Y-151884180D01*
X125613920Y-151988320D01*
X125591060Y-152110240D01*
X125585980Y-152133100D01*
X125563120Y-152249940D01*
X125542800Y-152349000D01*
X125530100Y-152415040D01*
X125522480Y-152442980D01*
X125509780Y-152448060D01*
X125461520Y-152468380D01*
X125382780Y-152501400D01*
X125283720Y-152542040D01*
X125055120Y-152633480D01*
X124773180Y-152442980D01*
X124747780Y-152425200D01*
X124646180Y-152356620D01*
X124564900Y-152300740D01*
X124506480Y-152262640D01*
X124483620Y-152249940D01*
X124481080Y-152249940D01*
X124453140Y-152275340D01*
X124397260Y-152328680D01*
X124321060Y-152402340D01*
X124232160Y-152488700D01*
X124168660Y-152554740D01*
X124089920Y-152633480D01*
X124041660Y-152686820D01*
X124013720Y-152719840D01*
X124006100Y-152740160D01*
X124008640Y-152755400D01*
X124026420Y-152783340D01*
X124067060Y-152844300D01*
X124125480Y-152930660D01*
X124194060Y-153029720D01*
X124249940Y-153113540D01*
X124310900Y-153207520D01*
X124349000Y-153273560D01*
X124364240Y-153306580D01*
X124359160Y-153319280D01*
X124341380Y-153375160D01*
X124305820Y-153458980D01*
X124265180Y-153558040D01*
X124166120Y-153779020D01*
X124021340Y-153806960D01*
X123932440Y-153824740D01*
X123810520Y-153847600D01*
X123691140Y-153870460D01*
X123508260Y-153906020D01*
X123500640Y-154581660D01*
X123528580Y-154594360D01*
X123556520Y-154601980D01*
X123625100Y-154617220D01*
X123721620Y-154637540D01*
X123838460Y-154657860D01*
X123934980Y-154675640D01*
X124034040Y-154695960D01*
X124105160Y-154708660D01*
X124135640Y-154716280D01*
X124145800Y-154726440D01*
X124168660Y-154774700D01*
X124204220Y-154850900D01*
X124244860Y-154942340D01*
X124282960Y-155036320D01*
X124318520Y-155125220D01*
X124341380Y-155191260D01*
X124351540Y-155224280D01*
X124338840Y-155252220D01*
X124300740Y-155310640D01*
X124247400Y-155391920D01*
X124178820Y-155490980D01*
X124112780Y-155587500D01*
X124054360Y-155671320D01*
X124016260Y-155732280D01*
X123998480Y-155760220D01*
X124008640Y-155778000D01*
X124046740Y-155826260D01*
X124120400Y-155902460D01*
X124232160Y-156011680D01*
X124249940Y-156029460D01*
X124336300Y-156113280D01*
X124409960Y-156181860D01*
X124463300Y-156227580D01*
X124486160Y-156245360D01*
D21*
X123360000Y-157040000D02*
X123410000Y-157080000D01*
X123340000Y-157010000D02*
X123360000Y-157040000D01*
X123320000Y-156950000D02*
X123340000Y-157010000D01*
X123320000Y-156750000D02*
X123320000Y-156950000D01*
X123540000Y-156660000D02*
X123490000Y-156620000D01*
X123560000Y-156690000D02*
X123540000Y-156660000D01*
X123580000Y-156750000D02*
X123560000Y-156690000D01*
X123580000Y-156950000D02*
X123580000Y-156750000D01*
X123560000Y-157020000D02*
X123580000Y-156950000D01*
X123540000Y-157050000D02*
X123560000Y-157020000D01*
X123490000Y-157080000D02*
X123540000Y-157050000D01*
X123410000Y-157080000D02*
X123490000Y-157080000D01*
X123350000Y-156680000D02*
X123320000Y-156750000D01*
X123370000Y-156650000D02*
X123350000Y-156680000D01*
X123410000Y-156620000D02*
X123370000Y-156650000D01*
X123490000Y-156620000D02*
X123410000Y-156620000D01*
X123800000Y-157320000D02*
X123800000Y-156620000D01*
X123850000Y-157080000D02*
X123800000Y-157050000D01*
X123950000Y-157080000D02*
X123850000Y-157080000D01*
X123990000Y-157050000D02*
X123950000Y-157080000D01*
X124010000Y-157020000D02*
X123990000Y-157050000D01*
X124030000Y-156960000D02*
X124010000Y-157020000D01*
X124030000Y-156740000D02*
X124030000Y-156960000D01*
X124010000Y-156680000D02*
X124030000Y-156740000D01*
X123980000Y-156650000D02*
X124010000Y-156680000D01*
X123940000Y-156620000D02*
X123980000Y-156650000D01*
X123840000Y-156620000D02*
X123940000Y-156620000D01*
X123800000Y-156650000D02*
X123840000Y-156620000D01*
X124390000Y-157080000D02*
X124440000Y-157050000D01*
X124290000Y-157080000D02*
X124390000Y-157080000D01*
X124250000Y-157050000D02*
X124290000Y-157080000D01*
X124230000Y-156980000D02*
X124250000Y-157050000D01*
X124230000Y-156710000D02*
X124230000Y-156980000D01*
X124260000Y-156650000D02*
X124230000Y-156710000D01*
X124300000Y-156620000D02*
X124260000Y-156650000D01*
X124400000Y-156620000D02*
X124300000Y-156620000D01*
X124440000Y-156660000D02*
X124400000Y-156620000D01*
X124460000Y-156730000D02*
X124440000Y-156660000D01*
X124460000Y-156850000D02*
X124460000Y-156730000D01*
X124680000Y-156620000D02*
X124680000Y-157080000D01*
X124890000Y-156710000D02*
X124890000Y-157080000D01*
X124870000Y-156650000D02*
X124890000Y-156710000D01*
X124830000Y-156620000D02*
X124870000Y-156650000D01*
X124740000Y-156620000D02*
X124830000Y-156620000D01*
X124700000Y-156650000D02*
X124740000Y-156620000D01*
X124680000Y-156680000D02*
X124700000Y-156650000D01*
X124460000Y-156850000D02*
X124230000Y-156850000D01*
X125510000Y-156380000D02*
X125510000Y-157080000D01*
X125720000Y-156710000D02*
X125720000Y-157080000D01*
X125700000Y-156650000D02*
X125720000Y-156710000D01*
X125660000Y-156620000D02*
X125700000Y-156650000D01*
X125580000Y-156620000D02*
X125660000Y-156620000D01*
X125530000Y-156650000D02*
X125580000Y-156620000D01*
X125510000Y-156690000D02*
X125530000Y-156650000D01*
X126180000Y-156710000D02*
X126180000Y-157080000D01*
X126150000Y-156650000D02*
X126180000Y-156710000D01*
X126110000Y-156620000D02*
X126150000Y-156650000D01*
X126010000Y-156620000D02*
X126110000Y-156620000D01*
X125960000Y-156650000D02*
X126010000Y-156620000D01*
X126020000Y-156810000D02*
X125970000Y-156840000D01*
X126140000Y-156810000D02*
X126020000Y-156810000D01*
X126180000Y-156780000D02*
X126140000Y-156810000D01*
X126130000Y-157080000D02*
X126180000Y-157040000D01*
X126010000Y-157080000D02*
X126130000Y-157080000D01*
X125960000Y-157040000D02*
X126010000Y-157080000D01*
X125940000Y-156980000D02*
X125960000Y-157040000D01*
X125940000Y-156910000D02*
X125940000Y-156980000D01*
X125970000Y-156840000D02*
X125940000Y-156910000D01*
X126420000Y-156620000D02*
X126420000Y-157080000D01*
X126510000Y-156620000D02*
X126560000Y-156620000D01*
X126460000Y-156650000D02*
X126510000Y-156620000D01*
X126440000Y-156670000D02*
X126460000Y-156650000D01*
X126420000Y-156740000D02*
X126440000Y-156670000D01*
X126940000Y-156380000D02*
X126940000Y-157080000D01*
X126880000Y-156610000D02*
X126940000Y-156650000D01*
X126810000Y-156610000D02*
X126880000Y-156610000D01*
X126750000Y-156650000D02*
X126810000Y-156610000D01*
X126730000Y-156680000D02*
X126750000Y-156650000D01*
X126700000Y-156750000D02*
X126730000Y-156680000D01*
X126700000Y-156950000D02*
X126700000Y-156750000D01*
X126730000Y-157020000D02*
X126700000Y-156950000D01*
X126750000Y-157050000D02*
X126730000Y-157020000D01*
X126790000Y-157080000D02*
X126750000Y-157050000D01*
X126900000Y-157080000D02*
X126790000Y-157080000D01*
X126940000Y-157050000D02*
X126900000Y-157080000D01*
X127420000Y-157080000D02*
X127520000Y-156620000D01*
X127320000Y-156740000D02*
X127420000Y-157080000D01*
X127230000Y-157080000D02*
X127320000Y-156740000D01*
X127130000Y-156620000D02*
X127230000Y-157080000D01*
X127710000Y-156840000D02*
X127680000Y-156910000D01*
X127680000Y-156910000D02*
X127680000Y-156980000D01*
X127680000Y-156980000D02*
X127700000Y-157040000D01*
X127700000Y-157040000D02*
X127750000Y-157080000D01*
X127750000Y-157080000D02*
X127870000Y-157080000D01*
X127870000Y-157080000D02*
X127920000Y-157040000D01*
X127920000Y-156780000D02*
X127880000Y-156810000D01*
X127880000Y-156810000D02*
X127760000Y-156810000D01*
X127760000Y-156810000D02*
X127710000Y-156840000D01*
X127700000Y-156650000D02*
X127750000Y-156620000D01*
X127750000Y-156620000D02*
X127850000Y-156620000D01*
X127850000Y-156620000D02*
X127890000Y-156650000D01*
X127890000Y-156650000D02*
X127920000Y-156710000D01*
X127920000Y-156710000D02*
X127920000Y-157080000D01*
X128670000Y-156850000D02*
X128440000Y-156850000D01*
X128670000Y-156850000D02*
X128670000Y-156730000D01*
X128670000Y-156730000D02*
X128650000Y-156660000D01*
X128650000Y-156660000D02*
X128610000Y-156620000D01*
X128610000Y-156620000D02*
X128510000Y-156620000D01*
X128510000Y-156620000D02*
X128470000Y-156650000D01*
X128470000Y-156650000D02*
X128440000Y-156710000D01*
X128440000Y-156710000D02*
X128440000Y-156980000D01*
X128440000Y-156980000D02*
X128460000Y-157050000D01*
X128460000Y-157050000D02*
X128500000Y-157080000D01*
X128500000Y-157080000D02*
X128600000Y-157080000D01*
X128600000Y-157080000D02*
X128650000Y-157050000D01*
X128160000Y-156740000D02*
X128180000Y-156670000D01*
X128180000Y-156670000D02*
X128200000Y-156650000D01*
X128200000Y-156650000D02*
X128250000Y-156620000D01*
X128250000Y-156620000D02*
X128300000Y-156620000D01*
X128160000Y-156620000D02*
X128160000Y-157080000D01*
D13*
X129790000Y-127840000D02*
G75*
G03X129790000Y-127840000I-850000J0D01*
G01*
X129790000Y-125300000D02*
G75*
G03X129790000Y-125300000I-850000J0D01*
G01*
X129790000Y-122760000D02*
G75*
G03X129790000Y-122760000I-850000J0D01*
G01*
X129790000Y-120220000D02*
G75*
G03X129790000Y-120220000I-850000J0D01*
G01*
X129790000Y-117680000D02*
G75*
G03X129790000Y-117680000I-850000J0D01*
G01*
X129790000Y-115140000D02*
G75*
G03X129790000Y-115140000I-850000J0D01*
G01*
X129790000Y-112600000D02*
G75*
G03X129790000Y-112600000I-850000J0D01*
G01*
X129790000Y-110060000D02*
G75*
G03X129790000Y-110060000I-850000J0D01*
G01*
X152650000Y-110060000D02*
G75*
G03X152650000Y-110060000I-850000J0D01*
G01*
X152650000Y-112600000D02*
G75*
G03X152650000Y-112600000I-850000J0D01*
G01*
X152650000Y-115140000D02*
G75*
G03X152650000Y-115140000I-850000J0D01*
G01*
X152650000Y-117680000D02*
G75*
G03X152650000Y-117680000I-850000J0D01*
G01*
X152650000Y-120220000D02*
G75*
G03X152650000Y-120220000I-850000J0D01*
G01*
X152650000Y-122760000D02*
G75*
G03X152650000Y-122760000I-850000J0D01*
G01*
X152650000Y-125300000D02*
G75*
G03X152650000Y-125300000I-850000J0D01*
G01*
X152650000Y-127840000D02*
G75*
G03X152650000Y-127840000I-850000J0D01*
G01*
X187255000Y-121920000D02*
G75*
G03X187255000Y-121920000I-1200000J0D01*
G01*
X187255000Y-132080000D02*
G75*
G03X187255000Y-132080000I-1200000J0D01*
G01*
X187255000Y-127000000D02*
G75*
G03X187255000Y-127000000I-1200000J0D01*
G01*
X187255000Y-91440000D02*
G75*
G03X187255000Y-91440000I-1200000J0D01*
G01*
X187255000Y-101600000D02*
G75*
G03X187255000Y-101600000I-1200000J0D01*
G01*
X187255000Y-96520000D02*
G75*
G03X187255000Y-96520000I-1200000J0D01*
G01*
X95180000Y-132080000D02*
G75*
G03X95180000Y-132080000I-1200000J0D01*
G01*
X95180000Y-121920000D02*
G75*
G03X95180000Y-121920000I-1200000J0D01*
G01*
X95180000Y-127000000D02*
G75*
G03X95180000Y-127000000I-1200000J0D01*
G01*
X187255000Y-137160000D02*
G75*
G03X187255000Y-137160000I-1200000J0D01*
G01*
X187255000Y-147320000D02*
G75*
G03X187255000Y-147320000I-1200000J0D01*
G01*
X187255000Y-142240000D02*
G75*
G03X187255000Y-142240000I-1200000J0D01*
G01*
X187255000Y-106680000D02*
G75*
G03X187255000Y-106680000I-1200000J0D01*
G01*
X187255000Y-116840000D02*
G75*
G03X187255000Y-116840000I-1200000J0D01*
G01*
X187255000Y-111760000D02*
G75*
G03X187255000Y-111760000I-1200000J0D01*
G01*
X95180000Y-147320000D02*
G75*
G03X95180000Y-147320000I-1200000J0D01*
G01*
X95180000Y-137160000D02*
G75*
G03X95180000Y-137160000I-1200000J0D01*
G01*
X95180000Y-142240000D02*
G75*
G03X95180000Y-142240000I-1200000J0D01*
G01*
X95180000Y-116840000D02*
G75*
G03X95180000Y-116840000I-1200000J0D01*
G01*
X95180000Y-106680000D02*
G75*
G03X95180000Y-106680000I-1200000J0D01*
G01*
X95180000Y-111760000D02*
G75*
G03X95180000Y-111760000I-1200000J0D01*
G01*
X126330000Y-81930000D02*
X126330000Y-83630000D01*
X128030000Y-83630000D01*
X128030000Y-81930000D01*
X126330000Y-81930000D01*
X128030000Y-86280000D02*
G75*
G03X128030000Y-86280000I-850000J0D01*
G01*
X127538000Y-91348000D02*
X127538000Y-92772000D01*
X128962000Y-92772000D01*
X128962000Y-91348000D01*
X127538000Y-91348000D01*
X126962000Y-92060000D02*
G75*
G03X126962000Y-92060000I-712000J0D01*
G01*
X95180000Y-101600000D02*
G75*
G03X95180000Y-101600000I-1200000J0D01*
G01*
X95180000Y-91440000D02*
G75*
G03X95180000Y-91440000I-1200000J0D01*
G01*
X95180000Y-96520000D02*
G75*
G03X95180000Y-96520000I-1200000J0D01*
G01*
X135630000Y-154970000D02*
G75*
G03X135630000Y-154970000I-1200000J0D01*
G01*
X140710000Y-154970000D02*
G75*
G03X140710000Y-154970000I-1200000J0D01*
G01*
X148020000Y-85980000D02*
G75*
G03X148020000Y-85980000I-1200000J0D01*
G01*
X153100000Y-85980000D02*
G75*
G03X153100000Y-85980000I-1200000J0D01*
G01*
X96575000Y-85000000D02*
G75*
G03X96575000Y-85000000I-1575000J0D01*
G01*
X186575000Y-85000000D02*
G75*
G03X186575000Y-85000000I-1575000J0D01*
G01*
X96575000Y-155000000D02*
G75*
G03X96575000Y-155000000I-1575000J0D01*
G01*
X186575000Y-155000000D02*
G75*
G03X186575000Y-155000000I-1575000J0D01*
G01*
X150935000Y-138960000D02*
X150935000Y-141060000D01*
X152585000Y-141060000D01*
X152585000Y-138960000D01*
X150935000Y-138960000D01*
X150045000Y-140235000D02*
X150045000Y-139785000D01*
X148395000Y-140235000D02*
X148395000Y-139785000D01*
X150045000Y-139785000D02*
G75*
G03X148395000Y-139785000I-825000J0D01*
G01*
X148395000Y-140235000D02*
G75*
G03X150045000Y-140235000I825000J0D01*
G01*
X147505000Y-140235000D02*
X147505000Y-139785000D01*
X145855000Y-140235000D02*
X145855000Y-139785000D01*
X147505000Y-139785000D02*
G75*
G03X145855000Y-139785000I-825000J0D01*
G01*
X145855000Y-140235000D02*
G75*
G03X147505000Y-140235000I825000J0D01*
G01*
X144965000Y-140235000D02*
X144965000Y-139785000D01*
X143315000Y-140235000D02*
X143315000Y-139785000D01*
X144965000Y-139785000D02*
G75*
G03X143315000Y-139785000I-825000J0D01*
G01*
X143315000Y-140235000D02*
G75*
G03X144965000Y-140235000I825000J0D01*
G01*
D11*
X130238095Y-132702380D02*
X130238095Y-133511904D01*
X130285714Y-133607142D01*
X130333333Y-133654761D01*
X130428571Y-133702380D01*
X130619047Y-133702380D01*
X130714285Y-133654761D01*
X130761904Y-133607142D01*
X130809523Y-133511904D01*
X130809523Y-132702380D01*
X131809523Y-133702380D02*
X131238095Y-133702380D01*
X131523809Y-133702380D02*
X131523809Y-132702380D01*
X131428571Y-132845238D01*
X131333333Y-132940476D01*
X131238095Y-132988095D01*
X133512857Y-131277142D02*
X134227142Y-134277142D01*
X134798571Y-132134285D01*
X135370000Y-134277142D01*
X136084285Y-131277142D01*
X138370000Y-134134285D02*
X138084285Y-134277142D01*
X137512857Y-134277142D01*
X137227142Y-134134285D01*
X137084285Y-133848571D01*
X137084285Y-132705714D01*
X137227142Y-132420000D01*
X137512857Y-132277142D01*
X138084285Y-132277142D01*
X138370000Y-132420000D01*
X138512857Y-132705714D01*
X138512857Y-132991428D01*
X137084285Y-133277142D01*
X139798571Y-134277142D02*
X139798571Y-131277142D01*
X140798571Y-133420000D01*
X141798571Y-131277142D01*
X141798571Y-134277142D01*
X143655714Y-134277142D02*
X143370000Y-134134285D01*
X143227142Y-133991428D01*
X143084285Y-133705714D01*
X143084285Y-132848571D01*
X143227142Y-132562857D01*
X143370000Y-132420000D01*
X143655714Y-132277142D01*
X144084285Y-132277142D01*
X144370000Y-132420000D01*
X144512857Y-132562857D01*
X144655714Y-132848571D01*
X144655714Y-133705714D01*
X144512857Y-133991428D01*
X144370000Y-134134285D01*
X144084285Y-134277142D01*
X143655714Y-134277142D01*
X145798571Y-134134285D02*
X146084285Y-134277142D01*
X146655714Y-134277142D01*
X146941428Y-134134285D01*
X147084285Y-133848571D01*
X147084285Y-133705714D01*
X146941428Y-133420000D01*
X146655714Y-133277142D01*
X146227142Y-133277142D01*
X145941428Y-133134285D01*
X145798571Y-132848571D01*
X145798571Y-132705714D01*
X145941428Y-132420000D01*
X146227142Y-132277142D01*
X146655714Y-132277142D01*
X146941428Y-132420000D01*
D10*
X91208571Y-120460000D02*
X92280000Y-120460000D01*
X92494285Y-120531428D01*
X92637142Y-120674285D01*
X92708571Y-120888571D01*
X92708571Y-121031428D01*
X91208571Y-119888571D02*
X91208571Y-118888571D01*
X92708571Y-119531428D01*
D19*
X142371000Y-99494285D02*
X142298428Y-99566857D01*
X142080714Y-99639428D01*
X141935571Y-99639428D01*
X141717857Y-99566857D01*
X141572714Y-99421714D01*
X141500142Y-99276571D01*
X141427571Y-98986285D01*
X141427571Y-98768571D01*
X141500142Y-98478285D01*
X141572714Y-98333142D01*
X141717857Y-98188000D01*
X141935571Y-98115428D01*
X142080714Y-98115428D01*
X142298428Y-98188000D01*
X142371000Y-98260571D01*
X143822428Y-99639428D02*
X142951571Y-99639428D01*
X143387000Y-99639428D02*
X143387000Y-98115428D01*
X143241857Y-98333142D01*
X143096714Y-98478285D01*
X142951571Y-98550857D01*
D17*
X133496000Y-85044285D02*
X133423428Y-85116857D01*
X133205714Y-85189428D01*
X133060571Y-85189428D01*
X132842857Y-85116857D01*
X132697714Y-84971714D01*
X132625142Y-84826571D01*
X132552571Y-84536285D01*
X132552571Y-84318571D01*
X132625142Y-84028285D01*
X132697714Y-83883142D01*
X132842857Y-83738000D01*
X133060571Y-83665428D01*
X133205714Y-83665428D01*
X133423428Y-83738000D01*
X133496000Y-83810571D01*
X134076571Y-83810571D02*
X134149142Y-83738000D01*
X134294285Y-83665428D01*
X134657142Y-83665428D01*
X134802285Y-83738000D01*
X134874857Y-83810571D01*
X134947428Y-83955714D01*
X134947428Y-84100857D01*
X134874857Y-84318571D01*
X134004000Y-85189428D01*
X134947428Y-85189428D01*
D19*
X130521000Y-100169285D02*
X130448428Y-100241857D01*
X130230714Y-100314428D01*
X130085571Y-100314428D01*
X129867857Y-100241857D01*
X129722714Y-100096714D01*
X129650142Y-99951571D01*
X129577571Y-99661285D01*
X129577571Y-99443571D01*
X129650142Y-99153285D01*
X129722714Y-99008142D01*
X129867857Y-98863000D01*
X130085571Y-98790428D01*
X130230714Y-98790428D01*
X130448428Y-98863000D01*
X130521000Y-98935571D01*
X131029000Y-98790428D02*
X131972428Y-98790428D01*
X131464428Y-99371000D01*
X131682142Y-99371000D01*
X131827285Y-99443571D01*
X131899857Y-99516142D01*
X131972428Y-99661285D01*
X131972428Y-100024142D01*
X131899857Y-100169285D01*
X131827285Y-100241857D01*
X131682142Y-100314428D01*
X131246714Y-100314428D01*
X131101571Y-100241857D01*
X131029000Y-100169285D01*
D17*
X131696000Y-91119285D02*
X131623428Y-91191857D01*
X131405714Y-91264428D01*
X131260571Y-91264428D01*
X131042857Y-91191857D01*
X130897714Y-91046714D01*
X130825142Y-90901571D01*
X130752571Y-90611285D01*
X130752571Y-90393571D01*
X130825142Y-90103285D01*
X130897714Y-89958142D01*
X131042857Y-89813000D01*
X131260571Y-89740428D01*
X131405714Y-89740428D01*
X131623428Y-89813000D01*
X131696000Y-89885571D01*
X133002285Y-90248428D02*
X133002285Y-91264428D01*
X132639428Y-89667857D02*
X132276571Y-90756428D01*
X133220000Y-90756428D01*
D22*
X153578857Y-100500571D02*
X153578857Y-99000571D01*
X153936000Y-99000571D01*
X154150285Y-99072000D01*
X154293142Y-99214857D01*
X154364571Y-99357714D01*
X154436000Y-99643428D01*
X154436000Y-99857714D01*
X154364571Y-100143428D01*
X154293142Y-100286285D01*
X154150285Y-100429142D01*
X153936000Y-100500571D01*
X153578857Y-100500571D01*
X155150285Y-100500571D02*
X155436000Y-100500571D01*
X155578857Y-100429142D01*
X155650285Y-100357714D01*
X155793142Y-100143428D01*
X155864571Y-99857714D01*
X155864571Y-99286285D01*
X155793142Y-99143428D01*
X155721714Y-99072000D01*
X155578857Y-99000571D01*
X155293142Y-99000571D01*
X155150285Y-99072000D01*
X155078857Y-99143428D01*
X155007428Y-99286285D01*
X155007428Y-99643428D01*
X155078857Y-99786285D01*
X155150285Y-99857714D01*
X155293142Y-99929142D01*
X155578857Y-99929142D01*
X155721714Y-99857714D01*
X155793142Y-99786285D01*
X155864571Y-99643428D01*
D10*
X130755714Y-145921428D02*
X130827142Y-145850000D01*
X130970000Y-145778571D01*
X131327142Y-145778571D01*
X131470000Y-145850000D01*
X131541428Y-145921428D01*
X131612857Y-146064285D01*
X131612857Y-146207142D01*
X131541428Y-146421428D01*
X130684285Y-147278571D01*
X131612857Y-147278571D01*
X132184285Y-145921428D02*
X132255714Y-145850000D01*
X132398571Y-145778571D01*
X132755714Y-145778571D01*
X132898571Y-145850000D01*
X132970000Y-145921428D01*
X133041428Y-146064285D01*
X133041428Y-146207142D01*
X132970000Y-146421428D01*
X132112857Y-147278571D01*
X133041428Y-147278571D01*
X133970000Y-145778571D02*
X134112857Y-145778571D01*
X134255714Y-145850000D01*
X134327142Y-145921428D01*
X134398571Y-146064285D01*
X134470000Y-146350000D01*
X134470000Y-146707142D01*
X134398571Y-146992857D01*
X134327142Y-147135714D01*
X134255714Y-147207142D01*
X134112857Y-147278571D01*
X133970000Y-147278571D01*
X133827142Y-147207142D01*
X133755714Y-147135714D01*
X133684285Y-146992857D01*
X133612857Y-146707142D01*
X133612857Y-146350000D01*
X133684285Y-146064285D01*
X133755714Y-145921428D01*
X133827142Y-145850000D01*
X133970000Y-145778571D01*
X134898571Y-145778571D02*
X135398571Y-147278571D01*
X135898571Y-145778571D01*
X137327142Y-145778571D02*
X138184285Y-145778571D01*
X137755714Y-147278571D02*
X137755714Y-145778571D01*
X139541428Y-147278571D02*
X139041428Y-146564285D01*
X138684285Y-147278571D02*
X138684285Y-145778571D01*
X139255714Y-145778571D01*
X139398571Y-145850000D01*
X139470000Y-145921428D01*
X139541428Y-146064285D01*
X139541428Y-146278571D01*
X139470000Y-146421428D01*
X139398571Y-146492857D01*
X139255714Y-146564285D01*
X138684285Y-146564285D01*
X140112857Y-146850000D02*
X140827142Y-146850000D01*
X139970000Y-147278571D02*
X140470000Y-145778571D01*
X140970000Y-147278571D01*
X141970000Y-146492857D02*
X141470000Y-146492857D01*
X141470000Y-147278571D02*
X141470000Y-145778571D01*
X142184285Y-145778571D01*
X143041428Y-145778571D02*
X143327142Y-145778571D01*
X143470000Y-145850000D01*
X143612857Y-145992857D01*
X143684285Y-146278571D01*
X143684285Y-146778571D01*
X143612857Y-147064285D01*
X143470000Y-147207142D01*
X143327142Y-147278571D01*
X143041428Y-147278571D01*
X142898571Y-147207142D01*
X142755714Y-147064285D01*
X142684285Y-146778571D01*
X142684285Y-146278571D01*
X142755714Y-145992857D01*
X142898571Y-145850000D01*
X143041428Y-145778571D01*
X146678571Y-81650000D02*
X147392857Y-81650000D01*
X146535714Y-82078571D02*
X147035714Y-80578571D01*
X147535714Y-82078571D01*
X148892857Y-81935714D02*
X148821428Y-82007142D01*
X148607142Y-82078571D01*
X148464285Y-82078571D01*
X148250000Y-82007142D01*
X148107142Y-81864285D01*
X148035714Y-81721428D01*
X147964285Y-81435714D01*
X147964285Y-81221428D01*
X148035714Y-80935714D01*
X148107142Y-80792857D01*
X148250000Y-80650000D01*
X148464285Y-80578571D01*
X148607142Y-80578571D01*
X148821428Y-80650000D01*
X148892857Y-80721428D01*
X150678571Y-82078571D02*
X150678571Y-80578571D01*
X151392857Y-82078571D02*
X151392857Y-80578571D01*
X152250000Y-82078571D01*
X152250000Y-80578571D01*
D23*
X134487516Y-98951964D02*
X134487516Y-99762103D01*
X134535171Y-99857414D01*
X134582826Y-99905069D01*
X134678137Y-99952724D01*
X134868758Y-99952724D01*
X134964068Y-99905069D01*
X135011723Y-99857414D01*
X135059379Y-99762103D01*
X135059379Y-98951964D01*
X135488276Y-99047275D02*
X135535931Y-98999620D01*
X135631241Y-98951964D01*
X135869518Y-98951964D01*
X135964828Y-98999620D01*
X136012483Y-99047275D01*
X136060139Y-99142585D01*
X136060139Y-99237896D01*
X136012483Y-99380861D01*
X135440620Y-99952724D01*
X136060139Y-99952724D01*
D10*
X156457142Y-145391428D02*
X156314285Y-145320000D01*
X156171428Y-145177142D01*
X155957142Y-144962857D01*
X155814285Y-144891428D01*
X155671428Y-144891428D01*
X155742857Y-145248571D02*
X155600000Y-145177142D01*
X155457142Y-145034285D01*
X155385714Y-144748571D01*
X155385714Y-144248571D01*
X155457142Y-143962857D01*
X155600000Y-143820000D01*
X155742857Y-143748571D01*
X156028571Y-143748571D01*
X156171428Y-143820000D01*
X156314285Y-143962857D01*
X156385714Y-144248571D01*
X156385714Y-144748571D01*
X156314285Y-145034285D01*
X156171428Y-145177142D01*
X156028571Y-145248571D01*
X155742857Y-145248571D01*
X157814285Y-145248571D02*
X156957142Y-145248571D01*
X157385714Y-145248571D02*
X157385714Y-143748571D01*
X157242857Y-143962857D01*
X157100000Y-144105714D01*
X156957142Y-144177142D01*
X154627142Y-127831428D02*
X154484285Y-127760000D01*
X154341428Y-127617142D01*
X154127142Y-127402857D01*
X153984285Y-127331428D01*
X153841428Y-127331428D01*
X153912857Y-127688571D02*
X153770000Y-127617142D01*
X153627142Y-127474285D01*
X153555714Y-127188571D01*
X153555714Y-126688571D01*
X153627142Y-126402857D01*
X153770000Y-126260000D01*
X153912857Y-126188571D01*
X154198571Y-126188571D01*
X154341428Y-126260000D01*
X154484285Y-126402857D01*
X154555714Y-126688571D01*
X154555714Y-127188571D01*
X154484285Y-127474285D01*
X154341428Y-127617142D01*
X154198571Y-127688571D01*
X153912857Y-127688571D01*
X155127142Y-126331428D02*
X155198571Y-126260000D01*
X155341428Y-126188571D01*
X155698571Y-126188571D01*
X155841428Y-126260000D01*
X155912857Y-126331428D01*
X155984285Y-126474285D01*
X155984285Y-126617142D01*
X155912857Y-126831428D01*
X155055714Y-127688571D01*
X155984285Y-127688571D01*
X154627142Y-112611428D02*
X154484285Y-112540000D01*
X154341428Y-112397142D01*
X154127142Y-112182857D01*
X153984285Y-112111428D01*
X153841428Y-112111428D01*
X153912857Y-112468571D02*
X153770000Y-112397142D01*
X153627142Y-112254285D01*
X153555714Y-111968571D01*
X153555714Y-111468571D01*
X153627142Y-111182857D01*
X153770000Y-111040000D01*
X153912857Y-110968571D01*
X154198571Y-110968571D01*
X154341428Y-111040000D01*
X154484285Y-111182857D01*
X154555714Y-111468571D01*
X154555714Y-111968571D01*
X154484285Y-112254285D01*
X154341428Y-112397142D01*
X154198571Y-112468571D01*
X153912857Y-112468571D01*
X155055714Y-110968571D02*
X155984285Y-110968571D01*
X155484285Y-111540000D01*
X155698571Y-111540000D01*
X155841428Y-111611428D01*
X155912857Y-111682857D01*
X155984285Y-111825714D01*
X155984285Y-112182857D01*
X155912857Y-112325714D01*
X155841428Y-112397142D01*
X155698571Y-112468571D01*
X155270000Y-112468571D01*
X155127142Y-112397142D01*
X155055714Y-112325714D01*
X155037142Y-95961428D02*
X154894285Y-95890000D01*
X154751428Y-95747142D01*
X154537142Y-95532857D01*
X154394285Y-95461428D01*
X154251428Y-95461428D01*
X154322857Y-95818571D02*
X154180000Y-95747142D01*
X154037142Y-95604285D01*
X153965714Y-95318571D01*
X153965714Y-94818571D01*
X154037142Y-94532857D01*
X154180000Y-94390000D01*
X154322857Y-94318571D01*
X154608571Y-94318571D01*
X154751428Y-94390000D01*
X154894285Y-94532857D01*
X154965714Y-94818571D01*
X154965714Y-95318571D01*
X154894285Y-95604285D01*
X154751428Y-95747142D01*
X154608571Y-95818571D01*
X154322857Y-95818571D01*
X156251428Y-94818571D02*
X156251428Y-95818571D01*
X155894285Y-94247142D02*
X155537142Y-95318571D01*
X156465714Y-95318571D01*
X125417142Y-143041428D02*
X125274285Y-142970000D01*
X125131428Y-142827142D01*
X124917142Y-142612857D01*
X124774285Y-142541428D01*
X124631428Y-142541428D01*
X124702857Y-142898571D02*
X124560000Y-142827142D01*
X124417142Y-142684285D01*
X124345714Y-142398571D01*
X124345714Y-141898571D01*
X124417142Y-141612857D01*
X124560000Y-141470000D01*
X124702857Y-141398571D01*
X124988571Y-141398571D01*
X125131428Y-141470000D01*
X125274285Y-141612857D01*
X125345714Y-141898571D01*
X125345714Y-142398571D01*
X125274285Y-142684285D01*
X125131428Y-142827142D01*
X124988571Y-142898571D01*
X124702857Y-142898571D01*
X126702857Y-141398571D02*
X125988571Y-141398571D01*
X125917142Y-142112857D01*
X125988571Y-142041428D01*
X126131428Y-141970000D01*
X126488571Y-141970000D01*
X126631428Y-142041428D01*
X126702857Y-142112857D01*
X126774285Y-142255714D01*
X126774285Y-142612857D01*
X126702857Y-142755714D01*
X126631428Y-142827142D01*
X126488571Y-142898571D01*
X126131428Y-142898571D01*
X125988571Y-142827142D01*
X125917142Y-142755714D01*
X125297142Y-127911428D02*
X125154285Y-127840000D01*
X125011428Y-127697142D01*
X124797142Y-127482857D01*
X124654285Y-127411428D01*
X124511428Y-127411428D01*
X124582857Y-127768571D02*
X124440000Y-127697142D01*
X124297142Y-127554285D01*
X124225714Y-127268571D01*
X124225714Y-126768571D01*
X124297142Y-126482857D01*
X124440000Y-126340000D01*
X124582857Y-126268571D01*
X124868571Y-126268571D01*
X125011428Y-126340000D01*
X125154285Y-126482857D01*
X125225714Y-126768571D01*
X125225714Y-127268571D01*
X125154285Y-127554285D01*
X125011428Y-127697142D01*
X124868571Y-127768571D01*
X124582857Y-127768571D01*
X126511428Y-126268571D02*
X126225714Y-126268571D01*
X126082857Y-126340000D01*
X126011428Y-126411428D01*
X125868571Y-126625714D01*
X125797142Y-126911428D01*
X125797142Y-127482857D01*
X125868571Y-127625714D01*
X125940000Y-127697142D01*
X126082857Y-127768571D01*
X126368571Y-127768571D01*
X126511428Y-127697142D01*
X126582857Y-127625714D01*
X126654285Y-127482857D01*
X126654285Y-127125714D01*
X126582857Y-126982857D01*
X126511428Y-126911428D01*
X126368571Y-126840000D01*
X126082857Y-126840000D01*
X125940000Y-126911428D01*
X125868571Y-126982857D01*
X125797142Y-127125714D01*
X125317142Y-112591428D02*
X125174285Y-112520000D01*
X125031428Y-112377142D01*
X124817142Y-112162857D01*
X124674285Y-112091428D01*
X124531428Y-112091428D01*
X124602857Y-112448571D02*
X124460000Y-112377142D01*
X124317142Y-112234285D01*
X124245714Y-111948571D01*
X124245714Y-111448571D01*
X124317142Y-111162857D01*
X124460000Y-111020000D01*
X124602857Y-110948571D01*
X124888571Y-110948571D01*
X125031428Y-111020000D01*
X125174285Y-111162857D01*
X125245714Y-111448571D01*
X125245714Y-111948571D01*
X125174285Y-112234285D01*
X125031428Y-112377142D01*
X124888571Y-112448571D01*
X124602857Y-112448571D01*
X125745714Y-110948571D02*
X126745714Y-110948571D01*
X126102857Y-112448571D01*
X125687142Y-97331428D02*
X125544285Y-97260000D01*
X125401428Y-97117142D01*
X125187142Y-96902857D01*
X125044285Y-96831428D01*
X124901428Y-96831428D01*
X124972857Y-97188571D02*
X124830000Y-97117142D01*
X124687142Y-96974285D01*
X124615714Y-96688571D01*
X124615714Y-96188571D01*
X124687142Y-95902857D01*
X124830000Y-95760000D01*
X124972857Y-95688571D01*
X125258571Y-95688571D01*
X125401428Y-95760000D01*
X125544285Y-95902857D01*
X125615714Y-96188571D01*
X125615714Y-96688571D01*
X125544285Y-96974285D01*
X125401428Y-97117142D01*
X125258571Y-97188571D01*
X124972857Y-97188571D01*
X126472857Y-96331428D02*
X126330000Y-96260000D01*
X126258571Y-96188571D01*
X126187142Y-96045714D01*
X126187142Y-95974285D01*
X126258571Y-95831428D01*
X126330000Y-95760000D01*
X126472857Y-95688571D01*
X126758571Y-95688571D01*
X126901428Y-95760000D01*
X126972857Y-95831428D01*
X127044285Y-95974285D01*
X127044285Y-96045714D01*
X126972857Y-96188571D01*
X126901428Y-96260000D01*
X126758571Y-96331428D01*
X126472857Y-96331428D01*
X126330000Y-96402857D01*
X126258571Y-96474285D01*
X126187142Y-96617142D01*
X126187142Y-96902857D01*
X126258571Y-97045714D01*
X126330000Y-97117142D01*
X126472857Y-97188571D01*
X126758571Y-97188571D01*
X126901428Y-97117142D01*
X126972857Y-97045714D01*
X127044285Y-96902857D01*
X127044285Y-96617142D01*
X126972857Y-96474285D01*
X126901428Y-96402857D01*
X126758571Y-96331428D01*
X156475000Y-132978571D02*
X155975000Y-132264285D01*
X155617857Y-132978571D02*
X155617857Y-131478571D01*
X156189285Y-131478571D01*
X156332142Y-131550000D01*
X156403571Y-131621428D01*
X156475000Y-131764285D01*
X156475000Y-131978571D01*
X156403571Y-132121428D01*
X156332142Y-132192857D01*
X156189285Y-132264285D01*
X155617857Y-132264285D01*
X157903571Y-132978571D02*
X157046428Y-132978571D01*
X157475000Y-132978571D02*
X157475000Y-131478571D01*
X157332142Y-131692857D01*
X157189285Y-131835714D01*
X157046428Y-131907142D01*
X156275000Y-118378571D02*
X155775000Y-117664285D01*
X155417857Y-118378571D02*
X155417857Y-116878571D01*
X155989285Y-116878571D01*
X156132142Y-116950000D01*
X156203571Y-117021428D01*
X156275000Y-117164285D01*
X156275000Y-117378571D01*
X156203571Y-117521428D01*
X156132142Y-117592857D01*
X155989285Y-117664285D01*
X155417857Y-117664285D01*
X156846428Y-117021428D02*
X156917857Y-116950000D01*
X157060714Y-116878571D01*
X157417857Y-116878571D01*
X157560714Y-116950000D01*
X157632142Y-117021428D01*
X157703571Y-117164285D01*
X157703571Y-117307142D01*
X157632142Y-117521428D01*
X156775000Y-118378571D01*
X157703571Y-118378571D01*
X156150000Y-103053571D02*
X155650000Y-102339285D01*
X155292857Y-103053571D02*
X155292857Y-101553571D01*
X155864285Y-101553571D01*
X156007142Y-101625000D01*
X156078571Y-101696428D01*
X156150000Y-101839285D01*
X156150000Y-102053571D01*
X156078571Y-102196428D01*
X156007142Y-102267857D01*
X155864285Y-102339285D01*
X155292857Y-102339285D01*
X156650000Y-101553571D02*
X157578571Y-101553571D01*
X157078571Y-102125000D01*
X157292857Y-102125000D01*
X157435714Y-102196428D01*
X157507142Y-102267857D01*
X157578571Y-102410714D01*
X157578571Y-102767857D01*
X157507142Y-102910714D01*
X157435714Y-102982142D01*
X157292857Y-103053571D01*
X156864285Y-103053571D01*
X156721428Y-102982142D01*
X156650000Y-102910714D01*
X156722000Y-88054571D02*
X156222000Y-87340285D01*
X155864857Y-88054571D02*
X155864857Y-86554571D01*
X156436285Y-86554571D01*
X156579142Y-86626000D01*
X156650571Y-86697428D01*
X156722000Y-86840285D01*
X156722000Y-87054571D01*
X156650571Y-87197428D01*
X156579142Y-87268857D01*
X156436285Y-87340285D01*
X155864857Y-87340285D01*
X158007714Y-87054571D02*
X158007714Y-88054571D01*
X157650571Y-86483142D02*
X157293428Y-87554571D01*
X158222000Y-87554571D01*
X125000000Y-137628571D02*
X124500000Y-136914285D01*
X124142857Y-137628571D02*
X124142857Y-136128571D01*
X124714285Y-136128571D01*
X124857142Y-136200000D01*
X124928571Y-136271428D01*
X125000000Y-136414285D01*
X125000000Y-136628571D01*
X124928571Y-136771428D01*
X124857142Y-136842857D01*
X124714285Y-136914285D01*
X124142857Y-136914285D01*
X126357142Y-136128571D02*
X125642857Y-136128571D01*
X125571428Y-136842857D01*
X125642857Y-136771428D01*
X125785714Y-136700000D01*
X126142857Y-136700000D01*
X126285714Y-136771428D01*
X126357142Y-136842857D01*
X126428571Y-136985714D01*
X126428571Y-137342857D01*
X126357142Y-137485714D01*
X126285714Y-137557142D01*
X126142857Y-137628571D01*
X125785714Y-137628571D01*
X125642857Y-137557142D01*
X125571428Y-137485714D01*
X124725000Y-122453571D02*
X124225000Y-121739285D01*
X123867857Y-122453571D02*
X123867857Y-120953571D01*
X124439285Y-120953571D01*
X124582142Y-121025000D01*
X124653571Y-121096428D01*
X124725000Y-121239285D01*
X124725000Y-121453571D01*
X124653571Y-121596428D01*
X124582142Y-121667857D01*
X124439285Y-121739285D01*
X123867857Y-121739285D01*
X126010714Y-120953571D02*
X125725000Y-120953571D01*
X125582142Y-121025000D01*
X125510714Y-121096428D01*
X125367857Y-121310714D01*
X125296428Y-121596428D01*
X125296428Y-122167857D01*
X125367857Y-122310714D01*
X125439285Y-122382142D01*
X125582142Y-122453571D01*
X125867857Y-122453571D01*
X126010714Y-122382142D01*
X126082142Y-122310714D01*
X126153571Y-122167857D01*
X126153571Y-121810714D01*
X126082142Y-121667857D01*
X126010714Y-121596428D01*
X125867857Y-121525000D01*
X125582142Y-121525000D01*
X125439285Y-121596428D01*
X125367857Y-121667857D01*
X125296428Y-121810714D01*
X124900000Y-107278571D02*
X124400000Y-106564285D01*
X124042857Y-107278571D02*
X124042857Y-105778571D01*
X124614285Y-105778571D01*
X124757142Y-105850000D01*
X124828571Y-105921428D01*
X124900000Y-106064285D01*
X124900000Y-106278571D01*
X124828571Y-106421428D01*
X124757142Y-106492857D01*
X124614285Y-106564285D01*
X124042857Y-106564285D01*
X125400000Y-105778571D02*
X126400000Y-105778571D01*
X125757142Y-107278571D01*
X120850000Y-87903571D02*
X120350000Y-87189285D01*
X119992857Y-87903571D02*
X119992857Y-86403571D01*
X120564285Y-86403571D01*
X120707142Y-86475000D01*
X120778571Y-86546428D01*
X120850000Y-86689285D01*
X120850000Y-86903571D01*
X120778571Y-87046428D01*
X120707142Y-87117857D01*
X120564285Y-87189285D01*
X119992857Y-87189285D01*
X121707142Y-87046428D02*
X121564285Y-86975000D01*
X121492857Y-86903571D01*
X121421428Y-86760714D01*
X121421428Y-86689285D01*
X121492857Y-86546428D01*
X121564285Y-86475000D01*
X121707142Y-86403571D01*
X121992857Y-86403571D01*
X122135714Y-86475000D01*
X122207142Y-86546428D01*
X122278571Y-86689285D01*
X122278571Y-86760714D01*
X122207142Y-86903571D01*
X122135714Y-86975000D01*
X121992857Y-87046428D01*
X121707142Y-87046428D01*
X121564285Y-87117857D01*
X121492857Y-87189285D01*
X121421428Y-87332142D01*
X121421428Y-87617857D01*
X121492857Y-87760714D01*
X121564285Y-87832142D01*
X121707142Y-87903571D01*
X121992857Y-87903571D01*
X122135714Y-87832142D01*
X122207142Y-87760714D01*
X122278571Y-87617857D01*
X122278571Y-87332142D01*
X122207142Y-87189285D01*
X122135714Y-87117857D01*
X121992857Y-87046428D01*
X145689142Y-136592571D02*
X145689142Y-137806857D01*
X145760571Y-137949714D01*
X145832000Y-138021142D01*
X145974857Y-138092571D01*
X146260571Y-138092571D01*
X146403428Y-138021142D01*
X146474857Y-137949714D01*
X146546285Y-137806857D01*
X146546285Y-136592571D01*
X147189142Y-137664000D02*
X147903428Y-137664000D01*
X147046285Y-138092571D02*
X147546285Y-136592571D01*
X148046285Y-138092571D01*
X149403428Y-138092571D02*
X148903428Y-137378285D01*
X148546285Y-138092571D02*
X148546285Y-136592571D01*
X149117714Y-136592571D01*
X149260571Y-136664000D01*
X149332000Y-136735428D01*
X149403428Y-136878285D01*
X149403428Y-137092571D01*
X149332000Y-137235428D01*
X149260571Y-137306857D01*
X149117714Y-137378285D01*
X148546285Y-137378285D01*
X149832000Y-136592571D02*
X150689142Y-136592571D01*
X150260571Y-138092571D02*
X150260571Y-136592571D01*
M02*
