%TF.GenerationSoftware,KiCad,Pcbnew,(5.1.2)-1*%
%TF.CreationDate,2020-01-14T11:15:58-03:00*%
%TF.ProjectId,wifi 2,77696669-2032-42e6-9b69-6361645f7063,rev?*%
%TF.SameCoordinates,Original*%
%TF.FileFunction,Soldermask,Top*%
%TF.FilePolarity,Negative*%
%FSLAX46Y46*%
G04 Gerber Fmt 4.6, Leading zero omitted, Abs format (unit mm)*
G04 Created by KiCad (PCBNEW (5.1.2)-1) date 2020-01-14 11:15:58*
%MOMM*%
%LPD*%
G04 APERTURE LIST*
%ADD10C,0.150000*%
%ADD11C,0.100000*%
G04 APERTURE END LIST*
D10*
G36*
X140550000Y-141825000D02*
G01*
X139075000Y-143900000D01*
X138950000Y-143925000D01*
X138350000Y-143575000D01*
X137600000Y-143950000D01*
X137425000Y-143900000D01*
X137375000Y-143850000D01*
X137400000Y-143550000D01*
X137800000Y-143375000D01*
X138100000Y-143250000D01*
X138400000Y-143175000D01*
X138925000Y-143475000D01*
X140175000Y-141750000D01*
X139500000Y-140325000D01*
X139325000Y-140250000D01*
X139200000Y-140400000D01*
X139150000Y-139675000D01*
X139500000Y-139525000D01*
X140550000Y-141825000D01*
G37*
X140550000Y-141825000D02*
X139075000Y-143900000D01*
X138950000Y-143925000D01*
X138350000Y-143575000D01*
X137600000Y-143950000D01*
X137425000Y-143900000D01*
X137375000Y-143850000D01*
X137400000Y-143550000D01*
X137800000Y-143375000D01*
X138100000Y-143250000D01*
X138400000Y-143175000D01*
X138925000Y-143475000D01*
X140175000Y-141750000D01*
X139500000Y-140325000D01*
X139325000Y-140250000D01*
X139200000Y-140400000D01*
X139150000Y-139675000D01*
X139500000Y-139525000D01*
X140550000Y-141825000D01*
G36*
X138725000Y-141175000D02*
G01*
X138900000Y-141025000D01*
X138975000Y-141050000D01*
X138875000Y-141300000D01*
X138550000Y-141350000D01*
X138075000Y-140750000D01*
X137750000Y-143500000D01*
X137450000Y-143525000D01*
X137675000Y-141700000D01*
X137675000Y-141750000D01*
X137825000Y-140300000D01*
X137900000Y-140175000D01*
X138000000Y-140150000D01*
X138725000Y-141175000D01*
G37*
X138725000Y-141175000D02*
X138900000Y-141025000D01*
X138975000Y-141050000D01*
X138875000Y-141300000D01*
X138550000Y-141350000D01*
X138075000Y-140750000D01*
X137750000Y-143500000D01*
X137450000Y-143525000D01*
X137675000Y-141700000D01*
X137675000Y-141750000D01*
X137825000Y-140300000D01*
X137900000Y-140175000D01*
X138000000Y-140150000D01*
X138725000Y-141175000D01*
G36*
X137450000Y-141825000D02*
G01*
X137900000Y-141825000D01*
X138075000Y-141850000D01*
X138525000Y-142100000D01*
X138500000Y-142400000D01*
X138450000Y-142500000D01*
X138225000Y-142425000D01*
X138175000Y-142250000D01*
X137575000Y-142100000D01*
X137325000Y-142100000D01*
X136675000Y-141400000D01*
X135475000Y-139975000D01*
X134800000Y-140300000D01*
X134775000Y-140300000D01*
X134700000Y-140275000D01*
X134625000Y-140200000D01*
X134625000Y-140125000D01*
X135625000Y-139625000D01*
X137450000Y-141825000D01*
G37*
X137450000Y-141825000D02*
X137900000Y-141825000D01*
X138075000Y-141850000D01*
X138525000Y-142100000D01*
X138500000Y-142400000D01*
X138450000Y-142500000D01*
X138225000Y-142425000D01*
X138175000Y-142250000D01*
X137575000Y-142100000D01*
X137325000Y-142100000D01*
X136675000Y-141400000D01*
X135475000Y-139975000D01*
X134800000Y-140300000D01*
X134775000Y-140300000D01*
X134700000Y-140275000D01*
X134625000Y-140200000D01*
X134625000Y-140125000D01*
X135625000Y-139625000D01*
X137450000Y-141825000D01*
G36*
X135275000Y-141400000D02*
G01*
X136500000Y-143550000D01*
X134875000Y-144100000D01*
X134850000Y-143950000D01*
X134975000Y-143825000D01*
X136100000Y-143450000D01*
X135275000Y-142100000D01*
X135075000Y-142350000D01*
X134700000Y-143300000D01*
X134550000Y-142925000D01*
X135025000Y-141400000D01*
X135175000Y-141375000D01*
X135275000Y-141400000D01*
G37*
X135275000Y-141400000D02*
X136500000Y-143550000D01*
X134875000Y-144100000D01*
X134850000Y-143950000D01*
X134975000Y-143825000D01*
X136100000Y-143450000D01*
X135275000Y-142100000D01*
X135075000Y-142350000D01*
X134700000Y-143300000D01*
X134550000Y-142925000D01*
X135025000Y-141400000D01*
X135175000Y-141375000D01*
X135275000Y-141400000D01*
G36*
X136500000Y-141450000D02*
G01*
X137123902Y-143770914D01*
X137300000Y-143925000D01*
X137200000Y-144025000D01*
X136775000Y-143900000D01*
X136175000Y-141525000D01*
X136300000Y-141425000D01*
X136500000Y-141450000D01*
G37*
X136500000Y-141450000D02*
X137123902Y-143770914D01*
X137300000Y-143925000D01*
X137200000Y-144025000D01*
X136775000Y-143900000D01*
X136175000Y-141525000D01*
X136300000Y-141425000D01*
X136500000Y-141450000D01*
G36*
X133250000Y-141000000D02*
G01*
X134400000Y-141225000D01*
X134500000Y-141300000D01*
X134525000Y-141425000D01*
X133950000Y-142075000D01*
X133800000Y-142000000D01*
X133725000Y-141750000D01*
X134050000Y-141450000D01*
X133100000Y-141300000D01*
X132525000Y-140525000D01*
X131750000Y-140875000D01*
X131700000Y-140825000D01*
X131650000Y-140675000D01*
X132625000Y-140225000D01*
X133250000Y-141000000D01*
G37*
X133250000Y-141000000D02*
X134400000Y-141225000D01*
X134500000Y-141300000D01*
X134525000Y-141425000D01*
X133950000Y-142075000D01*
X133800000Y-142000000D01*
X133725000Y-141750000D01*
X134050000Y-141450000D01*
X133100000Y-141300000D01*
X132525000Y-140525000D01*
X131750000Y-140875000D01*
X131700000Y-140825000D01*
X131650000Y-140675000D01*
X132625000Y-140225000D01*
X133250000Y-141000000D01*
G36*
X133525000Y-143550000D02*
G01*
X133475000Y-143650000D01*
X133325000Y-143700000D01*
X133225000Y-143600000D01*
X132625000Y-141300000D01*
X132675000Y-141250000D01*
X132875000Y-141200000D01*
X133525000Y-143550000D01*
G37*
X133525000Y-143550000D02*
X133475000Y-143650000D01*
X133325000Y-143700000D01*
X133225000Y-143600000D01*
X132625000Y-141300000D01*
X132675000Y-141250000D01*
X132875000Y-141200000D01*
X133525000Y-143550000D01*
G36*
X134225000Y-142450000D02*
G01*
X134875000Y-143850000D01*
X134675000Y-143900000D01*
X133725000Y-142300000D01*
X132975000Y-142950000D01*
X132825000Y-142900000D01*
X132825000Y-142700000D01*
X133475000Y-141850000D01*
X133675000Y-141800000D01*
X134225000Y-142450000D01*
G37*
X134225000Y-142450000D02*
X134875000Y-143850000D01*
X134675000Y-143900000D01*
X133725000Y-142300000D01*
X132975000Y-142950000D01*
X132825000Y-142900000D01*
X132825000Y-142700000D01*
X133475000Y-141850000D01*
X133675000Y-141800000D01*
X134225000Y-142450000D01*
G36*
X130575000Y-139250000D02*
G01*
X130575000Y-139450000D01*
X130375000Y-139650000D01*
X130475000Y-140300000D01*
X130525000Y-140300000D01*
X131525000Y-139800000D01*
X131625000Y-139800000D01*
X131725000Y-140000000D01*
X130375000Y-141550000D01*
X130425000Y-141600000D01*
X130625000Y-141650000D01*
X130575000Y-141850000D01*
X130325000Y-141950000D01*
X130125000Y-141900000D01*
X129375000Y-142750000D01*
X129375000Y-142850000D01*
X129625000Y-142800000D01*
X130575000Y-143200000D01*
X130625000Y-142700000D01*
X130825000Y-142650000D01*
X130925000Y-142700000D01*
X130925000Y-143450000D01*
X130825000Y-143700000D01*
X130625000Y-143600000D01*
X129575000Y-143050000D01*
X128425000Y-143650000D01*
X128275000Y-143650000D01*
X128275000Y-143500000D01*
X129625000Y-141900000D01*
X129325000Y-141900000D01*
X129275000Y-141850000D01*
X129225000Y-141700000D01*
X129325000Y-141650000D01*
X129875000Y-141650000D01*
X130725000Y-140650000D01*
X130375000Y-140750000D01*
X130275000Y-140700000D01*
X130225000Y-140650000D01*
X130075000Y-139850000D01*
X129025000Y-140500000D01*
X128925000Y-140350000D01*
X128975000Y-140500000D01*
X128875000Y-140500000D01*
X128825000Y-140400000D01*
X128825000Y-140250000D01*
X130325000Y-139200000D01*
X130425000Y-139150000D01*
X130575000Y-139250000D01*
G37*
X130575000Y-139250000D02*
X130575000Y-139450000D01*
X130375000Y-139650000D01*
X130475000Y-140300000D01*
X130525000Y-140300000D01*
X131525000Y-139800000D01*
X131625000Y-139800000D01*
X131725000Y-140000000D01*
X130375000Y-141550000D01*
X130425000Y-141600000D01*
X130625000Y-141650000D01*
X130575000Y-141850000D01*
X130325000Y-141950000D01*
X130125000Y-141900000D01*
X129375000Y-142750000D01*
X129375000Y-142850000D01*
X129625000Y-142800000D01*
X130575000Y-143200000D01*
X130625000Y-142700000D01*
X130825000Y-142650000D01*
X130925000Y-142700000D01*
X130925000Y-143450000D01*
X130825000Y-143700000D01*
X130625000Y-143600000D01*
X129575000Y-143050000D01*
X128425000Y-143650000D01*
X128275000Y-143650000D01*
X128275000Y-143500000D01*
X129625000Y-141900000D01*
X129325000Y-141900000D01*
X129275000Y-141850000D01*
X129225000Y-141700000D01*
X129325000Y-141650000D01*
X129875000Y-141650000D01*
X130725000Y-140650000D01*
X130375000Y-140750000D01*
X130275000Y-140700000D01*
X130225000Y-140650000D01*
X130075000Y-139850000D01*
X129025000Y-140500000D01*
X128925000Y-140350000D01*
X128975000Y-140500000D01*
X128875000Y-140500000D01*
X128825000Y-140400000D01*
X128825000Y-140250000D01*
X130325000Y-139200000D01*
X130425000Y-139150000D01*
X130575000Y-139250000D01*
G36*
X131925000Y-141100000D02*
G01*
X133075000Y-143500000D01*
X133025000Y-143700000D01*
X131625000Y-143700000D01*
X131725000Y-143400000D01*
X132575000Y-143350000D01*
X131775000Y-141700000D01*
X131125000Y-143650000D01*
X130875000Y-143750000D01*
X131025000Y-142700000D01*
X131025000Y-142650000D01*
X131575000Y-141000000D01*
X131775000Y-141000000D01*
X131925000Y-141100000D01*
G37*
X131925000Y-141100000D02*
X133075000Y-143500000D01*
X133025000Y-143700000D01*
X131625000Y-143700000D01*
X131725000Y-143400000D01*
X132575000Y-143350000D01*
X131775000Y-141700000D01*
X131125000Y-143650000D01*
X130875000Y-143750000D01*
X131025000Y-142700000D01*
X131025000Y-142650000D01*
X131575000Y-141000000D01*
X131775000Y-141000000D01*
X131925000Y-141100000D01*
X95000000Y-160000000D02*
X185000000Y-160000000D01*
X90000000Y-85000000D02*
X90000000Y-155000000D01*
X185000000Y-80000000D02*
X95000000Y-80000000D01*
X190000000Y-155000000D02*
X190000000Y-85000000D01*
X190000000Y-155000000D02*
G75*
G02X185000000Y-160000000I-5000000J0D01*
G01*
X185000000Y-80000000D02*
G75*
G02X190000000Y-85000000I0J-5000000D01*
G01*
X90000000Y-85000000D02*
G75*
G02X95000000Y-80000000I5000000J0D01*
G01*
X95000000Y-160000000D02*
G75*
G02X90000000Y-155000000I0J5000000D01*
G01*
D11*
G36*
X139932948Y-153575722D02*
G01*
X140196831Y-153685026D01*
X140196833Y-153685027D01*
X140434321Y-153843711D01*
X140636289Y-154045679D01*
X140794973Y-154283167D01*
X140794974Y-154283169D01*
X140904278Y-154547052D01*
X140960000Y-154827186D01*
X140960000Y-155112814D01*
X140904278Y-155392948D01*
X140794974Y-155656831D01*
X140794973Y-155656833D01*
X140636289Y-155894321D01*
X140434321Y-156096289D01*
X140196833Y-156254973D01*
X140196832Y-156254974D01*
X140196831Y-156254974D01*
X139932948Y-156364278D01*
X139652814Y-156420000D01*
X139367186Y-156420000D01*
X139087052Y-156364278D01*
X138823169Y-156254974D01*
X138823168Y-156254974D01*
X138823167Y-156254973D01*
X138585679Y-156096289D01*
X138383711Y-155894321D01*
X138225027Y-155656833D01*
X138225026Y-155656831D01*
X138115722Y-155392948D01*
X138060000Y-155112814D01*
X138060000Y-154827186D01*
X138115722Y-154547052D01*
X138225026Y-154283169D01*
X138225027Y-154283167D01*
X138383711Y-154045679D01*
X138585679Y-153843711D01*
X138823167Y-153685027D01*
X138823169Y-153685026D01*
X139087052Y-153575722D01*
X139367186Y-153520000D01*
X139652814Y-153520000D01*
X139932948Y-153575722D01*
X139932948Y-153575722D01*
G37*
G36*
X134852948Y-153575722D02*
G01*
X135116831Y-153685026D01*
X135116833Y-153685027D01*
X135354321Y-153843711D01*
X135556289Y-154045679D01*
X135714973Y-154283167D01*
X135714974Y-154283169D01*
X135824278Y-154547052D01*
X135880000Y-154827186D01*
X135880000Y-155112814D01*
X135824278Y-155392948D01*
X135714974Y-155656831D01*
X135714973Y-155656833D01*
X135556289Y-155894321D01*
X135354321Y-156096289D01*
X135116833Y-156254973D01*
X135116832Y-156254974D01*
X135116831Y-156254974D01*
X134852948Y-156364278D01*
X134572814Y-156420000D01*
X134287186Y-156420000D01*
X134007052Y-156364278D01*
X133743169Y-156254974D01*
X133743168Y-156254974D01*
X133743167Y-156254973D01*
X133505679Y-156096289D01*
X133303711Y-155894321D01*
X133145027Y-155656833D01*
X133145026Y-155656831D01*
X133035722Y-155392948D01*
X132980000Y-155112814D01*
X132980000Y-154827186D01*
X133035722Y-154547052D01*
X133145026Y-154283169D01*
X133145027Y-154283167D01*
X133303711Y-154045679D01*
X133505679Y-153843711D01*
X133743167Y-153685027D01*
X133743169Y-153685026D01*
X134007052Y-153575722D01*
X134287186Y-153520000D01*
X134572814Y-153520000D01*
X134852948Y-153575722D01*
X134852948Y-153575722D01*
G37*
G36*
X103557534Y-146797643D02*
G01*
X103797527Y-146897052D01*
X103830517Y-146910717D01*
X103874342Y-146940000D01*
X104076193Y-147074873D01*
X104285127Y-147283807D01*
X104449284Y-147529485D01*
X104562357Y-147802466D01*
X104620000Y-148092262D01*
X104620000Y-148387738D01*
X104562357Y-148677534D01*
X104488525Y-148855779D01*
X104449283Y-148950517D01*
X104285126Y-149196194D01*
X104076194Y-149405126D01*
X103830517Y-149569283D01*
X103830516Y-149569284D01*
X103830515Y-149569284D01*
X103557534Y-149682357D01*
X103267738Y-149740000D01*
X102972262Y-149740000D01*
X102682466Y-149682357D01*
X102409485Y-149569284D01*
X102409484Y-149569284D01*
X102409483Y-149569283D01*
X102163806Y-149405126D01*
X101954874Y-149196194D01*
X101790717Y-148950517D01*
X101751475Y-148855779D01*
X101677643Y-148677534D01*
X101620000Y-148387738D01*
X101620000Y-148092262D01*
X101677643Y-147802466D01*
X101790716Y-147529485D01*
X101954873Y-147283807D01*
X102163807Y-147074873D01*
X102365658Y-146940000D01*
X102409483Y-146910717D01*
X102442473Y-146897052D01*
X102682466Y-146797643D01*
X102972262Y-146740000D01*
X103267738Y-146740000D01*
X103557534Y-146797643D01*
X103557534Y-146797643D01*
G37*
G36*
X177352534Y-146797643D02*
G01*
X177592527Y-146897052D01*
X177625517Y-146910717D01*
X177669342Y-146940000D01*
X177871193Y-147074873D01*
X178080127Y-147283807D01*
X178244284Y-147529485D01*
X178357357Y-147802466D01*
X178415000Y-148092262D01*
X178415000Y-148387738D01*
X178357357Y-148677534D01*
X178283525Y-148855779D01*
X178244283Y-148950517D01*
X178080126Y-149196194D01*
X177871194Y-149405126D01*
X177625517Y-149569283D01*
X177625516Y-149569284D01*
X177625515Y-149569284D01*
X177352534Y-149682357D01*
X177062738Y-149740000D01*
X176767262Y-149740000D01*
X176477466Y-149682357D01*
X176204485Y-149569284D01*
X176204484Y-149569284D01*
X176204483Y-149569283D01*
X175958806Y-149405126D01*
X175749874Y-149196194D01*
X175585717Y-148950517D01*
X175546475Y-148855779D01*
X175472643Y-148677534D01*
X175415000Y-148387738D01*
X175415000Y-148092262D01*
X175472643Y-147802466D01*
X175585716Y-147529485D01*
X175749873Y-147283807D01*
X175958807Y-147074873D01*
X176160658Y-146940000D01*
X176204483Y-146910717D01*
X176237473Y-146897052D01*
X176477466Y-146797643D01*
X176767262Y-146740000D01*
X177062738Y-146740000D01*
X177352534Y-146797643D01*
X177352534Y-146797643D01*
G37*
G36*
X115573617Y-146964979D02*
G01*
X115699196Y-146989958D01*
X115866486Y-147059252D01*
X115904199Y-147074873D01*
X115935781Y-147087955D01*
X116148702Y-147230224D01*
X116329776Y-147411298D01*
X116472045Y-147624219D01*
X116570042Y-147860804D01*
X116620000Y-148111961D01*
X116620000Y-148368039D01*
X116570042Y-148619196D01*
X116472045Y-148855781D01*
X116329776Y-149068702D01*
X116148702Y-149249776D01*
X115935781Y-149392045D01*
X115935780Y-149392046D01*
X115935779Y-149392046D01*
X115866486Y-149420748D01*
X115699196Y-149490042D01*
X115448040Y-149540000D01*
X115191960Y-149540000D01*
X114940804Y-149490042D01*
X114773514Y-149420748D01*
X114704221Y-149392046D01*
X114704220Y-149392046D01*
X114704219Y-149392045D01*
X114491298Y-149249776D01*
X114310224Y-149068702D01*
X114167955Y-148855781D01*
X114069958Y-148619196D01*
X114020000Y-148368039D01*
X114020000Y-148111961D01*
X114069958Y-147860804D01*
X114167955Y-147624219D01*
X114310224Y-147411298D01*
X114491298Y-147230224D01*
X114704219Y-147087955D01*
X114735802Y-147074873D01*
X114773514Y-147059252D01*
X114940804Y-146989958D01*
X115066383Y-146964979D01*
X115191960Y-146940000D01*
X115448040Y-146940000D01*
X115573617Y-146964979D01*
X115573617Y-146964979D01*
G37*
G36*
X164968617Y-146964979D02*
G01*
X165094196Y-146989958D01*
X165261486Y-147059252D01*
X165299199Y-147074873D01*
X165330781Y-147087955D01*
X165543702Y-147230224D01*
X165724776Y-147411298D01*
X165867045Y-147624219D01*
X165965042Y-147860804D01*
X166015000Y-148111961D01*
X166015000Y-148368039D01*
X165965042Y-148619196D01*
X165867045Y-148855781D01*
X165724776Y-149068702D01*
X165543702Y-149249776D01*
X165330781Y-149392045D01*
X165330780Y-149392046D01*
X165330779Y-149392046D01*
X165261486Y-149420748D01*
X165094196Y-149490042D01*
X164843040Y-149540000D01*
X164586960Y-149540000D01*
X164335804Y-149490042D01*
X164168514Y-149420748D01*
X164099221Y-149392046D01*
X164099220Y-149392046D01*
X164099219Y-149392045D01*
X163886298Y-149249776D01*
X163705224Y-149068702D01*
X163562955Y-148855781D01*
X163464958Y-148619196D01*
X163415000Y-148368039D01*
X163415000Y-148111961D01*
X163464958Y-147860804D01*
X163562955Y-147624219D01*
X163705224Y-147411298D01*
X163886298Y-147230224D01*
X164099219Y-147087955D01*
X164130802Y-147074873D01*
X164168514Y-147059252D01*
X164335804Y-146989958D01*
X164461383Y-146964979D01*
X164586960Y-146940000D01*
X164843040Y-146940000D01*
X164968617Y-146964979D01*
X164968617Y-146964979D01*
G37*
G36*
X186477948Y-145925722D02*
G01*
X186741831Y-146035026D01*
X186741833Y-146035027D01*
X186979321Y-146193711D01*
X187181289Y-146395679D01*
X187339973Y-146633167D01*
X187339974Y-146633169D01*
X187449278Y-146897052D01*
X187505000Y-147177186D01*
X187505000Y-147462814D01*
X187449278Y-147742948D01*
X187400460Y-147860804D01*
X187339973Y-148006833D01*
X187181289Y-148244321D01*
X186979321Y-148446289D01*
X186741833Y-148604973D01*
X186741832Y-148604974D01*
X186741831Y-148604974D01*
X186477948Y-148714278D01*
X186197814Y-148770000D01*
X185912186Y-148770000D01*
X185632052Y-148714278D01*
X185368169Y-148604974D01*
X185368168Y-148604974D01*
X185368167Y-148604973D01*
X185130679Y-148446289D01*
X184928711Y-148244321D01*
X184770027Y-148006833D01*
X184709540Y-147860804D01*
X184660722Y-147742948D01*
X184605000Y-147462814D01*
X184605000Y-147177186D01*
X184660722Y-146897052D01*
X184770026Y-146633169D01*
X184770027Y-146633167D01*
X184928711Y-146395679D01*
X185130679Y-146193711D01*
X185368167Y-146035027D01*
X185368169Y-146035026D01*
X185632052Y-145925722D01*
X185912186Y-145870000D01*
X186197814Y-145870000D01*
X186477948Y-145925722D01*
X186477948Y-145925722D01*
G37*
G36*
X94402948Y-145925722D02*
G01*
X94666831Y-146035026D01*
X94666833Y-146035027D01*
X94904321Y-146193711D01*
X95106289Y-146395679D01*
X95264973Y-146633167D01*
X95264974Y-146633169D01*
X95374278Y-146897052D01*
X95430000Y-147177186D01*
X95430000Y-147462814D01*
X95374278Y-147742948D01*
X95325460Y-147860804D01*
X95264973Y-148006833D01*
X95106289Y-148244321D01*
X94904321Y-148446289D01*
X94666833Y-148604973D01*
X94666832Y-148604974D01*
X94666831Y-148604974D01*
X94402948Y-148714278D01*
X94122814Y-148770000D01*
X93837186Y-148770000D01*
X93557052Y-148714278D01*
X93293169Y-148604974D01*
X93293168Y-148604974D01*
X93293167Y-148604973D01*
X93055679Y-148446289D01*
X92853711Y-148244321D01*
X92695027Y-148006833D01*
X92634540Y-147860804D01*
X92585722Y-147742948D01*
X92530000Y-147462814D01*
X92530000Y-147177186D01*
X92585722Y-146897052D01*
X92695026Y-146633169D01*
X92695027Y-146633167D01*
X92853711Y-146395679D01*
X93055679Y-146193711D01*
X93293167Y-146035027D01*
X93293169Y-146035026D01*
X93557052Y-145925722D01*
X93837186Y-145870000D01*
X94122814Y-145870000D01*
X94402948Y-145925722D01*
X94402948Y-145925722D01*
G37*
G36*
X163181703Y-140701486D02*
G01*
X163472883Y-140822097D01*
X163734940Y-140997198D01*
X163957802Y-141220060D01*
X164132903Y-141482117D01*
X164253514Y-141773297D01*
X164315000Y-142082412D01*
X164315000Y-142397588D01*
X164253514Y-142706703D01*
X164132903Y-142997883D01*
X163957802Y-143259940D01*
X163734940Y-143482802D01*
X163472883Y-143657903D01*
X163181703Y-143778514D01*
X162872588Y-143840000D01*
X162557412Y-143840000D01*
X162248297Y-143778514D01*
X161957117Y-143657903D01*
X161695060Y-143482802D01*
X161472198Y-143259940D01*
X161297097Y-142997883D01*
X161176486Y-142706703D01*
X161115000Y-142397588D01*
X161115000Y-142082412D01*
X161176486Y-141773297D01*
X161297097Y-141482117D01*
X161472198Y-141220060D01*
X161695060Y-140997198D01*
X161957117Y-140822097D01*
X162248297Y-140701486D01*
X162557412Y-140640000D01*
X162872588Y-140640000D01*
X163181703Y-140701486D01*
X163181703Y-140701486D01*
G37*
G36*
X117786703Y-140701486D02*
G01*
X118077883Y-140822097D01*
X118339940Y-140997198D01*
X118562802Y-141220060D01*
X118737903Y-141482117D01*
X118858514Y-141773297D01*
X118920000Y-142082412D01*
X118920000Y-142397588D01*
X118858514Y-142706703D01*
X118737903Y-142997883D01*
X118562802Y-143259940D01*
X118339940Y-143482802D01*
X118077883Y-143657903D01*
X117786703Y-143778514D01*
X117477588Y-143840000D01*
X117162412Y-143840000D01*
X116853297Y-143778514D01*
X116562117Y-143657903D01*
X116300060Y-143482802D01*
X116077198Y-143259940D01*
X115902097Y-142997883D01*
X115781486Y-142706703D01*
X115720000Y-142397588D01*
X115720000Y-142082412D01*
X115781486Y-141773297D01*
X115902097Y-141482117D01*
X116077198Y-141220060D01*
X116300060Y-140997198D01*
X116562117Y-140822097D01*
X116853297Y-140701486D01*
X117162412Y-140640000D01*
X117477588Y-140640000D01*
X117786703Y-140701486D01*
X117786703Y-140701486D01*
G37*
G36*
X121563740Y-143692220D02*
G01*
X120162980Y-143692220D01*
X120162980Y-142692780D01*
X121563740Y-142692780D01*
X121563740Y-143692220D01*
X121563740Y-143692220D01*
G37*
G36*
X159872020Y-143692220D02*
G01*
X158471260Y-143692220D01*
X158471260Y-142692780D01*
X159872020Y-142692780D01*
X159872020Y-143692220D01*
X159872020Y-143692220D01*
G37*
G36*
X94402948Y-140845722D02*
G01*
X94666831Y-140955026D01*
X94666833Y-140955027D01*
X94904321Y-141113711D01*
X95106289Y-141315679D01*
X95217498Y-141482116D01*
X95264974Y-141553169D01*
X95374278Y-141817052D01*
X95430000Y-142097186D01*
X95430000Y-142382814D01*
X95374278Y-142662948D01*
X95361921Y-142692780D01*
X95264973Y-142926833D01*
X95106289Y-143164321D01*
X94904321Y-143366289D01*
X94666833Y-143524973D01*
X94666832Y-143524974D01*
X94666831Y-143524974D01*
X94402948Y-143634278D01*
X94122814Y-143690000D01*
X93837186Y-143690000D01*
X93557052Y-143634278D01*
X93293169Y-143524974D01*
X93293168Y-143524974D01*
X93293167Y-143524973D01*
X93055679Y-143366289D01*
X92853711Y-143164321D01*
X92695027Y-142926833D01*
X92598079Y-142692780D01*
X92585722Y-142662948D01*
X92530000Y-142382814D01*
X92530000Y-142097186D01*
X92585722Y-141817052D01*
X92695026Y-141553169D01*
X92742502Y-141482116D01*
X92853711Y-141315679D01*
X93055679Y-141113711D01*
X93293167Y-140955027D01*
X93293169Y-140955026D01*
X93557052Y-140845722D01*
X93837186Y-140790000D01*
X94122814Y-140790000D01*
X94402948Y-140845722D01*
X94402948Y-140845722D01*
G37*
G36*
X186477948Y-140845722D02*
G01*
X186741831Y-140955026D01*
X186741833Y-140955027D01*
X186979321Y-141113711D01*
X187181289Y-141315679D01*
X187292498Y-141482116D01*
X187339974Y-141553169D01*
X187449278Y-141817052D01*
X187505000Y-142097186D01*
X187505000Y-142382814D01*
X187449278Y-142662948D01*
X187436921Y-142692780D01*
X187339973Y-142926833D01*
X187181289Y-143164321D01*
X186979321Y-143366289D01*
X186741833Y-143524973D01*
X186741832Y-143524974D01*
X186741831Y-143524974D01*
X186477948Y-143634278D01*
X186197814Y-143690000D01*
X185912186Y-143690000D01*
X185632052Y-143634278D01*
X185368169Y-143524974D01*
X185368168Y-143524974D01*
X185368167Y-143524973D01*
X185130679Y-143366289D01*
X184928711Y-143164321D01*
X184770027Y-142926833D01*
X184673079Y-142692780D01*
X184660722Y-142662948D01*
X184605000Y-142382814D01*
X184605000Y-142097186D01*
X184660722Y-141817052D01*
X184770026Y-141553169D01*
X184817502Y-141482116D01*
X184928711Y-141315679D01*
X185130679Y-141113711D01*
X185368167Y-140955027D01*
X185368169Y-140955026D01*
X185632052Y-140845722D01*
X185912186Y-140790000D01*
X186197814Y-140790000D01*
X186477948Y-140845722D01*
X186477948Y-140845722D01*
G37*
G36*
X123677020Y-142739720D02*
G01*
X122276260Y-142739720D01*
X122276260Y-141740280D01*
X123677020Y-141740280D01*
X123677020Y-142739720D01*
X123677020Y-142739720D01*
G37*
G36*
X157758740Y-142739720D02*
G01*
X156357980Y-142739720D01*
X156357980Y-141740280D01*
X157758740Y-141740280D01*
X157758740Y-142739720D01*
X157758740Y-142739720D01*
G37*
G36*
X121563740Y-141787220D02*
G01*
X120162980Y-141787220D01*
X120162980Y-140787780D01*
X121563740Y-140787780D01*
X121563740Y-141787220D01*
X121563740Y-141787220D01*
G37*
G36*
X159872020Y-141787220D02*
G01*
X158471260Y-141787220D01*
X158471260Y-140787780D01*
X159872020Y-140787780D01*
X159872020Y-141787220D01*
X159872020Y-141787220D01*
G37*
G36*
X146890735Y-138725554D02*
G01*
X147093376Y-138787024D01*
X147280128Y-138886846D01*
X147443818Y-139021182D01*
X147543160Y-139142232D01*
X147578154Y-139184872D01*
X147578155Y-139184874D01*
X147677975Y-139371623D01*
X147739446Y-139574266D01*
X147755000Y-139732191D01*
X147755000Y-140287810D01*
X147739446Y-140445735D01*
X147677976Y-140648376D01*
X147578154Y-140835128D01*
X147443818Y-140998818D01*
X147330986Y-141091415D01*
X147280128Y-141133154D01*
X147186751Y-141183065D01*
X147093375Y-141232976D01*
X146890734Y-141294446D01*
X146680000Y-141315201D01*
X146469265Y-141294446D01*
X146266624Y-141232976D01*
X146079872Y-141133154D01*
X145916182Y-140998818D01*
X145823585Y-140885986D01*
X145781846Y-140835128D01*
X145682025Y-140648376D01*
X145682024Y-140648375D01*
X145620554Y-140445734D01*
X145605000Y-140287809D01*
X145605000Y-139732190D01*
X145620554Y-139574265D01*
X145682024Y-139371624D01*
X145781847Y-139184872D01*
X145916183Y-139021182D01*
X146079873Y-138886846D01*
X146266625Y-138787024D01*
X146469266Y-138725554D01*
X146680000Y-138704799D01*
X146890735Y-138725554D01*
X146890735Y-138725554D01*
G37*
G36*
X144350735Y-138725554D02*
G01*
X144553376Y-138787024D01*
X144740128Y-138886846D01*
X144903818Y-139021182D01*
X145003160Y-139142232D01*
X145038154Y-139184872D01*
X145038155Y-139184874D01*
X145137975Y-139371623D01*
X145199446Y-139574266D01*
X145215000Y-139732191D01*
X145215000Y-140287810D01*
X145199446Y-140445735D01*
X145137976Y-140648376D01*
X145038154Y-140835128D01*
X144903818Y-140998818D01*
X144790986Y-141091415D01*
X144740128Y-141133154D01*
X144646751Y-141183065D01*
X144553375Y-141232976D01*
X144350734Y-141294446D01*
X144140000Y-141315201D01*
X143929265Y-141294446D01*
X143726624Y-141232976D01*
X143539872Y-141133154D01*
X143376182Y-140998818D01*
X143283585Y-140885986D01*
X143241846Y-140835128D01*
X143142025Y-140648376D01*
X143142024Y-140648375D01*
X143080554Y-140445734D01*
X143065000Y-140287809D01*
X143065000Y-139732190D01*
X143080554Y-139574265D01*
X143142024Y-139371624D01*
X143241847Y-139184872D01*
X143376183Y-139021182D01*
X143539873Y-138886846D01*
X143726625Y-138787024D01*
X143929266Y-138725554D01*
X144140000Y-138704799D01*
X144350735Y-138725554D01*
X144350735Y-138725554D01*
G37*
G36*
X149430735Y-138725554D02*
G01*
X149633376Y-138787024D01*
X149820128Y-138886846D01*
X149983818Y-139021182D01*
X150083160Y-139142232D01*
X150118154Y-139184872D01*
X150118155Y-139184874D01*
X150217975Y-139371623D01*
X150279446Y-139574266D01*
X150295000Y-139732191D01*
X150295000Y-140287810D01*
X150279446Y-140445735D01*
X150217976Y-140648376D01*
X150118154Y-140835128D01*
X149983818Y-140998818D01*
X149870986Y-141091415D01*
X149820128Y-141133154D01*
X149726751Y-141183065D01*
X149633375Y-141232976D01*
X149430734Y-141294446D01*
X149220000Y-141315201D01*
X149009265Y-141294446D01*
X148806624Y-141232976D01*
X148619872Y-141133154D01*
X148456182Y-140998818D01*
X148363585Y-140885986D01*
X148321846Y-140835128D01*
X148222025Y-140648376D01*
X148222024Y-140648375D01*
X148160554Y-140445734D01*
X148145000Y-140287809D01*
X148145000Y-139732190D01*
X148160554Y-139574265D01*
X148222024Y-139371624D01*
X148321847Y-139184872D01*
X148456183Y-139021182D01*
X148619873Y-138886846D01*
X148806625Y-138787024D01*
X149009266Y-138725554D01*
X149220000Y-138704799D01*
X149430735Y-138725554D01*
X149430735Y-138725554D01*
G37*
G36*
X152835000Y-141310000D02*
G01*
X150685000Y-141310000D01*
X150685000Y-138710000D01*
X152835000Y-138710000D01*
X152835000Y-141310000D01*
X152835000Y-141310000D01*
G37*
G36*
X123021700Y-139557100D02*
G01*
X120818300Y-139557100D01*
X120818300Y-137556900D01*
X123021700Y-137556900D01*
X123021700Y-139557100D01*
X123021700Y-139557100D01*
G37*
G36*
X158101700Y-139547100D02*
G01*
X155898300Y-139547100D01*
X155898300Y-137546900D01*
X158101700Y-137546900D01*
X158101700Y-139547100D01*
X158101700Y-139547100D01*
G37*
G36*
X186477948Y-135765722D02*
G01*
X186707496Y-135860804D01*
X186741833Y-135875027D01*
X186979321Y-136033711D01*
X187181289Y-136235679D01*
X187282891Y-136387738D01*
X187339974Y-136473169D01*
X187449278Y-136737052D01*
X187505000Y-137017186D01*
X187505000Y-137302814D01*
X187449278Y-137582948D01*
X187408101Y-137682357D01*
X187339973Y-137846833D01*
X187181289Y-138084321D01*
X186979321Y-138286289D01*
X186741833Y-138444973D01*
X186741832Y-138444974D01*
X186741831Y-138444974D01*
X186477948Y-138554278D01*
X186197814Y-138610000D01*
X185912186Y-138610000D01*
X185632052Y-138554278D01*
X185368169Y-138444974D01*
X185368168Y-138444974D01*
X185368167Y-138444973D01*
X185130679Y-138286289D01*
X184928711Y-138084321D01*
X184770027Y-137846833D01*
X184701899Y-137682357D01*
X184660722Y-137582948D01*
X184605000Y-137302814D01*
X184605000Y-137017186D01*
X184660722Y-136737052D01*
X184770026Y-136473169D01*
X184827109Y-136387738D01*
X184928711Y-136235679D01*
X185130679Y-136033711D01*
X185368167Y-135875027D01*
X185402504Y-135860804D01*
X185632052Y-135765722D01*
X185912186Y-135710000D01*
X186197814Y-135710000D01*
X186477948Y-135765722D01*
X186477948Y-135765722D01*
G37*
G36*
X94402948Y-135765722D02*
G01*
X94632496Y-135860804D01*
X94666833Y-135875027D01*
X94904321Y-136033711D01*
X95106289Y-136235679D01*
X95207891Y-136387738D01*
X95264974Y-136473169D01*
X95374278Y-136737052D01*
X95430000Y-137017186D01*
X95430000Y-137302814D01*
X95374278Y-137582948D01*
X95333101Y-137682357D01*
X95264973Y-137846833D01*
X95106289Y-138084321D01*
X94904321Y-138286289D01*
X94666833Y-138444973D01*
X94666832Y-138444974D01*
X94666831Y-138444974D01*
X94402948Y-138554278D01*
X94122814Y-138610000D01*
X93837186Y-138610000D01*
X93557052Y-138554278D01*
X93293169Y-138444974D01*
X93293168Y-138444974D01*
X93293167Y-138444973D01*
X93055679Y-138286289D01*
X92853711Y-138084321D01*
X92695027Y-137846833D01*
X92626899Y-137682357D01*
X92585722Y-137582948D01*
X92530000Y-137302814D01*
X92530000Y-137017186D01*
X92585722Y-136737052D01*
X92695026Y-136473169D01*
X92752109Y-136387738D01*
X92853711Y-136235679D01*
X93055679Y-136033711D01*
X93293167Y-135875027D01*
X93327504Y-135860804D01*
X93557052Y-135765722D01*
X93837186Y-135710000D01*
X94122814Y-135710000D01*
X94402948Y-135765722D01*
X94402948Y-135765722D01*
G37*
G36*
X177352534Y-131557643D02*
G01*
X177592527Y-131657052D01*
X177625517Y-131670717D01*
X177669342Y-131700000D01*
X177871193Y-131834873D01*
X178080127Y-132043807D01*
X178244284Y-132289485D01*
X178357357Y-132562466D01*
X178415000Y-132852262D01*
X178415000Y-133147738D01*
X178357357Y-133437534D01*
X178283525Y-133615779D01*
X178244283Y-133710517D01*
X178080126Y-133956194D01*
X177871194Y-134165126D01*
X177625517Y-134329283D01*
X177625516Y-134329284D01*
X177625515Y-134329284D01*
X177352534Y-134442357D01*
X177075794Y-134497403D01*
X177052345Y-134504516D01*
X177030735Y-134516067D01*
X177011793Y-134531612D01*
X176996247Y-134550554D01*
X176984696Y-134572165D01*
X176977583Y-134595614D01*
X176975181Y-134620000D01*
X176977583Y-134644386D01*
X176984696Y-134667835D01*
X176996247Y-134689445D01*
X177011792Y-134708387D01*
X177030734Y-134723933D01*
X177052345Y-134735484D01*
X177075794Y-134742597D01*
X177352534Y-134797643D01*
X177625515Y-134910716D01*
X177625517Y-134910717D01*
X177669342Y-134940000D01*
X177871193Y-135074873D01*
X178080127Y-135283807D01*
X178244284Y-135529485D01*
X178357357Y-135802466D01*
X178415000Y-136092262D01*
X178415000Y-136387738D01*
X178357357Y-136677534D01*
X178283525Y-136855779D01*
X178244283Y-136950517D01*
X178080126Y-137196194D01*
X177871194Y-137405126D01*
X177625517Y-137569283D01*
X177625516Y-137569284D01*
X177625515Y-137569284D01*
X177352534Y-137682357D01*
X177062738Y-137740000D01*
X176767262Y-137740000D01*
X176477466Y-137682357D01*
X176204485Y-137569284D01*
X176204484Y-137569284D01*
X176204483Y-137569283D01*
X175958806Y-137405126D01*
X175749874Y-137196194D01*
X175585717Y-136950517D01*
X175546475Y-136855779D01*
X175472643Y-136677534D01*
X175415000Y-136387738D01*
X175415000Y-136092262D01*
X175472643Y-135802466D01*
X175585716Y-135529485D01*
X175749873Y-135283807D01*
X175958807Y-135074873D01*
X176160658Y-134940000D01*
X176204483Y-134910717D01*
X176204485Y-134910716D01*
X176477466Y-134797643D01*
X176754206Y-134742597D01*
X176777655Y-134735484D01*
X176799265Y-134723933D01*
X176818207Y-134708388D01*
X176833753Y-134689446D01*
X176845304Y-134667835D01*
X176852417Y-134644386D01*
X176854819Y-134620000D01*
X176852417Y-134595614D01*
X176845304Y-134572165D01*
X176833753Y-134550555D01*
X176818208Y-134531613D01*
X176799266Y-134516067D01*
X176777655Y-134504516D01*
X176754206Y-134497403D01*
X176477466Y-134442357D01*
X176204485Y-134329284D01*
X176204484Y-134329284D01*
X176204483Y-134329283D01*
X175958806Y-134165126D01*
X175749874Y-133956194D01*
X175585717Y-133710517D01*
X175546475Y-133615779D01*
X175472643Y-133437534D01*
X175415000Y-133147738D01*
X175415000Y-132852262D01*
X175472643Y-132562466D01*
X175585716Y-132289485D01*
X175749873Y-132043807D01*
X175958807Y-131834873D01*
X176160658Y-131700000D01*
X176204483Y-131670717D01*
X176237473Y-131657052D01*
X176477466Y-131557643D01*
X176767262Y-131500000D01*
X177062738Y-131500000D01*
X177352534Y-131557643D01*
X177352534Y-131557643D01*
G37*
G36*
X103557534Y-131557643D02*
G01*
X103797527Y-131657052D01*
X103830517Y-131670717D01*
X103874342Y-131700000D01*
X104076193Y-131834873D01*
X104285127Y-132043807D01*
X104449284Y-132289485D01*
X104562357Y-132562466D01*
X104620000Y-132852262D01*
X104620000Y-133147738D01*
X104562357Y-133437534D01*
X104488525Y-133615779D01*
X104449283Y-133710517D01*
X104285126Y-133956194D01*
X104076194Y-134165126D01*
X103830517Y-134329283D01*
X103830516Y-134329284D01*
X103830515Y-134329284D01*
X103557534Y-134442357D01*
X103280794Y-134497403D01*
X103257345Y-134504516D01*
X103235735Y-134516067D01*
X103216793Y-134531612D01*
X103201247Y-134550554D01*
X103189696Y-134572165D01*
X103182583Y-134595614D01*
X103180181Y-134620000D01*
X103182583Y-134644386D01*
X103189696Y-134667835D01*
X103201247Y-134689445D01*
X103216792Y-134708387D01*
X103235734Y-134723933D01*
X103257345Y-134735484D01*
X103280794Y-134742597D01*
X103557534Y-134797643D01*
X103830515Y-134910716D01*
X103830517Y-134910717D01*
X103874342Y-134940000D01*
X104076193Y-135074873D01*
X104285127Y-135283807D01*
X104449284Y-135529485D01*
X104562357Y-135802466D01*
X104620000Y-136092262D01*
X104620000Y-136387738D01*
X104562357Y-136677534D01*
X104488525Y-136855779D01*
X104449283Y-136950517D01*
X104285126Y-137196194D01*
X104076194Y-137405126D01*
X103830517Y-137569283D01*
X103830516Y-137569284D01*
X103830515Y-137569284D01*
X103557534Y-137682357D01*
X103267738Y-137740000D01*
X102972262Y-137740000D01*
X102682466Y-137682357D01*
X102409485Y-137569284D01*
X102409484Y-137569284D01*
X102409483Y-137569283D01*
X102163806Y-137405126D01*
X101954874Y-137196194D01*
X101790717Y-136950517D01*
X101751475Y-136855779D01*
X101677643Y-136677534D01*
X101620000Y-136387738D01*
X101620000Y-136092262D01*
X101677643Y-135802466D01*
X101790716Y-135529485D01*
X101954873Y-135283807D01*
X102163807Y-135074873D01*
X102365658Y-134940000D01*
X102409483Y-134910717D01*
X102409485Y-134910716D01*
X102682466Y-134797643D01*
X102959206Y-134742597D01*
X102982655Y-134735484D01*
X103004265Y-134723933D01*
X103023207Y-134708388D01*
X103038753Y-134689446D01*
X103050304Y-134667835D01*
X103057417Y-134644386D01*
X103059819Y-134620000D01*
X103057417Y-134595614D01*
X103050304Y-134572165D01*
X103038753Y-134550555D01*
X103023208Y-134531613D01*
X103004266Y-134516067D01*
X102982655Y-134504516D01*
X102959206Y-134497403D01*
X102682466Y-134442357D01*
X102409485Y-134329284D01*
X102409484Y-134329284D01*
X102409483Y-134329283D01*
X102163806Y-134165126D01*
X101954874Y-133956194D01*
X101790717Y-133710517D01*
X101751475Y-133615779D01*
X101677643Y-133437534D01*
X101620000Y-133147738D01*
X101620000Y-132852262D01*
X101677643Y-132562466D01*
X101790716Y-132289485D01*
X101954873Y-132043807D01*
X102163807Y-131834873D01*
X102365658Y-131700000D01*
X102409483Y-131670717D01*
X102442473Y-131657052D01*
X102682466Y-131557643D01*
X102972262Y-131500000D01*
X103267738Y-131500000D01*
X103557534Y-131557643D01*
X103557534Y-131557643D01*
G37*
G36*
X165094196Y-134989958D02*
G01*
X165261486Y-135059252D01*
X165299199Y-135074873D01*
X165330781Y-135087955D01*
X165543702Y-135230224D01*
X165724776Y-135411298D01*
X165867045Y-135624219D01*
X165965042Y-135860804D01*
X166015000Y-136111961D01*
X166015000Y-136368039D01*
X165965042Y-136619196D01*
X165867045Y-136855781D01*
X165724776Y-137068702D01*
X165543702Y-137249776D01*
X165330781Y-137392045D01*
X165330780Y-137392046D01*
X165330779Y-137392046D01*
X165261486Y-137420748D01*
X165094196Y-137490042D01*
X164968617Y-137515021D01*
X164843040Y-137540000D01*
X164586960Y-137540000D01*
X164461383Y-137515021D01*
X164335804Y-137490042D01*
X164168514Y-137420748D01*
X164099221Y-137392046D01*
X164099220Y-137392046D01*
X164099219Y-137392045D01*
X163886298Y-137249776D01*
X163705224Y-137068702D01*
X163562955Y-136855781D01*
X163464958Y-136619196D01*
X163415000Y-136368039D01*
X163415000Y-136111961D01*
X163464958Y-135860804D01*
X163562955Y-135624219D01*
X163705224Y-135411298D01*
X163886298Y-135230224D01*
X164099219Y-135087955D01*
X164130802Y-135074873D01*
X164168514Y-135059252D01*
X164335804Y-134989958D01*
X164586960Y-134940000D01*
X164843040Y-134940000D01*
X165094196Y-134989958D01*
X165094196Y-134989958D01*
G37*
G36*
X115699196Y-134989958D02*
G01*
X115866486Y-135059252D01*
X115904199Y-135074873D01*
X115935781Y-135087955D01*
X116148702Y-135230224D01*
X116329776Y-135411298D01*
X116472045Y-135624219D01*
X116570042Y-135860804D01*
X116620000Y-136111961D01*
X116620000Y-136368039D01*
X116570042Y-136619196D01*
X116472045Y-136855781D01*
X116329776Y-137068702D01*
X116148702Y-137249776D01*
X115935781Y-137392045D01*
X115935780Y-137392046D01*
X115935779Y-137392046D01*
X115866486Y-137420748D01*
X115699196Y-137490042D01*
X115573617Y-137515021D01*
X115448040Y-137540000D01*
X115191960Y-137540000D01*
X115066383Y-137515021D01*
X114940804Y-137490042D01*
X114773514Y-137420748D01*
X114704221Y-137392046D01*
X114704220Y-137392046D01*
X114704219Y-137392045D01*
X114491298Y-137249776D01*
X114310224Y-137068702D01*
X114167955Y-136855781D01*
X114069958Y-136619196D01*
X114020000Y-136368039D01*
X114020000Y-136111961D01*
X114069958Y-135860804D01*
X114167955Y-135624219D01*
X114310224Y-135411298D01*
X114491298Y-135230224D01*
X114704219Y-135087955D01*
X114735802Y-135074873D01*
X114773514Y-135059252D01*
X114940804Y-134989958D01*
X115191960Y-134940000D01*
X115448040Y-134940000D01*
X115699196Y-134989958D01*
X115699196Y-134989958D01*
G37*
G36*
X123021700Y-136763100D02*
G01*
X120818300Y-136763100D01*
X120818300Y-134762900D01*
X123021700Y-134762900D01*
X123021700Y-136763100D01*
X123021700Y-136763100D01*
G37*
G36*
X158101700Y-136753100D02*
G01*
X155898300Y-136753100D01*
X155898300Y-134752900D01*
X158101700Y-134752900D01*
X158101700Y-136753100D01*
X158101700Y-136753100D01*
G37*
G36*
X165094196Y-131749958D02*
G01*
X165261486Y-131819252D01*
X165299199Y-131834873D01*
X165330781Y-131847955D01*
X165543702Y-131990224D01*
X165724776Y-132171298D01*
X165867045Y-132384219D01*
X165965042Y-132620804D01*
X166015000Y-132871961D01*
X166015000Y-133128039D01*
X165965042Y-133379196D01*
X165867045Y-133615781D01*
X165724776Y-133828702D01*
X165543702Y-134009776D01*
X165330781Y-134152045D01*
X165330780Y-134152046D01*
X165330779Y-134152046D01*
X165261486Y-134180748D01*
X165094196Y-134250042D01*
X164843040Y-134300000D01*
X164586960Y-134300000D01*
X164335804Y-134250042D01*
X164168514Y-134180748D01*
X164099221Y-134152046D01*
X164099220Y-134152046D01*
X164099219Y-134152045D01*
X163886298Y-134009776D01*
X163705224Y-133828702D01*
X163562955Y-133615781D01*
X163464958Y-133379196D01*
X163415000Y-133128039D01*
X163415000Y-132871961D01*
X163464958Y-132620804D01*
X163562955Y-132384219D01*
X163705224Y-132171298D01*
X163886298Y-131990224D01*
X164099219Y-131847955D01*
X164130802Y-131834873D01*
X164168514Y-131819252D01*
X164335804Y-131749958D01*
X164586960Y-131700000D01*
X164843040Y-131700000D01*
X165094196Y-131749958D01*
X165094196Y-131749958D01*
G37*
G36*
X115699196Y-131749958D02*
G01*
X115866486Y-131819252D01*
X115904199Y-131834873D01*
X115935781Y-131847955D01*
X116148702Y-131990224D01*
X116329776Y-132171298D01*
X116472045Y-132384219D01*
X116570042Y-132620804D01*
X116620000Y-132871961D01*
X116620000Y-133128039D01*
X116570042Y-133379196D01*
X116472045Y-133615781D01*
X116329776Y-133828702D01*
X116148702Y-134009776D01*
X115935781Y-134152045D01*
X115935780Y-134152046D01*
X115935779Y-134152046D01*
X115866486Y-134180748D01*
X115699196Y-134250042D01*
X115448040Y-134300000D01*
X115191960Y-134300000D01*
X114940804Y-134250042D01*
X114773514Y-134180748D01*
X114704221Y-134152046D01*
X114704220Y-134152046D01*
X114704219Y-134152045D01*
X114491298Y-134009776D01*
X114310224Y-133828702D01*
X114167955Y-133615781D01*
X114069958Y-133379196D01*
X114020000Y-133128039D01*
X114020000Y-132871961D01*
X114069958Y-132620804D01*
X114167955Y-132384219D01*
X114310224Y-132171298D01*
X114491298Y-131990224D01*
X114704219Y-131847955D01*
X114735802Y-131834873D01*
X114773514Y-131819252D01*
X114940804Y-131749958D01*
X115191960Y-131700000D01*
X115448040Y-131700000D01*
X115699196Y-131749958D01*
X115699196Y-131749958D01*
G37*
G36*
X186477948Y-130685722D02*
G01*
X186741831Y-130795026D01*
X186741833Y-130795027D01*
X186979321Y-130953711D01*
X187181289Y-131155679D01*
X187339973Y-131393167D01*
X187339974Y-131393169D01*
X187449278Y-131657052D01*
X187505000Y-131937186D01*
X187505000Y-132222814D01*
X187449278Y-132502948D01*
X187400460Y-132620804D01*
X187339973Y-132766833D01*
X187181289Y-133004321D01*
X186979321Y-133206289D01*
X186741833Y-133364973D01*
X186741832Y-133364974D01*
X186741831Y-133364974D01*
X186477948Y-133474278D01*
X186197814Y-133530000D01*
X185912186Y-133530000D01*
X185632052Y-133474278D01*
X185368169Y-133364974D01*
X185368168Y-133364974D01*
X185368167Y-133364973D01*
X185130679Y-133206289D01*
X184928711Y-133004321D01*
X184770027Y-132766833D01*
X184709540Y-132620804D01*
X184660722Y-132502948D01*
X184605000Y-132222814D01*
X184605000Y-131937186D01*
X184660722Y-131657052D01*
X184770026Y-131393169D01*
X184770027Y-131393167D01*
X184928711Y-131155679D01*
X185130679Y-130953711D01*
X185368167Y-130795027D01*
X185368169Y-130795026D01*
X185632052Y-130685722D01*
X185912186Y-130630000D01*
X186197814Y-130630000D01*
X186477948Y-130685722D01*
X186477948Y-130685722D01*
G37*
G36*
X94402948Y-130685722D02*
G01*
X94666831Y-130795026D01*
X94666833Y-130795027D01*
X94904321Y-130953711D01*
X95106289Y-131155679D01*
X95264973Y-131393167D01*
X95264974Y-131393169D01*
X95374278Y-131657052D01*
X95430000Y-131937186D01*
X95430000Y-132222814D01*
X95374278Y-132502948D01*
X95325460Y-132620804D01*
X95264973Y-132766833D01*
X95106289Y-133004321D01*
X94904321Y-133206289D01*
X94666833Y-133364973D01*
X94666832Y-133364974D01*
X94666831Y-133364974D01*
X94402948Y-133474278D01*
X94122814Y-133530000D01*
X93837186Y-133530000D01*
X93557052Y-133474278D01*
X93293169Y-133364974D01*
X93293168Y-133364974D01*
X93293167Y-133364973D01*
X93055679Y-133206289D01*
X92853711Y-133004321D01*
X92695027Y-132766833D01*
X92634540Y-132620804D01*
X92585722Y-132502948D01*
X92530000Y-132222814D01*
X92530000Y-131937186D01*
X92585722Y-131657052D01*
X92695026Y-131393169D01*
X92695027Y-131393167D01*
X92853711Y-131155679D01*
X93055679Y-130953711D01*
X93293167Y-130795027D01*
X93293169Y-130795026D01*
X93557052Y-130685722D01*
X93837186Y-130630000D01*
X94122814Y-130630000D01*
X94402948Y-130685722D01*
X94402948Y-130685722D01*
G37*
G36*
X129260857Y-126782272D02*
G01*
X129441717Y-126857187D01*
X129461045Y-126865193D01*
X129551738Y-126925792D01*
X129641208Y-126985574D01*
X129794426Y-127138792D01*
X129914808Y-127318957D01*
X129997728Y-127519143D01*
X130040000Y-127731658D01*
X130040000Y-127948342D01*
X129997728Y-128160857D01*
X129963785Y-128242802D01*
X129914807Y-128361045D01*
X129855369Y-128450000D01*
X129796227Y-128538513D01*
X129794425Y-128541209D01*
X129641209Y-128694425D01*
X129461045Y-128814807D01*
X129461044Y-128814808D01*
X129461043Y-128814808D01*
X129260857Y-128897728D01*
X129048342Y-128940000D01*
X128831658Y-128940000D01*
X128619143Y-128897728D01*
X128418957Y-128814808D01*
X128418956Y-128814808D01*
X128418955Y-128814807D01*
X128238791Y-128694425D01*
X128085575Y-128541209D01*
X128083774Y-128538513D01*
X128024631Y-128450000D01*
X127965193Y-128361045D01*
X127916215Y-128242802D01*
X127882272Y-128160857D01*
X127840000Y-127948342D01*
X127840000Y-127731658D01*
X127882272Y-127519143D01*
X127965192Y-127318957D01*
X128085574Y-127138792D01*
X128238792Y-126985574D01*
X128328262Y-126925792D01*
X128418955Y-126865193D01*
X128438283Y-126857187D01*
X128619143Y-126782272D01*
X128831658Y-126740000D01*
X129048342Y-126740000D01*
X129260857Y-126782272D01*
X129260857Y-126782272D01*
G37*
G36*
X152120857Y-126782272D02*
G01*
X152301717Y-126857187D01*
X152321045Y-126865193D01*
X152411738Y-126925792D01*
X152501208Y-126985574D01*
X152654426Y-127138792D01*
X152774808Y-127318957D01*
X152857728Y-127519143D01*
X152900000Y-127731658D01*
X152900000Y-127948342D01*
X152857728Y-128160857D01*
X152823785Y-128242802D01*
X152774807Y-128361045D01*
X152715369Y-128450000D01*
X152656227Y-128538513D01*
X152654425Y-128541209D01*
X152501209Y-128694425D01*
X152321045Y-128814807D01*
X152321044Y-128814808D01*
X152321043Y-128814808D01*
X152120857Y-128897728D01*
X151908342Y-128940000D01*
X151691658Y-128940000D01*
X151479143Y-128897728D01*
X151278957Y-128814808D01*
X151278956Y-128814808D01*
X151278955Y-128814807D01*
X151098791Y-128694425D01*
X150945575Y-128541209D01*
X150943774Y-128538513D01*
X150884631Y-128450000D01*
X150825193Y-128361045D01*
X150776215Y-128242802D01*
X150742272Y-128160857D01*
X150700000Y-127948342D01*
X150700000Y-127731658D01*
X150742272Y-127519143D01*
X150825192Y-127318957D01*
X150945574Y-127138792D01*
X151098792Y-126985574D01*
X151188262Y-126925792D01*
X151278955Y-126865193D01*
X151298283Y-126857187D01*
X151479143Y-126782272D01*
X151691658Y-126740000D01*
X151908342Y-126740000D01*
X152120857Y-126782272D01*
X152120857Y-126782272D01*
G37*
G36*
X117786703Y-125461486D02*
G01*
X118077883Y-125582097D01*
X118339940Y-125757198D01*
X118562802Y-125980060D01*
X118737903Y-126242117D01*
X118858514Y-126533297D01*
X118920000Y-126842412D01*
X118920000Y-127157588D01*
X118858514Y-127466703D01*
X118737903Y-127757883D01*
X118562802Y-128019940D01*
X118339940Y-128242802D01*
X118077883Y-128417903D01*
X117786703Y-128538514D01*
X117477588Y-128600000D01*
X117162412Y-128600000D01*
X116853297Y-128538514D01*
X116562117Y-128417903D01*
X116300060Y-128242802D01*
X116077198Y-128019940D01*
X115902097Y-127757883D01*
X115781486Y-127466703D01*
X115720000Y-127157588D01*
X115720000Y-126842412D01*
X115781486Y-126533297D01*
X115902097Y-126242117D01*
X116077198Y-125980060D01*
X116300060Y-125757198D01*
X116562117Y-125582097D01*
X116853297Y-125461486D01*
X117162412Y-125400000D01*
X117477588Y-125400000D01*
X117786703Y-125461486D01*
X117786703Y-125461486D01*
G37*
G36*
X163181703Y-125461486D02*
G01*
X163472883Y-125582097D01*
X163734940Y-125757198D01*
X163957802Y-125980060D01*
X164132903Y-126242117D01*
X164253514Y-126533297D01*
X164315000Y-126842412D01*
X164315000Y-127157588D01*
X164253514Y-127466703D01*
X164132903Y-127757883D01*
X163957802Y-128019940D01*
X163734940Y-128242802D01*
X163472883Y-128417903D01*
X163181703Y-128538514D01*
X162872588Y-128600000D01*
X162557412Y-128600000D01*
X162248297Y-128538514D01*
X161957117Y-128417903D01*
X161695060Y-128242802D01*
X161472198Y-128019940D01*
X161297097Y-127757883D01*
X161176486Y-127466703D01*
X161115000Y-127157588D01*
X161115000Y-126842412D01*
X161176486Y-126533297D01*
X161297097Y-126242117D01*
X161472198Y-125980060D01*
X161695060Y-125757198D01*
X161957117Y-125582097D01*
X162248297Y-125461486D01*
X162557412Y-125400000D01*
X162872588Y-125400000D01*
X163181703Y-125461486D01*
X163181703Y-125461486D01*
G37*
G36*
X159872020Y-128452220D02*
G01*
X158471260Y-128452220D01*
X158471260Y-127452780D01*
X159872020Y-127452780D01*
X159872020Y-128452220D01*
X159872020Y-128452220D01*
G37*
G36*
X121563740Y-128452220D02*
G01*
X120162980Y-128452220D01*
X120162980Y-127452780D01*
X121563740Y-127452780D01*
X121563740Y-128452220D01*
X121563740Y-128452220D01*
G37*
G36*
X94402948Y-125605722D02*
G01*
X94666831Y-125715026D01*
X94666833Y-125715027D01*
X94904321Y-125873711D01*
X95106289Y-126075679D01*
X95239342Y-126274808D01*
X95264974Y-126313169D01*
X95374278Y-126577052D01*
X95430000Y-126857186D01*
X95430000Y-127142814D01*
X95374278Y-127422948D01*
X95264974Y-127686831D01*
X95264973Y-127686833D01*
X95106289Y-127924321D01*
X94904321Y-128126289D01*
X94666833Y-128284973D01*
X94666832Y-128284974D01*
X94666831Y-128284974D01*
X94402948Y-128394278D01*
X94122814Y-128450000D01*
X93837186Y-128450000D01*
X93557052Y-128394278D01*
X93293169Y-128284974D01*
X93293168Y-128284974D01*
X93293167Y-128284973D01*
X93055679Y-128126289D01*
X92853711Y-127924321D01*
X92695027Y-127686833D01*
X92695026Y-127686831D01*
X92585722Y-127422948D01*
X92530000Y-127142814D01*
X92530000Y-126857186D01*
X92585722Y-126577052D01*
X92695026Y-126313169D01*
X92720658Y-126274808D01*
X92853711Y-126075679D01*
X93055679Y-125873711D01*
X93293167Y-125715027D01*
X93293169Y-125715026D01*
X93557052Y-125605722D01*
X93837186Y-125550000D01*
X94122814Y-125550000D01*
X94402948Y-125605722D01*
X94402948Y-125605722D01*
G37*
G36*
X186477948Y-125605722D02*
G01*
X186741831Y-125715026D01*
X186741833Y-125715027D01*
X186979321Y-125873711D01*
X187181289Y-126075679D01*
X187314342Y-126274808D01*
X187339974Y-126313169D01*
X187449278Y-126577052D01*
X187505000Y-126857186D01*
X187505000Y-127142814D01*
X187449278Y-127422948D01*
X187339974Y-127686831D01*
X187339973Y-127686833D01*
X187181289Y-127924321D01*
X186979321Y-128126289D01*
X186741833Y-128284973D01*
X186741832Y-128284974D01*
X186741831Y-128284974D01*
X186477948Y-128394278D01*
X186197814Y-128450000D01*
X185912186Y-128450000D01*
X185632052Y-128394278D01*
X185368169Y-128284974D01*
X185368168Y-128284974D01*
X185368167Y-128284973D01*
X185130679Y-128126289D01*
X184928711Y-127924321D01*
X184770027Y-127686833D01*
X184770026Y-127686831D01*
X184660722Y-127422948D01*
X184605000Y-127142814D01*
X184605000Y-126857186D01*
X184660722Y-126577052D01*
X184770026Y-126313169D01*
X184795658Y-126274808D01*
X184928711Y-126075679D01*
X185130679Y-125873711D01*
X185368167Y-125715027D01*
X185368169Y-125715026D01*
X185632052Y-125605722D01*
X185912186Y-125550000D01*
X186197814Y-125550000D01*
X186477948Y-125605722D01*
X186477948Y-125605722D01*
G37*
G36*
X123677020Y-127499720D02*
G01*
X122276260Y-127499720D01*
X122276260Y-126500280D01*
X123677020Y-126500280D01*
X123677020Y-127499720D01*
X123677020Y-127499720D01*
G37*
G36*
X157758740Y-127499720D02*
G01*
X156357980Y-127499720D01*
X156357980Y-126500280D01*
X157758740Y-126500280D01*
X157758740Y-127499720D01*
X157758740Y-127499720D01*
G37*
G36*
X159872020Y-126547220D02*
G01*
X158471260Y-126547220D01*
X158471260Y-125547780D01*
X159872020Y-125547780D01*
X159872020Y-126547220D01*
X159872020Y-126547220D01*
G37*
G36*
X121563740Y-126547220D02*
G01*
X120162980Y-126547220D01*
X120162980Y-125547780D01*
X121563740Y-125547780D01*
X121563740Y-126547220D01*
X121563740Y-126547220D01*
G37*
G36*
X152120857Y-124242272D02*
G01*
X152301507Y-124317100D01*
X152321045Y-124325193D01*
X152411738Y-124385792D01*
X152501208Y-124445574D01*
X152654426Y-124598792D01*
X152774808Y-124778957D01*
X152857728Y-124979143D01*
X152900000Y-125191658D01*
X152900000Y-125408342D01*
X152857728Y-125620857D01*
X152801253Y-125757199D01*
X152774807Y-125821045D01*
X152714208Y-125911738D01*
X152668557Y-125980060D01*
X152654425Y-126001209D01*
X152501209Y-126154425D01*
X152321045Y-126274807D01*
X152321044Y-126274808D01*
X152321043Y-126274808D01*
X152120857Y-126357728D01*
X151908342Y-126400000D01*
X151691658Y-126400000D01*
X151479143Y-126357728D01*
X151278957Y-126274808D01*
X151278956Y-126274808D01*
X151278955Y-126274807D01*
X151098791Y-126154425D01*
X150945575Y-126001209D01*
X150931444Y-125980060D01*
X150885792Y-125911738D01*
X150825193Y-125821045D01*
X150798747Y-125757199D01*
X150742272Y-125620857D01*
X150700000Y-125408342D01*
X150700000Y-125191658D01*
X150742272Y-124979143D01*
X150825192Y-124778957D01*
X150945574Y-124598792D01*
X151098792Y-124445574D01*
X151188262Y-124385792D01*
X151278955Y-124325193D01*
X151298493Y-124317100D01*
X151479143Y-124242272D01*
X151691658Y-124200000D01*
X151908342Y-124200000D01*
X152120857Y-124242272D01*
X152120857Y-124242272D01*
G37*
G36*
X129260857Y-124242272D02*
G01*
X129441507Y-124317100D01*
X129461045Y-124325193D01*
X129551738Y-124385792D01*
X129641208Y-124445574D01*
X129794426Y-124598792D01*
X129914808Y-124778957D01*
X129997728Y-124979143D01*
X130040000Y-125191658D01*
X130040000Y-125408342D01*
X129997728Y-125620857D01*
X129941253Y-125757199D01*
X129914807Y-125821045D01*
X129854208Y-125911738D01*
X129808557Y-125980060D01*
X129794425Y-126001209D01*
X129641209Y-126154425D01*
X129461045Y-126274807D01*
X129461044Y-126274808D01*
X129461043Y-126274808D01*
X129260857Y-126357728D01*
X129048342Y-126400000D01*
X128831658Y-126400000D01*
X128619143Y-126357728D01*
X128418957Y-126274808D01*
X128418956Y-126274808D01*
X128418955Y-126274807D01*
X128238791Y-126154425D01*
X128085575Y-126001209D01*
X128071444Y-125980060D01*
X128025792Y-125911738D01*
X127965193Y-125821045D01*
X127938747Y-125757199D01*
X127882272Y-125620857D01*
X127840000Y-125408342D01*
X127840000Y-125191658D01*
X127882272Y-124979143D01*
X127965192Y-124778957D01*
X128085574Y-124598792D01*
X128238792Y-124445574D01*
X128328262Y-124385792D01*
X128418955Y-124325193D01*
X128438493Y-124317100D01*
X128619143Y-124242272D01*
X128831658Y-124200000D01*
X129048342Y-124200000D01*
X129260857Y-124242272D01*
X129260857Y-124242272D01*
G37*
G36*
X123021700Y-124317100D02*
G01*
X120818300Y-124317100D01*
X120818300Y-122316900D01*
X123021700Y-122316900D01*
X123021700Y-124317100D01*
X123021700Y-124317100D01*
G37*
G36*
X158101700Y-124317100D02*
G01*
X155898300Y-124317100D01*
X155898300Y-122316900D01*
X158101700Y-122316900D01*
X158101700Y-124317100D01*
X158101700Y-124317100D01*
G37*
G36*
X129260857Y-121702272D02*
G01*
X129441717Y-121777187D01*
X129461045Y-121785193D01*
X129526159Y-121828701D01*
X129641208Y-121905574D01*
X129794426Y-122058792D01*
X129914808Y-122238957D01*
X129997728Y-122439143D01*
X130040000Y-122651658D01*
X130040000Y-122868342D01*
X129997728Y-123080857D01*
X129946317Y-123204973D01*
X129914807Y-123281045D01*
X129794425Y-123461209D01*
X129641209Y-123614425D01*
X129461045Y-123734807D01*
X129461044Y-123734808D01*
X129461043Y-123734808D01*
X129260857Y-123817728D01*
X129048342Y-123860000D01*
X128831658Y-123860000D01*
X128619143Y-123817728D01*
X128418957Y-123734808D01*
X128418956Y-123734808D01*
X128418955Y-123734807D01*
X128238791Y-123614425D01*
X128085575Y-123461209D01*
X127965193Y-123281045D01*
X127933683Y-123204973D01*
X127882272Y-123080857D01*
X127840000Y-122868342D01*
X127840000Y-122651658D01*
X127882272Y-122439143D01*
X127965192Y-122238957D01*
X128085574Y-122058792D01*
X128238792Y-121905574D01*
X128353841Y-121828701D01*
X128418955Y-121785193D01*
X128438283Y-121777187D01*
X128619143Y-121702272D01*
X128831658Y-121660000D01*
X129048342Y-121660000D01*
X129260857Y-121702272D01*
X129260857Y-121702272D01*
G37*
G36*
X152120857Y-121702272D02*
G01*
X152301717Y-121777187D01*
X152321045Y-121785193D01*
X152386159Y-121828701D01*
X152501208Y-121905574D01*
X152654426Y-122058792D01*
X152774808Y-122238957D01*
X152857728Y-122439143D01*
X152900000Y-122651658D01*
X152900000Y-122868342D01*
X152857728Y-123080857D01*
X152806317Y-123204973D01*
X152774807Y-123281045D01*
X152654425Y-123461209D01*
X152501209Y-123614425D01*
X152321045Y-123734807D01*
X152321044Y-123734808D01*
X152321043Y-123734808D01*
X152120857Y-123817728D01*
X151908342Y-123860000D01*
X151691658Y-123860000D01*
X151479143Y-123817728D01*
X151278957Y-123734808D01*
X151278956Y-123734808D01*
X151278955Y-123734807D01*
X151098791Y-123614425D01*
X150945575Y-123461209D01*
X150825193Y-123281045D01*
X150793683Y-123204973D01*
X150742272Y-123080857D01*
X150700000Y-122868342D01*
X150700000Y-122651658D01*
X150742272Y-122439143D01*
X150825192Y-122238957D01*
X150945574Y-122058792D01*
X151098792Y-121905574D01*
X151213841Y-121828701D01*
X151278955Y-121785193D01*
X151298283Y-121777187D01*
X151479143Y-121702272D01*
X151691658Y-121660000D01*
X151908342Y-121660000D01*
X152120857Y-121702272D01*
X152120857Y-121702272D01*
G37*
G36*
X186477948Y-120525722D02*
G01*
X186707496Y-120620804D01*
X186741833Y-120635027D01*
X186979321Y-120793711D01*
X187181289Y-120995679D01*
X187314342Y-121194808D01*
X187339974Y-121233169D01*
X187449278Y-121497052D01*
X187505000Y-121777186D01*
X187505000Y-122062814D01*
X187449278Y-122342948D01*
X187408101Y-122442357D01*
X187339973Y-122606833D01*
X187181289Y-122844321D01*
X186979321Y-123046289D01*
X186741833Y-123204973D01*
X186741832Y-123204974D01*
X186741831Y-123204974D01*
X186477948Y-123314278D01*
X186197814Y-123370000D01*
X185912186Y-123370000D01*
X185632052Y-123314278D01*
X185368169Y-123204974D01*
X185368168Y-123204974D01*
X185368167Y-123204973D01*
X185130679Y-123046289D01*
X184928711Y-122844321D01*
X184770027Y-122606833D01*
X184701899Y-122442357D01*
X184660722Y-122342948D01*
X184605000Y-122062814D01*
X184605000Y-121777186D01*
X184660722Y-121497052D01*
X184770026Y-121233169D01*
X184795658Y-121194808D01*
X184928711Y-120995679D01*
X185130679Y-120793711D01*
X185368167Y-120635027D01*
X185402504Y-120620804D01*
X185632052Y-120525722D01*
X185912186Y-120470000D01*
X186197814Y-120470000D01*
X186477948Y-120525722D01*
X186477948Y-120525722D01*
G37*
G36*
X94402948Y-120525722D02*
G01*
X94632496Y-120620804D01*
X94666833Y-120635027D01*
X94904321Y-120793711D01*
X95106289Y-120995679D01*
X95239342Y-121194808D01*
X95264974Y-121233169D01*
X95374278Y-121497052D01*
X95430000Y-121777186D01*
X95430000Y-122062814D01*
X95374278Y-122342948D01*
X95333101Y-122442357D01*
X95264973Y-122606833D01*
X95106289Y-122844321D01*
X94904321Y-123046289D01*
X94666833Y-123204973D01*
X94666832Y-123204974D01*
X94666831Y-123204974D01*
X94402948Y-123314278D01*
X94122814Y-123370000D01*
X93837186Y-123370000D01*
X93557052Y-123314278D01*
X93293169Y-123204974D01*
X93293168Y-123204974D01*
X93293167Y-123204973D01*
X93055679Y-123046289D01*
X92853711Y-122844321D01*
X92695027Y-122606833D01*
X92626899Y-122442357D01*
X92585722Y-122342948D01*
X92530000Y-122062814D01*
X92530000Y-121777186D01*
X92585722Y-121497052D01*
X92695026Y-121233169D01*
X92720658Y-121194808D01*
X92853711Y-120995679D01*
X93055679Y-120793711D01*
X93293167Y-120635027D01*
X93327504Y-120620804D01*
X93557052Y-120525722D01*
X93837186Y-120470000D01*
X94122814Y-120470000D01*
X94402948Y-120525722D01*
X94402948Y-120525722D01*
G37*
G36*
X103557534Y-116317643D02*
G01*
X103797527Y-116417052D01*
X103830517Y-116430717D01*
X104076194Y-116594874D01*
X104285126Y-116803806D01*
X104402049Y-116978792D01*
X104449284Y-117049485D01*
X104562357Y-117322466D01*
X104620000Y-117612262D01*
X104620000Y-117907738D01*
X104562357Y-118197534D01*
X104449284Y-118470515D01*
X104449283Y-118470517D01*
X104285126Y-118716194D01*
X104076194Y-118925126D01*
X103830517Y-119089283D01*
X103830516Y-119089284D01*
X103830515Y-119089284D01*
X103557534Y-119202357D01*
X103280794Y-119257403D01*
X103257345Y-119264516D01*
X103235735Y-119276067D01*
X103216793Y-119291612D01*
X103201247Y-119310554D01*
X103189696Y-119332165D01*
X103182583Y-119355614D01*
X103180181Y-119380000D01*
X103182583Y-119404386D01*
X103189696Y-119427835D01*
X103201247Y-119449445D01*
X103216792Y-119468387D01*
X103235734Y-119483933D01*
X103257345Y-119495484D01*
X103280794Y-119502597D01*
X103557534Y-119557643D01*
X103830515Y-119670716D01*
X103830517Y-119670717D01*
X103872778Y-119698955D01*
X104076193Y-119834873D01*
X104285127Y-120043807D01*
X104449284Y-120289485D01*
X104562357Y-120562466D01*
X104620000Y-120852262D01*
X104620000Y-121147738D01*
X104562357Y-121437534D01*
X104449284Y-121710515D01*
X104318950Y-121905574D01*
X104285126Y-121956194D01*
X104076194Y-122165126D01*
X103830517Y-122329283D01*
X103830516Y-122329284D01*
X103830515Y-122329284D01*
X103557534Y-122442357D01*
X103267738Y-122500000D01*
X102972262Y-122500000D01*
X102682466Y-122442357D01*
X102409485Y-122329284D01*
X102409484Y-122329284D01*
X102409483Y-122329283D01*
X102163806Y-122165126D01*
X101954874Y-121956194D01*
X101921051Y-121905574D01*
X101790716Y-121710515D01*
X101677643Y-121437534D01*
X101620000Y-121147738D01*
X101620000Y-120852262D01*
X101677643Y-120562466D01*
X101790716Y-120289485D01*
X101954873Y-120043807D01*
X102163807Y-119834873D01*
X102367222Y-119698955D01*
X102409483Y-119670717D01*
X102409485Y-119670716D01*
X102682466Y-119557643D01*
X102959206Y-119502597D01*
X102982655Y-119495484D01*
X103004265Y-119483933D01*
X103023207Y-119468388D01*
X103038753Y-119449446D01*
X103050304Y-119427835D01*
X103057417Y-119404386D01*
X103059819Y-119380000D01*
X103057417Y-119355614D01*
X103050304Y-119332165D01*
X103038753Y-119310555D01*
X103023208Y-119291613D01*
X103004266Y-119276067D01*
X102982655Y-119264516D01*
X102959206Y-119257403D01*
X102682466Y-119202357D01*
X102409485Y-119089284D01*
X102409484Y-119089284D01*
X102409483Y-119089283D01*
X102163806Y-118925126D01*
X101954874Y-118716194D01*
X101790717Y-118470517D01*
X101790716Y-118470515D01*
X101677643Y-118197534D01*
X101620000Y-117907738D01*
X101620000Y-117612262D01*
X101677643Y-117322466D01*
X101790716Y-117049485D01*
X101837952Y-116978792D01*
X101954874Y-116803806D01*
X102163806Y-116594874D01*
X102409483Y-116430717D01*
X102442473Y-116417052D01*
X102682466Y-116317643D01*
X102972262Y-116260000D01*
X103267738Y-116260000D01*
X103557534Y-116317643D01*
X103557534Y-116317643D01*
G37*
G36*
X177352534Y-116317643D02*
G01*
X177592527Y-116417052D01*
X177625517Y-116430717D01*
X177871194Y-116594874D01*
X178080126Y-116803806D01*
X178197049Y-116978792D01*
X178244284Y-117049485D01*
X178357357Y-117322466D01*
X178415000Y-117612262D01*
X178415000Y-117907738D01*
X178357357Y-118197534D01*
X178244284Y-118470515D01*
X178244283Y-118470517D01*
X178080126Y-118716194D01*
X177871194Y-118925126D01*
X177625517Y-119089283D01*
X177625516Y-119089284D01*
X177625515Y-119089284D01*
X177352534Y-119202357D01*
X177075794Y-119257403D01*
X177052345Y-119264516D01*
X177030735Y-119276067D01*
X177011793Y-119291612D01*
X176996247Y-119310554D01*
X176984696Y-119332165D01*
X176977583Y-119355614D01*
X176975181Y-119380000D01*
X176977583Y-119404386D01*
X176984696Y-119427835D01*
X176996247Y-119449445D01*
X177011792Y-119468387D01*
X177030734Y-119483933D01*
X177052345Y-119495484D01*
X177075794Y-119502597D01*
X177352534Y-119557643D01*
X177625515Y-119670716D01*
X177625517Y-119670717D01*
X177667778Y-119698955D01*
X177871193Y-119834873D01*
X178080127Y-120043807D01*
X178244284Y-120289485D01*
X178357357Y-120562466D01*
X178415000Y-120852262D01*
X178415000Y-121147738D01*
X178357357Y-121437534D01*
X178244284Y-121710515D01*
X178113950Y-121905574D01*
X178080126Y-121956194D01*
X177871194Y-122165126D01*
X177625517Y-122329283D01*
X177625516Y-122329284D01*
X177625515Y-122329284D01*
X177352534Y-122442357D01*
X177062738Y-122500000D01*
X176767262Y-122500000D01*
X176477466Y-122442357D01*
X176204485Y-122329284D01*
X176204484Y-122329284D01*
X176204483Y-122329283D01*
X175958806Y-122165126D01*
X175749874Y-121956194D01*
X175716051Y-121905574D01*
X175585716Y-121710515D01*
X175472643Y-121437534D01*
X175415000Y-121147738D01*
X175415000Y-120852262D01*
X175472643Y-120562466D01*
X175585716Y-120289485D01*
X175749873Y-120043807D01*
X175958807Y-119834873D01*
X176162222Y-119698955D01*
X176204483Y-119670717D01*
X176204485Y-119670716D01*
X176477466Y-119557643D01*
X176754206Y-119502597D01*
X176777655Y-119495484D01*
X176799265Y-119483933D01*
X176818207Y-119468388D01*
X176833753Y-119449446D01*
X176845304Y-119427835D01*
X176852417Y-119404386D01*
X176854819Y-119380000D01*
X176852417Y-119355614D01*
X176845304Y-119332165D01*
X176833753Y-119310555D01*
X176818208Y-119291613D01*
X176799266Y-119276067D01*
X176777655Y-119264516D01*
X176754206Y-119257403D01*
X176477466Y-119202357D01*
X176204485Y-119089284D01*
X176204484Y-119089284D01*
X176204483Y-119089283D01*
X175958806Y-118925126D01*
X175749874Y-118716194D01*
X175585717Y-118470517D01*
X175585716Y-118470515D01*
X175472643Y-118197534D01*
X175415000Y-117907738D01*
X175415000Y-117612262D01*
X175472643Y-117322466D01*
X175585716Y-117049485D01*
X175632952Y-116978792D01*
X175749874Y-116803806D01*
X175958806Y-116594874D01*
X176204483Y-116430717D01*
X176237473Y-116417052D01*
X176477466Y-116317643D01*
X176767262Y-116260000D01*
X177062738Y-116260000D01*
X177352534Y-116317643D01*
X177352534Y-116317643D01*
G37*
G36*
X165094196Y-119749958D02*
G01*
X165261486Y-119819252D01*
X165299199Y-119834873D01*
X165330781Y-119847955D01*
X165543702Y-119990224D01*
X165724776Y-120171298D01*
X165867045Y-120384219D01*
X165965042Y-120620804D01*
X166015000Y-120871961D01*
X166015000Y-121128039D01*
X165965042Y-121379196D01*
X165867045Y-121615781D01*
X165724776Y-121828702D01*
X165543702Y-122009776D01*
X165330781Y-122152045D01*
X165330780Y-122152046D01*
X165330779Y-122152046D01*
X165261486Y-122180748D01*
X165094196Y-122250042D01*
X164843040Y-122300000D01*
X164586960Y-122300000D01*
X164335804Y-122250042D01*
X164168514Y-122180748D01*
X164099221Y-122152046D01*
X164099220Y-122152046D01*
X164099219Y-122152045D01*
X163886298Y-122009776D01*
X163705224Y-121828702D01*
X163562955Y-121615781D01*
X163464958Y-121379196D01*
X163415000Y-121128039D01*
X163415000Y-120871961D01*
X163464958Y-120620804D01*
X163562955Y-120384219D01*
X163705224Y-120171298D01*
X163886298Y-119990224D01*
X164099219Y-119847955D01*
X164130802Y-119834873D01*
X164168514Y-119819252D01*
X164335804Y-119749958D01*
X164586960Y-119700000D01*
X164843040Y-119700000D01*
X165094196Y-119749958D01*
X165094196Y-119749958D01*
G37*
G36*
X115699196Y-119749958D02*
G01*
X115866486Y-119819252D01*
X115904199Y-119834873D01*
X115935781Y-119847955D01*
X116148702Y-119990224D01*
X116329776Y-120171298D01*
X116472045Y-120384219D01*
X116570042Y-120620804D01*
X116620000Y-120871961D01*
X116620000Y-121128039D01*
X116570042Y-121379196D01*
X116472045Y-121615781D01*
X116329776Y-121828702D01*
X116148702Y-122009776D01*
X115935781Y-122152045D01*
X115935780Y-122152046D01*
X115935779Y-122152046D01*
X115866486Y-122180748D01*
X115699196Y-122250042D01*
X115448040Y-122300000D01*
X115191960Y-122300000D01*
X114940804Y-122250042D01*
X114773514Y-122180748D01*
X114704221Y-122152046D01*
X114704220Y-122152046D01*
X114704219Y-122152045D01*
X114491298Y-122009776D01*
X114310224Y-121828702D01*
X114167955Y-121615781D01*
X114069958Y-121379196D01*
X114020000Y-121128039D01*
X114020000Y-120871961D01*
X114069958Y-120620804D01*
X114167955Y-120384219D01*
X114310224Y-120171298D01*
X114491298Y-119990224D01*
X114704219Y-119847955D01*
X114735802Y-119834873D01*
X114773514Y-119819252D01*
X114940804Y-119749958D01*
X115191960Y-119700000D01*
X115448040Y-119700000D01*
X115699196Y-119749958D01*
X115699196Y-119749958D01*
G37*
G36*
X158101700Y-121523100D02*
G01*
X155898300Y-121523100D01*
X155898300Y-119522900D01*
X158101700Y-119522900D01*
X158101700Y-121523100D01*
X158101700Y-121523100D01*
G37*
G36*
X123021700Y-121523100D02*
G01*
X120818300Y-121523100D01*
X120818300Y-119522900D01*
X123021700Y-119522900D01*
X123021700Y-121523100D01*
X123021700Y-121523100D01*
G37*
G36*
X129260857Y-119162272D02*
G01*
X129357630Y-119202357D01*
X129461045Y-119245193D01*
X129483205Y-119260000D01*
X129641208Y-119365574D01*
X129794426Y-119518792D01*
X129914808Y-119698957D01*
X129997728Y-119899143D01*
X130040000Y-120111658D01*
X130040000Y-120328342D01*
X129997728Y-120540857D01*
X129958721Y-120635027D01*
X129914807Y-120741045D01*
X129794425Y-120921209D01*
X129641209Y-121074425D01*
X129461045Y-121194807D01*
X129461044Y-121194808D01*
X129461043Y-121194808D01*
X129260857Y-121277728D01*
X129048342Y-121320000D01*
X128831658Y-121320000D01*
X128619143Y-121277728D01*
X128418957Y-121194808D01*
X128418956Y-121194808D01*
X128418955Y-121194807D01*
X128238791Y-121074425D01*
X128085575Y-120921209D01*
X127965193Y-120741045D01*
X127921279Y-120635027D01*
X127882272Y-120540857D01*
X127840000Y-120328342D01*
X127840000Y-120111658D01*
X127882272Y-119899143D01*
X127965192Y-119698957D01*
X128085574Y-119518792D01*
X128238792Y-119365574D01*
X128396795Y-119260000D01*
X128418955Y-119245193D01*
X128522370Y-119202357D01*
X128619143Y-119162272D01*
X128831658Y-119120000D01*
X129048342Y-119120000D01*
X129260857Y-119162272D01*
X129260857Y-119162272D01*
G37*
G36*
X152120857Y-119162272D02*
G01*
X152217630Y-119202357D01*
X152321045Y-119245193D01*
X152343205Y-119260000D01*
X152501208Y-119365574D01*
X152654426Y-119518792D01*
X152774808Y-119698957D01*
X152857728Y-119899143D01*
X152900000Y-120111658D01*
X152900000Y-120328342D01*
X152857728Y-120540857D01*
X152818721Y-120635027D01*
X152774807Y-120741045D01*
X152654425Y-120921209D01*
X152501209Y-121074425D01*
X152321045Y-121194807D01*
X152321044Y-121194808D01*
X152321043Y-121194808D01*
X152120857Y-121277728D01*
X151908342Y-121320000D01*
X151691658Y-121320000D01*
X151479143Y-121277728D01*
X151278957Y-121194808D01*
X151278956Y-121194808D01*
X151278955Y-121194807D01*
X151098791Y-121074425D01*
X150945575Y-120921209D01*
X150825193Y-120741045D01*
X150781279Y-120635027D01*
X150742272Y-120540857D01*
X150700000Y-120328342D01*
X150700000Y-120111658D01*
X150742272Y-119899143D01*
X150825192Y-119698957D01*
X150945574Y-119518792D01*
X151098792Y-119365574D01*
X151256795Y-119260000D01*
X151278955Y-119245193D01*
X151382370Y-119202357D01*
X151479143Y-119162272D01*
X151691658Y-119120000D01*
X151908342Y-119120000D01*
X152120857Y-119162272D01*
X152120857Y-119162272D01*
G37*
G36*
X165094196Y-116509958D02*
G01*
X165261486Y-116579252D01*
X165299199Y-116594873D01*
X165330781Y-116607955D01*
X165543702Y-116750224D01*
X165724776Y-116931298D01*
X165867045Y-117144219D01*
X165965042Y-117380804D01*
X166015000Y-117631961D01*
X166015000Y-117888039D01*
X165965042Y-118139196D01*
X165867045Y-118375781D01*
X165724776Y-118588702D01*
X165543702Y-118769776D01*
X165330781Y-118912045D01*
X165330780Y-118912046D01*
X165330779Y-118912046D01*
X165261486Y-118940748D01*
X165094196Y-119010042D01*
X164843040Y-119060000D01*
X164586960Y-119060000D01*
X164335804Y-119010042D01*
X164168514Y-118940748D01*
X164099221Y-118912046D01*
X164099220Y-118912046D01*
X164099219Y-118912045D01*
X163886298Y-118769776D01*
X163705224Y-118588702D01*
X163562955Y-118375781D01*
X163464958Y-118139196D01*
X163415000Y-117888039D01*
X163415000Y-117631961D01*
X163464958Y-117380804D01*
X163562955Y-117144219D01*
X163705224Y-116931298D01*
X163886298Y-116750224D01*
X164099219Y-116607955D01*
X164130802Y-116594873D01*
X164168514Y-116579252D01*
X164335804Y-116509958D01*
X164586960Y-116460000D01*
X164843040Y-116460000D01*
X165094196Y-116509958D01*
X165094196Y-116509958D01*
G37*
G36*
X115699196Y-116509958D02*
G01*
X115866486Y-116579252D01*
X115904199Y-116594873D01*
X115935781Y-116607955D01*
X116148702Y-116750224D01*
X116329776Y-116931298D01*
X116472045Y-117144219D01*
X116570042Y-117380804D01*
X116620000Y-117631961D01*
X116620000Y-117888039D01*
X116570042Y-118139196D01*
X116472045Y-118375781D01*
X116329776Y-118588702D01*
X116148702Y-118769776D01*
X115935781Y-118912045D01*
X115935780Y-118912046D01*
X115935779Y-118912046D01*
X115866486Y-118940748D01*
X115699196Y-119010042D01*
X115448040Y-119060000D01*
X115191960Y-119060000D01*
X114940804Y-119010042D01*
X114773514Y-118940748D01*
X114704221Y-118912046D01*
X114704220Y-118912046D01*
X114704219Y-118912045D01*
X114491298Y-118769776D01*
X114310224Y-118588702D01*
X114167955Y-118375781D01*
X114069958Y-118139196D01*
X114020000Y-117888039D01*
X114020000Y-117631961D01*
X114069958Y-117380804D01*
X114167955Y-117144219D01*
X114310224Y-116931298D01*
X114491298Y-116750224D01*
X114704219Y-116607955D01*
X114735802Y-116594873D01*
X114773514Y-116579252D01*
X114940804Y-116509958D01*
X115191960Y-116460000D01*
X115448040Y-116460000D01*
X115699196Y-116509958D01*
X115699196Y-116509958D01*
G37*
G36*
X152120857Y-116622272D02*
G01*
X152301717Y-116697187D01*
X152321045Y-116705193D01*
X152411738Y-116765792D01*
X152501208Y-116825574D01*
X152654426Y-116978792D01*
X152657113Y-116982814D01*
X152764961Y-117144219D01*
X152774808Y-117158957D01*
X152857728Y-117359143D01*
X152900000Y-117571658D01*
X152900000Y-117788342D01*
X152857728Y-118000857D01*
X152774808Y-118201043D01*
X152658054Y-118375779D01*
X152654425Y-118381209D01*
X152501209Y-118534425D01*
X152321045Y-118654807D01*
X152321044Y-118654808D01*
X152321043Y-118654808D01*
X152120857Y-118737728D01*
X151908342Y-118780000D01*
X151691658Y-118780000D01*
X151479143Y-118737728D01*
X151278957Y-118654808D01*
X151278956Y-118654808D01*
X151278955Y-118654807D01*
X151098791Y-118534425D01*
X150945575Y-118381209D01*
X150941947Y-118375779D01*
X150825192Y-118201043D01*
X150742272Y-118000857D01*
X150700000Y-117788342D01*
X150700000Y-117571658D01*
X150742272Y-117359143D01*
X150825192Y-117158957D01*
X150835040Y-117144219D01*
X150942887Y-116982814D01*
X150945574Y-116978792D01*
X151098792Y-116825574D01*
X151188262Y-116765792D01*
X151278955Y-116705193D01*
X151298283Y-116697187D01*
X151479143Y-116622272D01*
X151691658Y-116580000D01*
X151908342Y-116580000D01*
X152120857Y-116622272D01*
X152120857Y-116622272D01*
G37*
G36*
X129260857Y-116622272D02*
G01*
X129441717Y-116697187D01*
X129461045Y-116705193D01*
X129551738Y-116765792D01*
X129641208Y-116825574D01*
X129794426Y-116978792D01*
X129797113Y-116982814D01*
X129904961Y-117144219D01*
X129914808Y-117158957D01*
X129997728Y-117359143D01*
X130040000Y-117571658D01*
X130040000Y-117788342D01*
X129997728Y-118000857D01*
X129914808Y-118201043D01*
X129798054Y-118375779D01*
X129794425Y-118381209D01*
X129641209Y-118534425D01*
X129461045Y-118654807D01*
X129461044Y-118654808D01*
X129461043Y-118654808D01*
X129260857Y-118737728D01*
X129048342Y-118780000D01*
X128831658Y-118780000D01*
X128619143Y-118737728D01*
X128418957Y-118654808D01*
X128418956Y-118654808D01*
X128418955Y-118654807D01*
X128238791Y-118534425D01*
X128085575Y-118381209D01*
X128081947Y-118375779D01*
X127965192Y-118201043D01*
X127882272Y-118000857D01*
X127840000Y-117788342D01*
X127840000Y-117571658D01*
X127882272Y-117359143D01*
X127965192Y-117158957D01*
X127975040Y-117144219D01*
X128082887Y-116982814D01*
X128085574Y-116978792D01*
X128238792Y-116825574D01*
X128328262Y-116765792D01*
X128418955Y-116705193D01*
X128438283Y-116697187D01*
X128619143Y-116622272D01*
X128831658Y-116580000D01*
X129048342Y-116580000D01*
X129260857Y-116622272D01*
X129260857Y-116622272D01*
G37*
G36*
X94402948Y-115445722D02*
G01*
X94666831Y-115555026D01*
X94666833Y-115555027D01*
X94904321Y-115713711D01*
X95106289Y-115915679D01*
X95239342Y-116114808D01*
X95264974Y-116153169D01*
X95374278Y-116417052D01*
X95430000Y-116697186D01*
X95430000Y-116982814D01*
X95374278Y-117262948D01*
X95325460Y-117380804D01*
X95264973Y-117526833D01*
X95106289Y-117764321D01*
X94904321Y-117966289D01*
X94666833Y-118124973D01*
X94666832Y-118124974D01*
X94666831Y-118124974D01*
X94402948Y-118234278D01*
X94122814Y-118290000D01*
X93837186Y-118290000D01*
X93557052Y-118234278D01*
X93293169Y-118124974D01*
X93293168Y-118124974D01*
X93293167Y-118124973D01*
X93055679Y-117966289D01*
X92853711Y-117764321D01*
X92695027Y-117526833D01*
X92634540Y-117380804D01*
X92585722Y-117262948D01*
X92530000Y-116982814D01*
X92530000Y-116697186D01*
X92585722Y-116417052D01*
X92695026Y-116153169D01*
X92720658Y-116114808D01*
X92853711Y-115915679D01*
X93055679Y-115713711D01*
X93293167Y-115555027D01*
X93293169Y-115555026D01*
X93557052Y-115445722D01*
X93837186Y-115390000D01*
X94122814Y-115390000D01*
X94402948Y-115445722D01*
X94402948Y-115445722D01*
G37*
G36*
X186477948Y-115445722D02*
G01*
X186741831Y-115555026D01*
X186741833Y-115555027D01*
X186979321Y-115713711D01*
X187181289Y-115915679D01*
X187314342Y-116114808D01*
X187339974Y-116153169D01*
X187449278Y-116417052D01*
X187505000Y-116697186D01*
X187505000Y-116982814D01*
X187449278Y-117262948D01*
X187400460Y-117380804D01*
X187339973Y-117526833D01*
X187181289Y-117764321D01*
X186979321Y-117966289D01*
X186741833Y-118124973D01*
X186741832Y-118124974D01*
X186741831Y-118124974D01*
X186477948Y-118234278D01*
X186197814Y-118290000D01*
X185912186Y-118290000D01*
X185632052Y-118234278D01*
X185368169Y-118124974D01*
X185368168Y-118124974D01*
X185368167Y-118124973D01*
X185130679Y-117966289D01*
X184928711Y-117764321D01*
X184770027Y-117526833D01*
X184709540Y-117380804D01*
X184660722Y-117262948D01*
X184605000Y-116982814D01*
X184605000Y-116697186D01*
X184660722Y-116417052D01*
X184770026Y-116153169D01*
X184795658Y-116114808D01*
X184928711Y-115915679D01*
X185130679Y-115713711D01*
X185368167Y-115555027D01*
X185368169Y-115555026D01*
X185632052Y-115445722D01*
X185912186Y-115390000D01*
X186197814Y-115390000D01*
X186477948Y-115445722D01*
X186477948Y-115445722D01*
G37*
G36*
X129260857Y-114082272D02*
G01*
X129461043Y-114165192D01*
X129461045Y-114165193D01*
X129551738Y-114225792D01*
X129641208Y-114285574D01*
X129794426Y-114438792D01*
X129914808Y-114618957D01*
X129997728Y-114819143D01*
X130040000Y-115031658D01*
X130040000Y-115248342D01*
X129997728Y-115460857D01*
X129958721Y-115555027D01*
X129914807Y-115661045D01*
X129794425Y-115841209D01*
X129641209Y-115994425D01*
X129461045Y-116114807D01*
X129461044Y-116114808D01*
X129461043Y-116114808D01*
X129260857Y-116197728D01*
X129048342Y-116240000D01*
X128831658Y-116240000D01*
X128619143Y-116197728D01*
X128418957Y-116114808D01*
X128418956Y-116114808D01*
X128418955Y-116114807D01*
X128238791Y-115994425D01*
X128085575Y-115841209D01*
X127965193Y-115661045D01*
X127921279Y-115555027D01*
X127882272Y-115460857D01*
X127840000Y-115248342D01*
X127840000Y-115031658D01*
X127882272Y-114819143D01*
X127965192Y-114618957D01*
X128085574Y-114438792D01*
X128238792Y-114285574D01*
X128328262Y-114225792D01*
X128418955Y-114165193D01*
X128418957Y-114165192D01*
X128619143Y-114082272D01*
X128831658Y-114040000D01*
X129048342Y-114040000D01*
X129260857Y-114082272D01*
X129260857Y-114082272D01*
G37*
G36*
X152120857Y-114082272D02*
G01*
X152321043Y-114165192D01*
X152321045Y-114165193D01*
X152411738Y-114225792D01*
X152501208Y-114285574D01*
X152654426Y-114438792D01*
X152774808Y-114618957D01*
X152857728Y-114819143D01*
X152900000Y-115031658D01*
X152900000Y-115248342D01*
X152857728Y-115460857D01*
X152818721Y-115555027D01*
X152774807Y-115661045D01*
X152654425Y-115841209D01*
X152501209Y-115994425D01*
X152321045Y-116114807D01*
X152321044Y-116114808D01*
X152321043Y-116114808D01*
X152120857Y-116197728D01*
X151908342Y-116240000D01*
X151691658Y-116240000D01*
X151479143Y-116197728D01*
X151278957Y-116114808D01*
X151278956Y-116114808D01*
X151278955Y-116114807D01*
X151098791Y-115994425D01*
X150945575Y-115841209D01*
X150825193Y-115661045D01*
X150781279Y-115555027D01*
X150742272Y-115460857D01*
X150700000Y-115248342D01*
X150700000Y-115031658D01*
X150742272Y-114819143D01*
X150825192Y-114618957D01*
X150945574Y-114438792D01*
X151098792Y-114285574D01*
X151188262Y-114225792D01*
X151278955Y-114165193D01*
X151278957Y-114165192D01*
X151479143Y-114082272D01*
X151691658Y-114040000D01*
X151908342Y-114040000D01*
X152120857Y-114082272D01*
X152120857Y-114082272D01*
G37*
G36*
X152120857Y-111542272D02*
G01*
X152301717Y-111617187D01*
X152321045Y-111625193D01*
X152411738Y-111685792D01*
X152501208Y-111745574D01*
X152654426Y-111898792D01*
X152774808Y-112078957D01*
X152857728Y-112279143D01*
X152900000Y-112491658D01*
X152900000Y-112708342D01*
X152857728Y-112920857D01*
X152823785Y-113002802D01*
X152774807Y-113121045D01*
X152715369Y-113210000D01*
X152656227Y-113298513D01*
X152654425Y-113301209D01*
X152501209Y-113454425D01*
X152321045Y-113574807D01*
X152321044Y-113574808D01*
X152321043Y-113574808D01*
X152120857Y-113657728D01*
X151908342Y-113700000D01*
X151691658Y-113700000D01*
X151479143Y-113657728D01*
X151278957Y-113574808D01*
X151278956Y-113574808D01*
X151278955Y-113574807D01*
X151098791Y-113454425D01*
X150945575Y-113301209D01*
X150943774Y-113298513D01*
X150884631Y-113210000D01*
X150825193Y-113121045D01*
X150776215Y-113002802D01*
X150742272Y-112920857D01*
X150700000Y-112708342D01*
X150700000Y-112491658D01*
X150742272Y-112279143D01*
X150825192Y-112078957D01*
X150945574Y-111898792D01*
X151098792Y-111745574D01*
X151188262Y-111685792D01*
X151278955Y-111625193D01*
X151298283Y-111617187D01*
X151479143Y-111542272D01*
X151691658Y-111500000D01*
X151908342Y-111500000D01*
X152120857Y-111542272D01*
X152120857Y-111542272D01*
G37*
G36*
X129260857Y-111542272D02*
G01*
X129441717Y-111617187D01*
X129461045Y-111625193D01*
X129551738Y-111685792D01*
X129641208Y-111745574D01*
X129794426Y-111898792D01*
X129914808Y-112078957D01*
X129997728Y-112279143D01*
X130040000Y-112491658D01*
X130040000Y-112708342D01*
X129997728Y-112920857D01*
X129963785Y-113002802D01*
X129914807Y-113121045D01*
X129855369Y-113210000D01*
X129796227Y-113298513D01*
X129794425Y-113301209D01*
X129641209Y-113454425D01*
X129461045Y-113574807D01*
X129461044Y-113574808D01*
X129461043Y-113574808D01*
X129260857Y-113657728D01*
X129048342Y-113700000D01*
X128831658Y-113700000D01*
X128619143Y-113657728D01*
X128418957Y-113574808D01*
X128418956Y-113574808D01*
X128418955Y-113574807D01*
X128238791Y-113454425D01*
X128085575Y-113301209D01*
X128083774Y-113298513D01*
X128024631Y-113210000D01*
X127965193Y-113121045D01*
X127916215Y-113002802D01*
X127882272Y-112920857D01*
X127840000Y-112708342D01*
X127840000Y-112491658D01*
X127882272Y-112279143D01*
X127965192Y-112078957D01*
X128085574Y-111898792D01*
X128238792Y-111745574D01*
X128328262Y-111685792D01*
X128418955Y-111625193D01*
X128438283Y-111617187D01*
X128619143Y-111542272D01*
X128831658Y-111500000D01*
X129048342Y-111500000D01*
X129260857Y-111542272D01*
X129260857Y-111542272D01*
G37*
G36*
X163181703Y-110221486D02*
G01*
X163472883Y-110342097D01*
X163734940Y-110517198D01*
X163957802Y-110740060D01*
X164132903Y-111002117D01*
X164253514Y-111293297D01*
X164315000Y-111602412D01*
X164315000Y-111917588D01*
X164253514Y-112226703D01*
X164132903Y-112517883D01*
X163957802Y-112779940D01*
X163734940Y-113002802D01*
X163472883Y-113177903D01*
X163181703Y-113298514D01*
X162872588Y-113360000D01*
X162557412Y-113360000D01*
X162248297Y-113298514D01*
X161957117Y-113177903D01*
X161695060Y-113002802D01*
X161472198Y-112779940D01*
X161297097Y-112517883D01*
X161176486Y-112226703D01*
X161115000Y-111917588D01*
X161115000Y-111602412D01*
X161176486Y-111293297D01*
X161297097Y-111002117D01*
X161472198Y-110740060D01*
X161695060Y-110517198D01*
X161957117Y-110342097D01*
X162248297Y-110221486D01*
X162557412Y-110160000D01*
X162872588Y-110160000D01*
X163181703Y-110221486D01*
X163181703Y-110221486D01*
G37*
G36*
X117786703Y-110221486D02*
G01*
X118077883Y-110342097D01*
X118339940Y-110517198D01*
X118562802Y-110740060D01*
X118737903Y-111002117D01*
X118858514Y-111293297D01*
X118920000Y-111602412D01*
X118920000Y-111917588D01*
X118858514Y-112226703D01*
X118737903Y-112517883D01*
X118562802Y-112779940D01*
X118339940Y-113002802D01*
X118077883Y-113177903D01*
X117786703Y-113298514D01*
X117477588Y-113360000D01*
X117162412Y-113360000D01*
X116853297Y-113298514D01*
X116562117Y-113177903D01*
X116300060Y-113002802D01*
X116077198Y-112779940D01*
X115902097Y-112517883D01*
X115781486Y-112226703D01*
X115720000Y-111917588D01*
X115720000Y-111602412D01*
X115781486Y-111293297D01*
X115902097Y-111002117D01*
X116077198Y-110740060D01*
X116300060Y-110517198D01*
X116562117Y-110342097D01*
X116853297Y-110221486D01*
X117162412Y-110160000D01*
X117477588Y-110160000D01*
X117786703Y-110221486D01*
X117786703Y-110221486D01*
G37*
G36*
X159872020Y-113212220D02*
G01*
X158471260Y-113212220D01*
X158471260Y-112212780D01*
X159872020Y-112212780D01*
X159872020Y-113212220D01*
X159872020Y-113212220D01*
G37*
G36*
X121563740Y-113212220D02*
G01*
X120162980Y-113212220D01*
X120162980Y-112212780D01*
X121563740Y-112212780D01*
X121563740Y-113212220D01*
X121563740Y-113212220D01*
G37*
G36*
X186477948Y-110365722D02*
G01*
X186741831Y-110475026D01*
X186741833Y-110475027D01*
X186979321Y-110633711D01*
X187181289Y-110835679D01*
X187314342Y-111034808D01*
X187339974Y-111073169D01*
X187449278Y-111337052D01*
X187505000Y-111617186D01*
X187505000Y-111902814D01*
X187449278Y-112182948D01*
X187339974Y-112446831D01*
X187339973Y-112446833D01*
X187181289Y-112684321D01*
X186979321Y-112886289D01*
X186741833Y-113044973D01*
X186741832Y-113044974D01*
X186741831Y-113044974D01*
X186477948Y-113154278D01*
X186197814Y-113210000D01*
X185912186Y-113210000D01*
X185632052Y-113154278D01*
X185368169Y-113044974D01*
X185368168Y-113044974D01*
X185368167Y-113044973D01*
X185130679Y-112886289D01*
X184928711Y-112684321D01*
X184770027Y-112446833D01*
X184770026Y-112446831D01*
X184660722Y-112182948D01*
X184605000Y-111902814D01*
X184605000Y-111617186D01*
X184660722Y-111337052D01*
X184770026Y-111073169D01*
X184795658Y-111034808D01*
X184928711Y-110835679D01*
X185130679Y-110633711D01*
X185368167Y-110475027D01*
X185368169Y-110475026D01*
X185632052Y-110365722D01*
X185912186Y-110310000D01*
X186197814Y-110310000D01*
X186477948Y-110365722D01*
X186477948Y-110365722D01*
G37*
G36*
X94402948Y-110365722D02*
G01*
X94666831Y-110475026D01*
X94666833Y-110475027D01*
X94904321Y-110633711D01*
X95106289Y-110835679D01*
X95239342Y-111034808D01*
X95264974Y-111073169D01*
X95374278Y-111337052D01*
X95430000Y-111617186D01*
X95430000Y-111902814D01*
X95374278Y-112182948D01*
X95264974Y-112446831D01*
X95264973Y-112446833D01*
X95106289Y-112684321D01*
X94904321Y-112886289D01*
X94666833Y-113044973D01*
X94666832Y-113044974D01*
X94666831Y-113044974D01*
X94402948Y-113154278D01*
X94122814Y-113210000D01*
X93837186Y-113210000D01*
X93557052Y-113154278D01*
X93293169Y-113044974D01*
X93293168Y-113044974D01*
X93293167Y-113044973D01*
X93055679Y-112886289D01*
X92853711Y-112684321D01*
X92695027Y-112446833D01*
X92695026Y-112446831D01*
X92585722Y-112182948D01*
X92530000Y-111902814D01*
X92530000Y-111617186D01*
X92585722Y-111337052D01*
X92695026Y-111073169D01*
X92720658Y-111034808D01*
X92853711Y-110835679D01*
X93055679Y-110633711D01*
X93293167Y-110475027D01*
X93293169Y-110475026D01*
X93557052Y-110365722D01*
X93837186Y-110310000D01*
X94122814Y-110310000D01*
X94402948Y-110365722D01*
X94402948Y-110365722D01*
G37*
G36*
X157758740Y-112259720D02*
G01*
X156357980Y-112259720D01*
X156357980Y-111260280D01*
X157758740Y-111260280D01*
X157758740Y-112259720D01*
X157758740Y-112259720D01*
G37*
G36*
X123677020Y-112259720D02*
G01*
X122276260Y-112259720D01*
X122276260Y-111260280D01*
X123677020Y-111260280D01*
X123677020Y-112259720D01*
X123677020Y-112259720D01*
G37*
G36*
X121563740Y-111307220D02*
G01*
X120162980Y-111307220D01*
X120162980Y-110307780D01*
X121563740Y-110307780D01*
X121563740Y-111307220D01*
X121563740Y-111307220D01*
G37*
G36*
X159872020Y-111307220D02*
G01*
X158471260Y-111307220D01*
X158471260Y-110307780D01*
X159872020Y-110307780D01*
X159872020Y-111307220D01*
X159872020Y-111307220D01*
G37*
G36*
X152120857Y-109002272D02*
G01*
X152301507Y-109077100D01*
X152321045Y-109085193D01*
X152411738Y-109145792D01*
X152501208Y-109205574D01*
X152654426Y-109358792D01*
X152774808Y-109538957D01*
X152857728Y-109739143D01*
X152900000Y-109951658D01*
X152900000Y-110168342D01*
X152857728Y-110380857D01*
X152801253Y-110517199D01*
X152774807Y-110581045D01*
X152714208Y-110671738D01*
X152668557Y-110740060D01*
X152654425Y-110761209D01*
X152501209Y-110914425D01*
X152321045Y-111034807D01*
X152321044Y-111034808D01*
X152321043Y-111034808D01*
X152120857Y-111117728D01*
X151908342Y-111160000D01*
X151691658Y-111160000D01*
X151479143Y-111117728D01*
X151278957Y-111034808D01*
X151278956Y-111034808D01*
X151278955Y-111034807D01*
X151098791Y-110914425D01*
X150945575Y-110761209D01*
X150931444Y-110740060D01*
X150885792Y-110671738D01*
X150825193Y-110581045D01*
X150798747Y-110517199D01*
X150742272Y-110380857D01*
X150700000Y-110168342D01*
X150700000Y-109951658D01*
X150742272Y-109739143D01*
X150825192Y-109538957D01*
X150945574Y-109358792D01*
X151098792Y-109205574D01*
X151188262Y-109145792D01*
X151278955Y-109085193D01*
X151298493Y-109077100D01*
X151479143Y-109002272D01*
X151691658Y-108960000D01*
X151908342Y-108960000D01*
X152120857Y-109002272D01*
X152120857Y-109002272D01*
G37*
G36*
X129260857Y-109002272D02*
G01*
X129441507Y-109077100D01*
X129461045Y-109085193D01*
X129551738Y-109145792D01*
X129641208Y-109205574D01*
X129794426Y-109358792D01*
X129914808Y-109538957D01*
X129997728Y-109739143D01*
X130040000Y-109951658D01*
X130040000Y-110168342D01*
X129997728Y-110380857D01*
X129941253Y-110517199D01*
X129914807Y-110581045D01*
X129854208Y-110671738D01*
X129808557Y-110740060D01*
X129794425Y-110761209D01*
X129641209Y-110914425D01*
X129461045Y-111034807D01*
X129461044Y-111034808D01*
X129461043Y-111034808D01*
X129260857Y-111117728D01*
X129048342Y-111160000D01*
X128831658Y-111160000D01*
X128619143Y-111117728D01*
X128418957Y-111034808D01*
X128418956Y-111034808D01*
X128418955Y-111034807D01*
X128238791Y-110914425D01*
X128085575Y-110761209D01*
X128071444Y-110740060D01*
X128025792Y-110671738D01*
X127965193Y-110581045D01*
X127938747Y-110517199D01*
X127882272Y-110380857D01*
X127840000Y-110168342D01*
X127840000Y-109951658D01*
X127882272Y-109739143D01*
X127965192Y-109538957D01*
X128085574Y-109358792D01*
X128238792Y-109205574D01*
X128328262Y-109145792D01*
X128418955Y-109085193D01*
X128438493Y-109077100D01*
X128619143Y-109002272D01*
X128831658Y-108960000D01*
X129048342Y-108960000D01*
X129260857Y-109002272D01*
X129260857Y-109002272D01*
G37*
G36*
X123021700Y-109077100D02*
G01*
X120818300Y-109077100D01*
X120818300Y-107076900D01*
X123021700Y-107076900D01*
X123021700Y-109077100D01*
X123021700Y-109077100D01*
G37*
G36*
X158101700Y-109077100D02*
G01*
X155898300Y-109077100D01*
X155898300Y-107076900D01*
X158101700Y-107076900D01*
X158101700Y-109077100D01*
X158101700Y-109077100D01*
G37*
G36*
X94402948Y-105285722D02*
G01*
X94632496Y-105380804D01*
X94666833Y-105395027D01*
X94904321Y-105553711D01*
X95106289Y-105755679D01*
X95207891Y-105907738D01*
X95264974Y-105993169D01*
X95374278Y-106257052D01*
X95430000Y-106537186D01*
X95430000Y-106822814D01*
X95374278Y-107102948D01*
X95333101Y-107202357D01*
X95264973Y-107366833D01*
X95106289Y-107604321D01*
X94904321Y-107806289D01*
X94666833Y-107964973D01*
X94666832Y-107964974D01*
X94666831Y-107964974D01*
X94402948Y-108074278D01*
X94122814Y-108130000D01*
X93837186Y-108130000D01*
X93557052Y-108074278D01*
X93293169Y-107964974D01*
X93293168Y-107964974D01*
X93293167Y-107964973D01*
X93055679Y-107806289D01*
X92853711Y-107604321D01*
X92695027Y-107366833D01*
X92626899Y-107202357D01*
X92585722Y-107102948D01*
X92530000Y-106822814D01*
X92530000Y-106537186D01*
X92585722Y-106257052D01*
X92695026Y-105993169D01*
X92752109Y-105907738D01*
X92853711Y-105755679D01*
X93055679Y-105553711D01*
X93293167Y-105395027D01*
X93327504Y-105380804D01*
X93557052Y-105285722D01*
X93837186Y-105230000D01*
X94122814Y-105230000D01*
X94402948Y-105285722D01*
X94402948Y-105285722D01*
G37*
G36*
X186477948Y-105285722D02*
G01*
X186707496Y-105380804D01*
X186741833Y-105395027D01*
X186979321Y-105553711D01*
X187181289Y-105755679D01*
X187282891Y-105907738D01*
X187339974Y-105993169D01*
X187449278Y-106257052D01*
X187505000Y-106537186D01*
X187505000Y-106822814D01*
X187449278Y-107102948D01*
X187408101Y-107202357D01*
X187339973Y-107366833D01*
X187181289Y-107604321D01*
X186979321Y-107806289D01*
X186741833Y-107964973D01*
X186741832Y-107964974D01*
X186741831Y-107964974D01*
X186477948Y-108074278D01*
X186197814Y-108130000D01*
X185912186Y-108130000D01*
X185632052Y-108074278D01*
X185368169Y-107964974D01*
X185368168Y-107964974D01*
X185368167Y-107964973D01*
X185130679Y-107806289D01*
X184928711Y-107604321D01*
X184770027Y-107366833D01*
X184701899Y-107202357D01*
X184660722Y-107102948D01*
X184605000Y-106822814D01*
X184605000Y-106537186D01*
X184660722Y-106257052D01*
X184770026Y-105993169D01*
X184827109Y-105907738D01*
X184928711Y-105755679D01*
X185130679Y-105553711D01*
X185368167Y-105395027D01*
X185402504Y-105380804D01*
X185632052Y-105285722D01*
X185912186Y-105230000D01*
X186197814Y-105230000D01*
X186477948Y-105285722D01*
X186477948Y-105285722D01*
G37*
G36*
X103557534Y-101077643D02*
G01*
X103797527Y-101177052D01*
X103830517Y-101190717D01*
X103874342Y-101220000D01*
X104076193Y-101354873D01*
X104285127Y-101563807D01*
X104449284Y-101809485D01*
X104562357Y-102082466D01*
X104620000Y-102372262D01*
X104620000Y-102667738D01*
X104562357Y-102957534D01*
X104488525Y-103135779D01*
X104449283Y-103230517D01*
X104285126Y-103476194D01*
X104076194Y-103685126D01*
X103830517Y-103849283D01*
X103830516Y-103849284D01*
X103830515Y-103849284D01*
X103557534Y-103962357D01*
X103280794Y-104017403D01*
X103257345Y-104024516D01*
X103235735Y-104036067D01*
X103216793Y-104051612D01*
X103201247Y-104070554D01*
X103189696Y-104092165D01*
X103182583Y-104115614D01*
X103180181Y-104140000D01*
X103182583Y-104164386D01*
X103189696Y-104187835D01*
X103201247Y-104209445D01*
X103216792Y-104228387D01*
X103235734Y-104243933D01*
X103257345Y-104255484D01*
X103280794Y-104262597D01*
X103557534Y-104317643D01*
X103830515Y-104430716D01*
X103830517Y-104430717D01*
X103874342Y-104460000D01*
X104076193Y-104594873D01*
X104285127Y-104803807D01*
X104449284Y-105049485D01*
X104562357Y-105322466D01*
X104620000Y-105612262D01*
X104620000Y-105907738D01*
X104562357Y-106197534D01*
X104488525Y-106375779D01*
X104449283Y-106470517D01*
X104285126Y-106716194D01*
X104076194Y-106925126D01*
X103830517Y-107089283D01*
X103830516Y-107089284D01*
X103830515Y-107089284D01*
X103557534Y-107202357D01*
X103267738Y-107260000D01*
X102972262Y-107260000D01*
X102682466Y-107202357D01*
X102409485Y-107089284D01*
X102409484Y-107089284D01*
X102409483Y-107089283D01*
X102163806Y-106925126D01*
X101954874Y-106716194D01*
X101790717Y-106470517D01*
X101751475Y-106375779D01*
X101677643Y-106197534D01*
X101620000Y-105907738D01*
X101620000Y-105612262D01*
X101677643Y-105322466D01*
X101790716Y-105049485D01*
X101954873Y-104803807D01*
X102163807Y-104594873D01*
X102365658Y-104460000D01*
X102409483Y-104430717D01*
X102409485Y-104430716D01*
X102682466Y-104317643D01*
X102959206Y-104262597D01*
X102982655Y-104255484D01*
X103004265Y-104243933D01*
X103023207Y-104228388D01*
X103038753Y-104209446D01*
X103050304Y-104187835D01*
X103057417Y-104164386D01*
X103059819Y-104140000D01*
X103057417Y-104115614D01*
X103050304Y-104092165D01*
X103038753Y-104070555D01*
X103023208Y-104051613D01*
X103004266Y-104036067D01*
X102982655Y-104024516D01*
X102959206Y-104017403D01*
X102682466Y-103962357D01*
X102409485Y-103849284D01*
X102409484Y-103849284D01*
X102409483Y-103849283D01*
X102163806Y-103685126D01*
X101954874Y-103476194D01*
X101790717Y-103230517D01*
X101751475Y-103135779D01*
X101677643Y-102957534D01*
X101620000Y-102667738D01*
X101620000Y-102372262D01*
X101677643Y-102082466D01*
X101790716Y-101809485D01*
X101954873Y-101563807D01*
X102163807Y-101354873D01*
X102365658Y-101220000D01*
X102409483Y-101190717D01*
X102442473Y-101177052D01*
X102682466Y-101077643D01*
X102972262Y-101020000D01*
X103267738Y-101020000D01*
X103557534Y-101077643D01*
X103557534Y-101077643D01*
G37*
G36*
X177352534Y-101077643D02*
G01*
X177592527Y-101177052D01*
X177625517Y-101190717D01*
X177669342Y-101220000D01*
X177871193Y-101354873D01*
X178080127Y-101563807D01*
X178244284Y-101809485D01*
X178357357Y-102082466D01*
X178415000Y-102372262D01*
X178415000Y-102667738D01*
X178357357Y-102957534D01*
X178283525Y-103135779D01*
X178244283Y-103230517D01*
X178080126Y-103476194D01*
X177871194Y-103685126D01*
X177625517Y-103849283D01*
X177625516Y-103849284D01*
X177625515Y-103849284D01*
X177352534Y-103962357D01*
X177075794Y-104017403D01*
X177052345Y-104024516D01*
X177030735Y-104036067D01*
X177011793Y-104051612D01*
X176996247Y-104070554D01*
X176984696Y-104092165D01*
X176977583Y-104115614D01*
X176975181Y-104140000D01*
X176977583Y-104164386D01*
X176984696Y-104187835D01*
X176996247Y-104209445D01*
X177011792Y-104228387D01*
X177030734Y-104243933D01*
X177052345Y-104255484D01*
X177075794Y-104262597D01*
X177352534Y-104317643D01*
X177625515Y-104430716D01*
X177625517Y-104430717D01*
X177669342Y-104460000D01*
X177871193Y-104594873D01*
X178080127Y-104803807D01*
X178244284Y-105049485D01*
X178357357Y-105322466D01*
X178415000Y-105612262D01*
X178415000Y-105907738D01*
X178357357Y-106197534D01*
X178283525Y-106375779D01*
X178244283Y-106470517D01*
X178080126Y-106716194D01*
X177871194Y-106925126D01*
X177625517Y-107089283D01*
X177625516Y-107089284D01*
X177625515Y-107089284D01*
X177352534Y-107202357D01*
X177062738Y-107260000D01*
X176767262Y-107260000D01*
X176477466Y-107202357D01*
X176204485Y-107089284D01*
X176204484Y-107089284D01*
X176204483Y-107089283D01*
X175958806Y-106925126D01*
X175749874Y-106716194D01*
X175585717Y-106470517D01*
X175546475Y-106375779D01*
X175472643Y-106197534D01*
X175415000Y-105907738D01*
X175415000Y-105612262D01*
X175472643Y-105322466D01*
X175585716Y-105049485D01*
X175749873Y-104803807D01*
X175958807Y-104594873D01*
X176160658Y-104460000D01*
X176204483Y-104430717D01*
X176204485Y-104430716D01*
X176477466Y-104317643D01*
X176754206Y-104262597D01*
X176777655Y-104255484D01*
X176799265Y-104243933D01*
X176818207Y-104228388D01*
X176833753Y-104209446D01*
X176845304Y-104187835D01*
X176852417Y-104164386D01*
X176854819Y-104140000D01*
X176852417Y-104115614D01*
X176845304Y-104092165D01*
X176833753Y-104070555D01*
X176818208Y-104051613D01*
X176799266Y-104036067D01*
X176777655Y-104024516D01*
X176754206Y-104017403D01*
X176477466Y-103962357D01*
X176204485Y-103849284D01*
X176204484Y-103849284D01*
X176204483Y-103849283D01*
X175958806Y-103685126D01*
X175749874Y-103476194D01*
X175585717Y-103230517D01*
X175546475Y-103135779D01*
X175472643Y-102957534D01*
X175415000Y-102667738D01*
X175415000Y-102372262D01*
X175472643Y-102082466D01*
X175585716Y-101809485D01*
X175749873Y-101563807D01*
X175958807Y-101354873D01*
X176160658Y-101220000D01*
X176204483Y-101190717D01*
X176237473Y-101177052D01*
X176477466Y-101077643D01*
X176767262Y-101020000D01*
X177062738Y-101020000D01*
X177352534Y-101077643D01*
X177352534Y-101077643D01*
G37*
G36*
X115573617Y-104484979D02*
G01*
X115699196Y-104509958D01*
X115866486Y-104579252D01*
X115904199Y-104594873D01*
X115935781Y-104607955D01*
X116148702Y-104750224D01*
X116329776Y-104931298D01*
X116472045Y-105144219D01*
X116570042Y-105380804D01*
X116620000Y-105631961D01*
X116620000Y-105888039D01*
X116570042Y-106139196D01*
X116472045Y-106375781D01*
X116329776Y-106588702D01*
X116148702Y-106769776D01*
X115935781Y-106912045D01*
X115935780Y-106912046D01*
X115935779Y-106912046D01*
X115866486Y-106940748D01*
X115699196Y-107010042D01*
X115448040Y-107060000D01*
X115191960Y-107060000D01*
X114940804Y-107010042D01*
X114773514Y-106940748D01*
X114704221Y-106912046D01*
X114704220Y-106912046D01*
X114704219Y-106912045D01*
X114491298Y-106769776D01*
X114310224Y-106588702D01*
X114167955Y-106375781D01*
X114069958Y-106139196D01*
X114020000Y-105888039D01*
X114020000Y-105631961D01*
X114069958Y-105380804D01*
X114167955Y-105144219D01*
X114310224Y-104931298D01*
X114491298Y-104750224D01*
X114704219Y-104607955D01*
X114735802Y-104594873D01*
X114773514Y-104579252D01*
X114940804Y-104509958D01*
X115066383Y-104484979D01*
X115191960Y-104460000D01*
X115448040Y-104460000D01*
X115573617Y-104484979D01*
X115573617Y-104484979D01*
G37*
G36*
X164968617Y-104484979D02*
G01*
X165094196Y-104509958D01*
X165261486Y-104579252D01*
X165299199Y-104594873D01*
X165330781Y-104607955D01*
X165543702Y-104750224D01*
X165724776Y-104931298D01*
X165867045Y-105144219D01*
X165965042Y-105380804D01*
X166015000Y-105631961D01*
X166015000Y-105888039D01*
X165965042Y-106139196D01*
X165867045Y-106375781D01*
X165724776Y-106588702D01*
X165543702Y-106769776D01*
X165330781Y-106912045D01*
X165330780Y-106912046D01*
X165330779Y-106912046D01*
X165261486Y-106940748D01*
X165094196Y-107010042D01*
X164843040Y-107060000D01*
X164586960Y-107060000D01*
X164335804Y-107010042D01*
X164168514Y-106940748D01*
X164099221Y-106912046D01*
X164099220Y-106912046D01*
X164099219Y-106912045D01*
X163886298Y-106769776D01*
X163705224Y-106588702D01*
X163562955Y-106375781D01*
X163464958Y-106139196D01*
X163415000Y-105888039D01*
X163415000Y-105631961D01*
X163464958Y-105380804D01*
X163562955Y-105144219D01*
X163705224Y-104931298D01*
X163886298Y-104750224D01*
X164099219Y-104607955D01*
X164130802Y-104594873D01*
X164168514Y-104579252D01*
X164335804Y-104509958D01*
X164461383Y-104484979D01*
X164586960Y-104460000D01*
X164843040Y-104460000D01*
X164968617Y-104484979D01*
X164968617Y-104484979D01*
G37*
G36*
X158101700Y-106283100D02*
G01*
X155898300Y-106283100D01*
X155898300Y-104282900D01*
X158101700Y-104282900D01*
X158101700Y-106283100D01*
X158101700Y-106283100D01*
G37*
G36*
X123021700Y-106283100D02*
G01*
X120818300Y-106283100D01*
X120818300Y-104282900D01*
X123021700Y-104282900D01*
X123021700Y-106283100D01*
X123021700Y-106283100D01*
G37*
G36*
X115699196Y-101269958D02*
G01*
X115866486Y-101339252D01*
X115904199Y-101354873D01*
X115935781Y-101367955D01*
X116148702Y-101510224D01*
X116329776Y-101691298D01*
X116472045Y-101904219D01*
X116570042Y-102140804D01*
X116620000Y-102391961D01*
X116620000Y-102648039D01*
X116570042Y-102899196D01*
X116472045Y-103135781D01*
X116329776Y-103348702D01*
X116148702Y-103529776D01*
X115935781Y-103672045D01*
X115935780Y-103672046D01*
X115935779Y-103672046D01*
X115866486Y-103700748D01*
X115699196Y-103770042D01*
X115448040Y-103820000D01*
X115191960Y-103820000D01*
X115066383Y-103795021D01*
X114940804Y-103770042D01*
X114773514Y-103700748D01*
X114704221Y-103672046D01*
X114704220Y-103672046D01*
X114704219Y-103672045D01*
X114491298Y-103529776D01*
X114310224Y-103348702D01*
X114167955Y-103135781D01*
X114069958Y-102899196D01*
X114020000Y-102648039D01*
X114020000Y-102391961D01*
X114069958Y-102140804D01*
X114167955Y-101904219D01*
X114310224Y-101691298D01*
X114491298Y-101510224D01*
X114704219Y-101367955D01*
X114735802Y-101354873D01*
X114773514Y-101339252D01*
X114940804Y-101269958D01*
X115191960Y-101220000D01*
X115448040Y-101220000D01*
X115699196Y-101269958D01*
X115699196Y-101269958D01*
G37*
G36*
X165094196Y-101269958D02*
G01*
X165261486Y-101339252D01*
X165299199Y-101354873D01*
X165330781Y-101367955D01*
X165543702Y-101510224D01*
X165724776Y-101691298D01*
X165867045Y-101904219D01*
X165965042Y-102140804D01*
X166015000Y-102391961D01*
X166015000Y-102648039D01*
X165965042Y-102899196D01*
X165867045Y-103135781D01*
X165724776Y-103348702D01*
X165543702Y-103529776D01*
X165330781Y-103672045D01*
X165330780Y-103672046D01*
X165330779Y-103672046D01*
X165261486Y-103700748D01*
X165094196Y-103770042D01*
X164843040Y-103820000D01*
X164586960Y-103820000D01*
X164461383Y-103795021D01*
X164335804Y-103770042D01*
X164168514Y-103700748D01*
X164099221Y-103672046D01*
X164099220Y-103672046D01*
X164099219Y-103672045D01*
X163886298Y-103529776D01*
X163705224Y-103348702D01*
X163562955Y-103135781D01*
X163464958Y-102899196D01*
X163415000Y-102648039D01*
X163415000Y-102391961D01*
X163464958Y-102140804D01*
X163562955Y-101904219D01*
X163705224Y-101691298D01*
X163886298Y-101510224D01*
X164099219Y-101367955D01*
X164130802Y-101354873D01*
X164168514Y-101339252D01*
X164335804Y-101269958D01*
X164586960Y-101220000D01*
X164843040Y-101220000D01*
X165094196Y-101269958D01*
X165094196Y-101269958D01*
G37*
G36*
X94402948Y-100205722D02*
G01*
X94666831Y-100315026D01*
X94666833Y-100315027D01*
X94904321Y-100473711D01*
X95106289Y-100675679D01*
X95264973Y-100913167D01*
X95264974Y-100913169D01*
X95374278Y-101177052D01*
X95430000Y-101457186D01*
X95430000Y-101742814D01*
X95374278Y-102022948D01*
X95325460Y-102140804D01*
X95264973Y-102286833D01*
X95106289Y-102524321D01*
X94904321Y-102726289D01*
X94666833Y-102884973D01*
X94666832Y-102884974D01*
X94666831Y-102884974D01*
X94402948Y-102994278D01*
X94122814Y-103050000D01*
X93837186Y-103050000D01*
X93557052Y-102994278D01*
X93293169Y-102884974D01*
X93293168Y-102884974D01*
X93293167Y-102884973D01*
X93055679Y-102726289D01*
X92853711Y-102524321D01*
X92695027Y-102286833D01*
X92634540Y-102140804D01*
X92585722Y-102022948D01*
X92530000Y-101742814D01*
X92530000Y-101457186D01*
X92585722Y-101177052D01*
X92695026Y-100913169D01*
X92695027Y-100913167D01*
X92853711Y-100675679D01*
X93055679Y-100473711D01*
X93293167Y-100315027D01*
X93293169Y-100315026D01*
X93557052Y-100205722D01*
X93837186Y-100150000D01*
X94122814Y-100150000D01*
X94402948Y-100205722D01*
X94402948Y-100205722D01*
G37*
G36*
X186477948Y-100205722D02*
G01*
X186741831Y-100315026D01*
X186741833Y-100315027D01*
X186979321Y-100473711D01*
X187181289Y-100675679D01*
X187339973Y-100913167D01*
X187339974Y-100913169D01*
X187449278Y-101177052D01*
X187505000Y-101457186D01*
X187505000Y-101742814D01*
X187449278Y-102022948D01*
X187400460Y-102140804D01*
X187339973Y-102286833D01*
X187181289Y-102524321D01*
X186979321Y-102726289D01*
X186741833Y-102884973D01*
X186741832Y-102884974D01*
X186741831Y-102884974D01*
X186477948Y-102994278D01*
X186197814Y-103050000D01*
X185912186Y-103050000D01*
X185632052Y-102994278D01*
X185368169Y-102884974D01*
X185368168Y-102884974D01*
X185368167Y-102884973D01*
X185130679Y-102726289D01*
X184928711Y-102524321D01*
X184770027Y-102286833D01*
X184709540Y-102140804D01*
X184660722Y-102022948D01*
X184605000Y-101742814D01*
X184605000Y-101457186D01*
X184660722Y-101177052D01*
X184770026Y-100913169D01*
X184770027Y-100913167D01*
X184928711Y-100675679D01*
X185130679Y-100473711D01*
X185368167Y-100315027D01*
X185368169Y-100315026D01*
X185632052Y-100205722D01*
X185912186Y-100150000D01*
X186197814Y-100150000D01*
X186477948Y-100205722D01*
X186477948Y-100205722D01*
G37*
G36*
X137627100Y-102761700D02*
G01*
X135626900Y-102761700D01*
X135626900Y-100558300D01*
X137627100Y-100558300D01*
X137627100Y-102761700D01*
X137627100Y-102761700D01*
G37*
G36*
X134833100Y-102761700D02*
G01*
X132832900Y-102761700D01*
X132832900Y-100558300D01*
X134833100Y-100558300D01*
X134833100Y-102761700D01*
X134833100Y-102761700D01*
G37*
G36*
X151887714Y-97055788D02*
G01*
X152005241Y-97067363D01*
X152231442Y-97135981D01*
X152231445Y-97135982D01*
X152439910Y-97247408D01*
X152622634Y-97397366D01*
X152772592Y-97580090D01*
X152884018Y-97788555D01*
X152884019Y-97788558D01*
X152952637Y-98014759D01*
X152975806Y-98250000D01*
X152952637Y-98485241D01*
X152884019Y-98711442D01*
X152884018Y-98711445D01*
X152772592Y-98919910D01*
X152622634Y-99102634D01*
X152439910Y-99252592D01*
X152231445Y-99364018D01*
X152231442Y-99364019D01*
X152005241Y-99432637D01*
X151887714Y-99444212D01*
X151828951Y-99450000D01*
X151711049Y-99450000D01*
X151652286Y-99444212D01*
X151534759Y-99432637D01*
X151308558Y-99364019D01*
X151308555Y-99364018D01*
X151100090Y-99252592D01*
X150917366Y-99102634D01*
X150767408Y-98919910D01*
X150655982Y-98711445D01*
X150655981Y-98711442D01*
X150587363Y-98485241D01*
X150564194Y-98250000D01*
X150587363Y-98014759D01*
X150655981Y-97788558D01*
X150655982Y-97788555D01*
X150767408Y-97580090D01*
X150917366Y-97397366D01*
X151100090Y-97247408D01*
X151308555Y-97135982D01*
X151308558Y-97135981D01*
X151534759Y-97067363D01*
X151652286Y-97055788D01*
X151711049Y-97050000D01*
X151828951Y-97050000D01*
X151887714Y-97055788D01*
X151887714Y-97055788D01*
G37*
G36*
X146807714Y-97055788D02*
G01*
X146925241Y-97067363D01*
X147151442Y-97135981D01*
X147151445Y-97135982D01*
X147359910Y-97247408D01*
X147542634Y-97397366D01*
X147692592Y-97580090D01*
X147804018Y-97788555D01*
X147804019Y-97788558D01*
X147872637Y-98014759D01*
X147895806Y-98250000D01*
X147872637Y-98485241D01*
X147804019Y-98711442D01*
X147804018Y-98711445D01*
X147692592Y-98919910D01*
X147542634Y-99102634D01*
X147359910Y-99252592D01*
X147151445Y-99364018D01*
X147151442Y-99364019D01*
X146925241Y-99432637D01*
X146807714Y-99444212D01*
X146748951Y-99450000D01*
X146631049Y-99450000D01*
X146572286Y-99444212D01*
X146454759Y-99432637D01*
X146228558Y-99364019D01*
X146228555Y-99364018D01*
X146020090Y-99252592D01*
X145837366Y-99102634D01*
X145687408Y-98919910D01*
X145575982Y-98711445D01*
X145575981Y-98711442D01*
X145507363Y-98485241D01*
X145484194Y-98250000D01*
X145507363Y-98014759D01*
X145575981Y-97788558D01*
X145575982Y-97788555D01*
X145687408Y-97580090D01*
X145837366Y-97397366D01*
X146020090Y-97247408D01*
X146228555Y-97135982D01*
X146228558Y-97135981D01*
X146454759Y-97067363D01*
X146572286Y-97055788D01*
X146631049Y-97050000D01*
X146748951Y-97050000D01*
X146807714Y-97055788D01*
X146807714Y-97055788D01*
G37*
G36*
X163181703Y-94981486D02*
G01*
X163472883Y-95102097D01*
X163734940Y-95277198D01*
X163957802Y-95500060D01*
X164132903Y-95762117D01*
X164253514Y-96053297D01*
X164315000Y-96362412D01*
X164315000Y-96677588D01*
X164253514Y-96986703D01*
X164132903Y-97277883D01*
X163957802Y-97539940D01*
X163734940Y-97762802D01*
X163472883Y-97937903D01*
X163181703Y-98058514D01*
X162872588Y-98120000D01*
X162557412Y-98120000D01*
X162248297Y-98058514D01*
X161957117Y-97937903D01*
X161695060Y-97762802D01*
X161472198Y-97539940D01*
X161297097Y-97277883D01*
X161176486Y-96986703D01*
X161115000Y-96677588D01*
X161115000Y-96362412D01*
X161176486Y-96053297D01*
X161297097Y-95762117D01*
X161472198Y-95500060D01*
X161695060Y-95277198D01*
X161957117Y-95102097D01*
X162248297Y-94981486D01*
X162557412Y-94920000D01*
X162872588Y-94920000D01*
X163181703Y-94981486D01*
X163181703Y-94981486D01*
G37*
G36*
X117786703Y-94981486D02*
G01*
X118077883Y-95102097D01*
X118339940Y-95277198D01*
X118562802Y-95500060D01*
X118737903Y-95762117D01*
X118858514Y-96053297D01*
X118920000Y-96362412D01*
X118920000Y-96677588D01*
X118858514Y-96986703D01*
X118737903Y-97277883D01*
X118562802Y-97539940D01*
X118339940Y-97762802D01*
X118077883Y-97937903D01*
X117786703Y-98058514D01*
X117477588Y-98120000D01*
X117162412Y-98120000D01*
X116853297Y-98058514D01*
X116562117Y-97937903D01*
X116300060Y-97762802D01*
X116077198Y-97539940D01*
X115902097Y-97277883D01*
X115781486Y-96986703D01*
X115720000Y-96677588D01*
X115720000Y-96362412D01*
X115781486Y-96053297D01*
X115902097Y-95762117D01*
X116077198Y-95500060D01*
X116300060Y-95277198D01*
X116562117Y-95102097D01*
X116853297Y-94981486D01*
X117162412Y-94920000D01*
X117477588Y-94920000D01*
X117786703Y-94981486D01*
X117786703Y-94981486D01*
G37*
G36*
X140050000Y-98070000D02*
G01*
X137250000Y-98070000D01*
X137250000Y-96670000D01*
X140050000Y-96670000D01*
X140050000Y-98070000D01*
X140050000Y-98070000D01*
G37*
G36*
X121563740Y-97972220D02*
G01*
X120162980Y-97972220D01*
X120162980Y-96972780D01*
X121563740Y-96972780D01*
X121563740Y-97972220D01*
X121563740Y-97972220D01*
G37*
G36*
X159872020Y-97972220D02*
G01*
X158471260Y-97972220D01*
X158471260Y-96972780D01*
X159872020Y-96972780D01*
X159872020Y-97972220D01*
X159872020Y-97972220D01*
G37*
G36*
X94402948Y-95125722D02*
G01*
X94666831Y-95235026D01*
X94666833Y-95235027D01*
X94904321Y-95393711D01*
X95106289Y-95595679D01*
X95217498Y-95762116D01*
X95264974Y-95833169D01*
X95374278Y-96097052D01*
X95430000Y-96377186D01*
X95430000Y-96662814D01*
X95374278Y-96942948D01*
X95280230Y-97170000D01*
X95264973Y-97206833D01*
X95106289Y-97444321D01*
X94904321Y-97646289D01*
X94666833Y-97804973D01*
X94666832Y-97804974D01*
X94666831Y-97804974D01*
X94402948Y-97914278D01*
X94122814Y-97970000D01*
X93837186Y-97970000D01*
X93557052Y-97914278D01*
X93293169Y-97804974D01*
X93293168Y-97804974D01*
X93293167Y-97804973D01*
X93055679Y-97646289D01*
X92853711Y-97444321D01*
X92695027Y-97206833D01*
X92679770Y-97170000D01*
X92585722Y-96942948D01*
X92530000Y-96662814D01*
X92530000Y-96377186D01*
X92585722Y-96097052D01*
X92695026Y-95833169D01*
X92742502Y-95762116D01*
X92853711Y-95595679D01*
X93055679Y-95393711D01*
X93293167Y-95235027D01*
X93293169Y-95235026D01*
X93557052Y-95125722D01*
X93837186Y-95070000D01*
X94122814Y-95070000D01*
X94402948Y-95125722D01*
X94402948Y-95125722D01*
G37*
G36*
X186477948Y-95125722D02*
G01*
X186741831Y-95235026D01*
X186741833Y-95235027D01*
X186979321Y-95393711D01*
X187181289Y-95595679D01*
X187292498Y-95762116D01*
X187339974Y-95833169D01*
X187449278Y-96097052D01*
X187505000Y-96377186D01*
X187505000Y-96662814D01*
X187449278Y-96942948D01*
X187355230Y-97170000D01*
X187339973Y-97206833D01*
X187181289Y-97444321D01*
X186979321Y-97646289D01*
X186741833Y-97804973D01*
X186741832Y-97804974D01*
X186741831Y-97804974D01*
X186477948Y-97914278D01*
X186197814Y-97970000D01*
X185912186Y-97970000D01*
X185632052Y-97914278D01*
X185368169Y-97804974D01*
X185368168Y-97804974D01*
X185368167Y-97804973D01*
X185130679Y-97646289D01*
X184928711Y-97444321D01*
X184770027Y-97206833D01*
X184754770Y-97170000D01*
X184660722Y-96942948D01*
X184605000Y-96662814D01*
X184605000Y-96377186D01*
X184660722Y-96097052D01*
X184770026Y-95833169D01*
X184817502Y-95762116D01*
X184928711Y-95595679D01*
X185130679Y-95393711D01*
X185368167Y-95235027D01*
X185368169Y-95235026D01*
X185632052Y-95125722D01*
X185912186Y-95070000D01*
X186197814Y-95070000D01*
X186477948Y-95125722D01*
X186477948Y-95125722D01*
G37*
G36*
X143491700Y-97517100D02*
G01*
X141288300Y-97517100D01*
X141288300Y-95516900D01*
X143491700Y-95516900D01*
X143491700Y-97517100D01*
X143491700Y-97517100D01*
G37*
G36*
X133600000Y-97170000D02*
G01*
X130800000Y-97170000D01*
X130800000Y-92970000D01*
X133600000Y-92970000D01*
X133600000Y-97170000D01*
X133600000Y-97170000D01*
G37*
G36*
X123677020Y-97019720D02*
G01*
X122276260Y-97019720D01*
X122276260Y-96020280D01*
X123677020Y-96020280D01*
X123677020Y-97019720D01*
X123677020Y-97019720D01*
G37*
G36*
X157758740Y-97019720D02*
G01*
X156357980Y-97019720D01*
X156357980Y-96020280D01*
X157758740Y-96020280D01*
X157758740Y-97019720D01*
X157758740Y-97019720D01*
G37*
G36*
X121563740Y-96067220D02*
G01*
X120162980Y-96067220D01*
X120162980Y-95067780D01*
X121563740Y-95067780D01*
X121563740Y-96067220D01*
X121563740Y-96067220D01*
G37*
G36*
X159872020Y-96067220D02*
G01*
X158471260Y-96067220D01*
X158471260Y-95067780D01*
X159872020Y-95067780D01*
X159872020Y-96067220D01*
X159872020Y-96067220D01*
G37*
G36*
X140050000Y-95770000D02*
G01*
X137250000Y-95770000D01*
X137250000Y-94370000D01*
X140050000Y-94370000D01*
X140050000Y-95770000D01*
X140050000Y-95770000D01*
G37*
G36*
X143491700Y-94723100D02*
G01*
X141288300Y-94723100D01*
X141288300Y-92722900D01*
X143491700Y-92722900D01*
X143491700Y-94723100D01*
X143491700Y-94723100D01*
G37*
G36*
X147890000Y-94370000D02*
G01*
X145490000Y-94370000D01*
X145490000Y-91970000D01*
X147890000Y-91970000D01*
X147890000Y-94370000D01*
X147890000Y-94370000D01*
G37*
G36*
X151887714Y-91975788D02*
G01*
X152005241Y-91987363D01*
X152231442Y-92055981D01*
X152231445Y-92055982D01*
X152439910Y-92167408D01*
X152622634Y-92317366D01*
X152772592Y-92500090D01*
X152884018Y-92708555D01*
X152884019Y-92708558D01*
X152952637Y-92934759D01*
X152975806Y-93170000D01*
X152952637Y-93405241D01*
X152932992Y-93470000D01*
X152884018Y-93631445D01*
X152772592Y-93839910D01*
X152622634Y-94022634D01*
X152439910Y-94172592D01*
X152231445Y-94284018D01*
X152231442Y-94284019D01*
X152005241Y-94352637D01*
X151887714Y-94364212D01*
X151828951Y-94370000D01*
X151711049Y-94370000D01*
X151652286Y-94364212D01*
X151534759Y-94352637D01*
X151308558Y-94284019D01*
X151308555Y-94284018D01*
X151100090Y-94172592D01*
X150917366Y-94022634D01*
X150767408Y-93839910D01*
X150655982Y-93631445D01*
X150607008Y-93470000D01*
X150587363Y-93405241D01*
X150564194Y-93170000D01*
X150587363Y-92934759D01*
X150655981Y-92708558D01*
X150655982Y-92708555D01*
X150767408Y-92500090D01*
X150917366Y-92317366D01*
X151100090Y-92167408D01*
X151308555Y-92055982D01*
X151308558Y-92055981D01*
X151534759Y-91987363D01*
X151652286Y-91975788D01*
X151711049Y-91970000D01*
X151828951Y-91970000D01*
X151887714Y-91975788D01*
X151887714Y-91975788D01*
G37*
G36*
X123021700Y-93837100D02*
G01*
X120818300Y-93837100D01*
X120818300Y-91836900D01*
X123021700Y-91836900D01*
X123021700Y-93837100D01*
X123021700Y-93837100D01*
G37*
G36*
X158101700Y-93837100D02*
G01*
X155898300Y-93837100D01*
X155898300Y-91836900D01*
X158101700Y-91836900D01*
X158101700Y-93837100D01*
X158101700Y-93837100D01*
G37*
G36*
X140050000Y-93470000D02*
G01*
X137250000Y-93470000D01*
X137250000Y-92070000D01*
X140050000Y-92070000D01*
X140050000Y-93470000D01*
X140050000Y-93470000D01*
G37*
G36*
X126530604Y-91134968D02*
G01*
X126618142Y-91171228D01*
X126705678Y-91207486D01*
X126705679Y-91207487D01*
X126863237Y-91312763D01*
X126997237Y-91446763D01*
X127059068Y-91539300D01*
X127074613Y-91558242D01*
X127093555Y-91573788D01*
X127115166Y-91585339D01*
X127138615Y-91592452D01*
X127163001Y-91594854D01*
X127187387Y-91592452D01*
X127210836Y-91585339D01*
X127232446Y-91573788D01*
X127251388Y-91558243D01*
X127266934Y-91539301D01*
X127278485Y-91517690D01*
X127285598Y-91494241D01*
X127288000Y-91469855D01*
X127288000Y-91098000D01*
X129212000Y-91098000D01*
X129212000Y-93022000D01*
X127288000Y-93022000D01*
X127288000Y-92650145D01*
X127285598Y-92625759D01*
X127278485Y-92602310D01*
X127266934Y-92580699D01*
X127251389Y-92561757D01*
X127232447Y-92546212D01*
X127210836Y-92534661D01*
X127187387Y-92527548D01*
X127163001Y-92525146D01*
X127138615Y-92527548D01*
X127115166Y-92534661D01*
X127093555Y-92546212D01*
X127074613Y-92561757D01*
X127059068Y-92580700D01*
X126997237Y-92673237D01*
X126863237Y-92807237D01*
X126739372Y-92890000D01*
X126705678Y-92912514D01*
X126618142Y-92948772D01*
X126530604Y-92985032D01*
X126344750Y-93022000D01*
X126155250Y-93022000D01*
X125969396Y-92985032D01*
X125794322Y-92912514D01*
X125760628Y-92890000D01*
X125636763Y-92807237D01*
X125502763Y-92673237D01*
X125410170Y-92534661D01*
X125397486Y-92515678D01*
X125334792Y-92364320D01*
X125324968Y-92340604D01*
X125288000Y-92154750D01*
X125288000Y-91965250D01*
X125324968Y-91779396D01*
X125369434Y-91672046D01*
X125397486Y-91604322D01*
X125440932Y-91539301D01*
X125502763Y-91446763D01*
X125636763Y-91312763D01*
X125794321Y-91207487D01*
X125794322Y-91207486D01*
X125969396Y-91134968D01*
X126155250Y-91098000D01*
X126344750Y-91098000D01*
X126530604Y-91134968D01*
X126530604Y-91134968D01*
G37*
G36*
X186477948Y-90045722D02*
G01*
X186707496Y-90140804D01*
X186741833Y-90155027D01*
X186979321Y-90313711D01*
X187181289Y-90515679D01*
X187282891Y-90667738D01*
X187339974Y-90753169D01*
X187449278Y-91017052D01*
X187505000Y-91297186D01*
X187505000Y-91582814D01*
X187449278Y-91862948D01*
X187363514Y-92070000D01*
X187339973Y-92126833D01*
X187181289Y-92364321D01*
X186979321Y-92566289D01*
X186741833Y-92724973D01*
X186741832Y-92724974D01*
X186741831Y-92724974D01*
X186477948Y-92834278D01*
X186197814Y-92890000D01*
X185912186Y-92890000D01*
X185632052Y-92834278D01*
X185368169Y-92724974D01*
X185368168Y-92724974D01*
X185368167Y-92724973D01*
X185130679Y-92566289D01*
X184928711Y-92364321D01*
X184770027Y-92126833D01*
X184746486Y-92070000D01*
X184660722Y-91862948D01*
X184605000Y-91582814D01*
X184605000Y-91297186D01*
X184660722Y-91017052D01*
X184770026Y-90753169D01*
X184827109Y-90667738D01*
X184928711Y-90515679D01*
X185130679Y-90313711D01*
X185368167Y-90155027D01*
X185402504Y-90140804D01*
X185632052Y-90045722D01*
X185912186Y-89990000D01*
X186197814Y-89990000D01*
X186477948Y-90045722D01*
X186477948Y-90045722D01*
G37*
G36*
X94402948Y-90045722D02*
G01*
X94632496Y-90140804D01*
X94666833Y-90155027D01*
X94904321Y-90313711D01*
X95106289Y-90515679D01*
X95207891Y-90667738D01*
X95264974Y-90753169D01*
X95374278Y-91017052D01*
X95430000Y-91297186D01*
X95430000Y-91582814D01*
X95374278Y-91862948D01*
X95288514Y-92070000D01*
X95264973Y-92126833D01*
X95106289Y-92364321D01*
X94904321Y-92566289D01*
X94666833Y-92724973D01*
X94666832Y-92724974D01*
X94666831Y-92724974D01*
X94402948Y-92834278D01*
X94122814Y-92890000D01*
X93837186Y-92890000D01*
X93557052Y-92834278D01*
X93293169Y-92724974D01*
X93293168Y-92724974D01*
X93293167Y-92724973D01*
X93055679Y-92566289D01*
X92853711Y-92364321D01*
X92695027Y-92126833D01*
X92671486Y-92070000D01*
X92585722Y-91862948D01*
X92530000Y-91582814D01*
X92530000Y-91297186D01*
X92585722Y-91017052D01*
X92695026Y-90753169D01*
X92752109Y-90667738D01*
X92853711Y-90515679D01*
X93055679Y-90313711D01*
X93293167Y-90155027D01*
X93327504Y-90140804D01*
X93557052Y-90045722D01*
X93837186Y-89990000D01*
X94122814Y-89990000D01*
X94402948Y-90045722D01*
X94402948Y-90045722D01*
G37*
G36*
X103557534Y-89077643D02*
G01*
X103830515Y-89190716D01*
X103830517Y-89190717D01*
X103874342Y-89220000D01*
X104076193Y-89354873D01*
X104285127Y-89563807D01*
X104449284Y-89809485D01*
X104562357Y-90082466D01*
X104620000Y-90372262D01*
X104620000Y-90667738D01*
X104562357Y-90957534D01*
X104449284Y-91230515D01*
X104304792Y-91446763D01*
X104285126Y-91476194D01*
X104076194Y-91685126D01*
X103830517Y-91849283D01*
X103830516Y-91849284D01*
X103830515Y-91849284D01*
X103557534Y-91962357D01*
X103267738Y-92020000D01*
X102972262Y-92020000D01*
X102682466Y-91962357D01*
X102409485Y-91849284D01*
X102409484Y-91849284D01*
X102409483Y-91849283D01*
X102163806Y-91685126D01*
X101954874Y-91476194D01*
X101935209Y-91446763D01*
X101790716Y-91230515D01*
X101677643Y-90957534D01*
X101620000Y-90667738D01*
X101620000Y-90372262D01*
X101677643Y-90082466D01*
X101790716Y-89809485D01*
X101954873Y-89563807D01*
X102163807Y-89354873D01*
X102365658Y-89220000D01*
X102409483Y-89190717D01*
X102409485Y-89190716D01*
X102682466Y-89077643D01*
X102972262Y-89020000D01*
X103267738Y-89020000D01*
X103557534Y-89077643D01*
X103557534Y-89077643D01*
G37*
G36*
X177352534Y-89077643D02*
G01*
X177625515Y-89190716D01*
X177625517Y-89190717D01*
X177669342Y-89220000D01*
X177871193Y-89354873D01*
X178080127Y-89563807D01*
X178244284Y-89809485D01*
X178357357Y-90082466D01*
X178415000Y-90372262D01*
X178415000Y-90667738D01*
X178357357Y-90957534D01*
X178244284Y-91230515D01*
X178099792Y-91446763D01*
X178080126Y-91476194D01*
X177871194Y-91685126D01*
X177625517Y-91849283D01*
X177625516Y-91849284D01*
X177625515Y-91849284D01*
X177352534Y-91962357D01*
X177062738Y-92020000D01*
X176767262Y-92020000D01*
X176477466Y-91962357D01*
X176204485Y-91849284D01*
X176204484Y-91849284D01*
X176204483Y-91849283D01*
X175958806Y-91685126D01*
X175749874Y-91476194D01*
X175730209Y-91446763D01*
X175585716Y-91230515D01*
X175472643Y-90957534D01*
X175415000Y-90667738D01*
X175415000Y-90372262D01*
X175472643Y-90082466D01*
X175585716Y-89809485D01*
X175749873Y-89563807D01*
X175958807Y-89354873D01*
X176160658Y-89220000D01*
X176204483Y-89190717D01*
X176204485Y-89190716D01*
X176477466Y-89077643D01*
X176767262Y-89020000D01*
X177062738Y-89020000D01*
X177352534Y-89077643D01*
X177352534Y-89077643D01*
G37*
G36*
X115573617Y-89244979D02*
G01*
X115699196Y-89269958D01*
X115866486Y-89339252D01*
X115904199Y-89354873D01*
X115935781Y-89367955D01*
X116148702Y-89510224D01*
X116329776Y-89691298D01*
X116472045Y-89904219D01*
X116570042Y-90140804D01*
X116620000Y-90391961D01*
X116620000Y-90648039D01*
X116570042Y-90899196D01*
X116521225Y-91017051D01*
X116472382Y-91134969D01*
X116472045Y-91135781D01*
X116329776Y-91348702D01*
X116148702Y-91529776D01*
X115935781Y-91672045D01*
X115935780Y-91672046D01*
X115935779Y-91672046D01*
X115866486Y-91700748D01*
X115699196Y-91770042D01*
X115573617Y-91795021D01*
X115448040Y-91820000D01*
X115191960Y-91820000D01*
X115066383Y-91795021D01*
X114940804Y-91770042D01*
X114773514Y-91700748D01*
X114704221Y-91672046D01*
X114704220Y-91672046D01*
X114704219Y-91672045D01*
X114491298Y-91529776D01*
X114310224Y-91348702D01*
X114167955Y-91135781D01*
X114167619Y-91134969D01*
X114118775Y-91017051D01*
X114069958Y-90899196D01*
X114020000Y-90648039D01*
X114020000Y-90391961D01*
X114069958Y-90140804D01*
X114167955Y-89904219D01*
X114310224Y-89691298D01*
X114491298Y-89510224D01*
X114704219Y-89367955D01*
X114735802Y-89354873D01*
X114773514Y-89339252D01*
X114940804Y-89269958D01*
X115066383Y-89244979D01*
X115191960Y-89220000D01*
X115448040Y-89220000D01*
X115573617Y-89244979D01*
X115573617Y-89244979D01*
G37*
G36*
X164968617Y-89244979D02*
G01*
X165094196Y-89269958D01*
X165261486Y-89339252D01*
X165299199Y-89354873D01*
X165330781Y-89367955D01*
X165543702Y-89510224D01*
X165724776Y-89691298D01*
X165867045Y-89904219D01*
X165965042Y-90140804D01*
X166015000Y-90391961D01*
X166015000Y-90648039D01*
X165965042Y-90899196D01*
X165916225Y-91017051D01*
X165867382Y-91134969D01*
X165867045Y-91135781D01*
X165724776Y-91348702D01*
X165543702Y-91529776D01*
X165330781Y-91672045D01*
X165330780Y-91672046D01*
X165330779Y-91672046D01*
X165261486Y-91700748D01*
X165094196Y-91770042D01*
X164968617Y-91795021D01*
X164843040Y-91820000D01*
X164586960Y-91820000D01*
X164461383Y-91795021D01*
X164335804Y-91770042D01*
X164168514Y-91700748D01*
X164099221Y-91672046D01*
X164099220Y-91672046D01*
X164099219Y-91672045D01*
X163886298Y-91529776D01*
X163705224Y-91348702D01*
X163562955Y-91135781D01*
X163562619Y-91134969D01*
X163513775Y-91017051D01*
X163464958Y-90899196D01*
X163415000Y-90648039D01*
X163415000Y-90391961D01*
X163464958Y-90140804D01*
X163562955Y-89904219D01*
X163705224Y-89691298D01*
X163886298Y-89510224D01*
X164099219Y-89367955D01*
X164130802Y-89354873D01*
X164168514Y-89339252D01*
X164335804Y-89269958D01*
X164461383Y-89244979D01*
X164586960Y-89220000D01*
X164843040Y-89220000D01*
X164968617Y-89244979D01*
X164968617Y-89244979D01*
G37*
G36*
X123021700Y-91043100D02*
G01*
X120818300Y-91043100D01*
X120818300Y-89042900D01*
X123021700Y-89042900D01*
X123021700Y-91043100D01*
X123021700Y-91043100D01*
G37*
G36*
X158101700Y-91043100D02*
G01*
X155898300Y-91043100D01*
X155898300Y-89042900D01*
X158101700Y-89042900D01*
X158101700Y-91043100D01*
X158101700Y-91043100D01*
G37*
G36*
X152322948Y-84585722D02*
G01*
X152586831Y-84695026D01*
X152586833Y-84695027D01*
X152824321Y-84853711D01*
X153026289Y-85055679D01*
X153137603Y-85222273D01*
X153184974Y-85293169D01*
X153294278Y-85557052D01*
X153350000Y-85837186D01*
X153350000Y-86122814D01*
X153294278Y-86402948D01*
X153212301Y-86600857D01*
X153184973Y-86666833D01*
X153026289Y-86904321D01*
X152824321Y-87106289D01*
X152586833Y-87264973D01*
X152586832Y-87264974D01*
X152586831Y-87264974D01*
X152322948Y-87374278D01*
X152042814Y-87430000D01*
X151757186Y-87430000D01*
X151477052Y-87374278D01*
X151213169Y-87264974D01*
X151213168Y-87264974D01*
X151213167Y-87264973D01*
X150975679Y-87106289D01*
X150773711Y-86904321D01*
X150615027Y-86666833D01*
X150587699Y-86600857D01*
X150505722Y-86402948D01*
X150450000Y-86122814D01*
X150450000Y-85837186D01*
X150505722Y-85557052D01*
X150615026Y-85293169D01*
X150662397Y-85222273D01*
X150773711Y-85055679D01*
X150975679Y-84853711D01*
X151213167Y-84695027D01*
X151213169Y-84695026D01*
X151477052Y-84585722D01*
X151757186Y-84530000D01*
X152042814Y-84530000D01*
X152322948Y-84585722D01*
X152322948Y-84585722D01*
G37*
G36*
X147242948Y-84585722D02*
G01*
X147506831Y-84695026D01*
X147506833Y-84695027D01*
X147744321Y-84853711D01*
X147946289Y-85055679D01*
X148057603Y-85222273D01*
X148104974Y-85293169D01*
X148214278Y-85557052D01*
X148270000Y-85837186D01*
X148270000Y-86122814D01*
X148214278Y-86402948D01*
X148132301Y-86600857D01*
X148104973Y-86666833D01*
X147946289Y-86904321D01*
X147744321Y-87106289D01*
X147506833Y-87264973D01*
X147506832Y-87264974D01*
X147506831Y-87264974D01*
X147242948Y-87374278D01*
X146962814Y-87430000D01*
X146677186Y-87430000D01*
X146397052Y-87374278D01*
X146133169Y-87264974D01*
X146133168Y-87264974D01*
X146133167Y-87264973D01*
X145895679Y-87106289D01*
X145693711Y-86904321D01*
X145535027Y-86666833D01*
X145507699Y-86600857D01*
X145425722Y-86402948D01*
X145370000Y-86122814D01*
X145370000Y-85837186D01*
X145425722Y-85557052D01*
X145535026Y-85293169D01*
X145582397Y-85222273D01*
X145693711Y-85055679D01*
X145895679Y-84853711D01*
X146133167Y-84695027D01*
X146133169Y-84695026D01*
X146397052Y-84585722D01*
X146677186Y-84530000D01*
X146962814Y-84530000D01*
X147242948Y-84585722D01*
X147242948Y-84585722D01*
G37*
G36*
X127500857Y-85222272D02*
G01*
X127701043Y-85305192D01*
X127701045Y-85305193D01*
X127791738Y-85365792D01*
X127881208Y-85425574D01*
X128034426Y-85578792D01*
X128154808Y-85758957D01*
X128237728Y-85959143D01*
X128280000Y-86171658D01*
X128280000Y-86388342D01*
X128237728Y-86600857D01*
X128154808Y-86801043D01*
X128154807Y-86801045D01*
X128034425Y-86981209D01*
X127881209Y-87134425D01*
X127701045Y-87254807D01*
X127701044Y-87254808D01*
X127701043Y-87254808D01*
X127500857Y-87337728D01*
X127288342Y-87380000D01*
X127071658Y-87380000D01*
X126859143Y-87337728D01*
X126658957Y-87254808D01*
X126658956Y-87254808D01*
X126658955Y-87254807D01*
X126478791Y-87134425D01*
X126325575Y-86981209D01*
X126205193Y-86801045D01*
X126205192Y-86801043D01*
X126122272Y-86600857D01*
X126080000Y-86388342D01*
X126080000Y-86171658D01*
X126122272Y-85959143D01*
X126205192Y-85758957D01*
X126325574Y-85578792D01*
X126478792Y-85425574D01*
X126568262Y-85365792D01*
X126658955Y-85305193D01*
X126658957Y-85305192D01*
X126859143Y-85222272D01*
X127071658Y-85180000D01*
X127288342Y-85180000D01*
X127500857Y-85222272D01*
X127500857Y-85222272D01*
G37*
G36*
X128280000Y-83880000D02*
G01*
X126080000Y-83880000D01*
X126080000Y-81680000D01*
X128280000Y-81680000D01*
X128280000Y-83880000D01*
X128280000Y-83880000D01*
G37*
M02*
