M48
; DRILL file {KiCad (5.1.2)-1} date 14/01/2020 11:16:10
; FORMAT={-:-/ absolute / inch / decimal}
; #@! TF.CreationDate,2020-01-14T11:16:10-03:00
; #@! TF.GenerationSoftware,Kicad,Pcbnew,(5.1.2)-1
; #@! TF.FileFunction,Plated,1,2,PTH
FMAT,2
INCH
T1C0.0157
T2C0.0256
T3C0.0315
T4C0.0394
T5C0.0394
T6C0.0400
T7C0.0512
T8C0.0551
T9C0.1280
%
G90
G05
T1
X4.75Y-3.978
X4.75Y-4.5756
X4.75Y-5.1776
X4.75Y-5.7748
X6.275Y-3.6242
X6.275Y-4.2211
X6.275Y-4.8238
X6.275Y-5.425
T2
X4.9705Y-3.6244
X5.0492Y-3.6244
T3
X5.0071Y-3.2591
X5.0071Y-3.3969
T4
X5.7752Y-3.6681
X5.7752Y-3.8681
X5.9752Y-3.6681
X5.9752Y-3.8681
T5
X5.6748Y-5.5122
X5.7748Y-5.5122
X5.8748Y-5.5122
X5.9748Y-5.5122
T6
X5.0764Y-4.3331
X5.0764Y-4.4331
X5.0764Y-4.5331
X5.0764Y-4.6331
X5.0764Y-4.7331
X5.0764Y-4.8331
X5.0764Y-4.9331
X5.0764Y-5.0331
X5.9764Y-4.3331
X5.9764Y-4.4331
X5.9764Y-4.5331
X5.9764Y-4.6331
X5.9764Y-4.7331
X5.9764Y-4.8331
X5.9764Y-4.9331
X5.9764Y-5.0331
T7
X4.0598Y-5.3638
X4.0598Y-5.8362
X4.5402Y-5.3638
X4.5402Y-5.8362
X4.0598Y-3.5638
X4.0598Y-4.0362
X4.5402Y-3.5638
X4.5402Y-4.0362
X3.7Y-4.2
X3.7Y-4.4
X3.7Y-4.6
X3.7Y-4.8
X3.7Y-5.0
X3.7Y-5.2
X3.7Y-3.6
X3.7Y-3.8
X3.7Y-4.0
X6.4848Y-4.1638
X6.4848Y-4.6362
X6.9652Y-4.1638
X6.9652Y-4.6362
X6.4848Y-3.5638
X6.4848Y-4.0362
X6.9652Y-3.5638
X6.9652Y-4.0362
X4.0598Y-4.1638
X4.0598Y-4.6362
X4.5402Y-4.1638
X4.5402Y-4.6362
X3.7Y-5.4
X3.7Y-5.6
X3.7Y-5.8
X7.325Y-3.6
X7.325Y-3.8
X7.325Y-4.0
X5.7803Y-3.385
X5.9803Y-3.385
X6.4848Y-4.7638
X6.4848Y-5.2362
X6.9652Y-4.7638
X6.9652Y-5.2362
X4.0598Y-4.7638
X4.0598Y-5.2362
X4.5402Y-4.7638
X4.5402Y-5.2362
X7.325Y-4.2
X7.325Y-4.4
X7.325Y-4.6
X7.325Y-4.8
X7.325Y-5.0
X7.325Y-5.2
X7.325Y-5.4
X7.325Y-5.6
X7.325Y-5.8
X5.2925Y-6.1012
X5.4925Y-6.1012
X6.4848Y-5.3638
X6.4848Y-5.8362
X6.9652Y-5.3638
X6.9652Y-5.8362
T8
X6.4061Y-3.8
X6.4061Y-5.0
X4.6189Y-5.6
X6.4061Y-4.4
X4.6189Y-4.4
X4.6189Y-5.0
X6.4061Y-5.6
X4.6189Y-3.8
T9
X7.2835Y-3.3465
X3.7402Y-3.3465
X7.2835Y-6.1024
X3.7402Y-6.1024
T0
M30
